<?xml version="1.0" encoding="utf-8"?>
<svg xmlns="http://www.w3.org/2000/svg" xmlns:xlink="http://www.w3.org/1999/xlink" width="900" height="500" viewBox="0 0 3600 2000">
<defs>
  <clipPath id="clip960">
    <rect x="0" y="0" width="3600" height="2000"/>
  </clipPath>
</defs>
<path clip-path="url(#clip960)" d="M0 2000 L3600 2000 L3600 0 L0 0  Z" fill="#ffffff" fill-rule="evenodd" fill-opacity="1"/>
<defs>
  <clipPath id="clip961">
    <rect x="720" y="0" width="2521" height="2000"/>
  </clipPath>
</defs>
<path clip-path="url(#clip960)" d="M325.177 1759.63 L3552.76 1759.63 L3552.76 113.392 L325.177 113.392  Z" fill="#ffffff" fill-rule="evenodd" fill-opacity="1"/>
<defs>
  <clipPath id="clip962">
    <rect x="325" y="113" width="3229" height="1647"/>
  </clipPath>
</defs>
<polyline clip-path="url(#clip962)" style="stroke:#000000; stroke-linecap:round; stroke-linejoin:round; stroke-width:2; stroke-opacity:0.1; fill:none" points="416.524,1759.63 416.524,113.392 "/>
<polyline clip-path="url(#clip962)" style="stroke:#000000; stroke-linecap:round; stroke-linejoin:round; stroke-width:2; stroke-opacity:0.1; fill:none" points="1541.46,1759.63 1541.46,113.392 "/>
<polyline clip-path="url(#clip962)" style="stroke:#000000; stroke-linecap:round; stroke-linejoin:round; stroke-width:2; stroke-opacity:0.1; fill:none" points="2666.4,1759.63 2666.4,113.392 "/>
<polyline clip-path="url(#clip960)" style="stroke:#000000; stroke-linecap:round; stroke-linejoin:round; stroke-width:4; stroke-opacity:1; fill:none" points="325.177,1759.63 3552.76,1759.63 "/>
<polyline clip-path="url(#clip960)" style="stroke:#000000; stroke-linecap:round; stroke-linejoin:round; stroke-width:4; stroke-opacity:1; fill:none" points="416.524,1759.63 416.524,1740.73 "/>
<polyline clip-path="url(#clip960)" style="stroke:#000000; stroke-linecap:round; stroke-linejoin:round; stroke-width:4; stroke-opacity:1; fill:none" points="1541.46,1759.63 1541.46,1740.73 "/>
<polyline clip-path="url(#clip960)" style="stroke:#000000; stroke-linecap:round; stroke-linejoin:round; stroke-width:4; stroke-opacity:1; fill:none" points="2666.4,1759.63 2666.4,1740.73 "/>
<path clip-path="url(#clip960)" d="M381.507 1843.36 L389.146 1843.36 L389.146 1816.99 L380.836 1818.66 L380.836 1814.4 L389.099 1812.73 L393.775 1812.73 L393.775 1843.36 L401.414 1843.36 L401.414 1847.29 L381.507 1847.29 L381.507 1843.36 Z" fill="#000000" fill-rule="nonzero" fill-opacity="1" /><path clip-path="url(#clip960)" d="M420.859 1815.81 Q417.247 1815.81 415.419 1819.38 Q413.613 1822.92 413.613 1830.05 Q413.613 1837.15 415.419 1840.72 Q417.247 1844.26 420.859 1844.26 Q424.493 1844.26 426.298 1840.72 Q428.127 1837.15 428.127 1830.05 Q428.127 1822.92 426.298 1819.38 Q424.493 1815.81 420.859 1815.81 M420.859 1812.11 Q426.669 1812.11 429.724 1816.71 Q432.803 1821.3 432.803 1830.05 Q432.803 1838.77 429.724 1843.38 Q426.669 1847.96 420.859 1847.96 Q415.048 1847.96 411.97 1843.38 Q408.914 1838.77 408.914 1830.05 Q408.914 1821.3 411.97 1816.71 Q415.048 1812.11 420.859 1812.11 Z" fill="#000000" fill-rule="nonzero" fill-opacity="1" /><path clip-path="url(#clip960)" d="M442.508 1794.3 Q439.574 1794.3 438.088 1797.2 Q436.621 1800.08 436.621 1805.87 Q436.621 1811.64 438.088 1814.54 Q439.574 1817.42 442.508 1817.42 Q445.461 1817.42 446.928 1814.54 Q448.413 1811.64 448.413 1805.87 Q448.413 1800.08 446.928 1797.2 Q445.461 1794.3 442.508 1794.3 M442.508 1791.29 Q447.228 1791.29 449.711 1795.04 Q452.213 1798.76 452.213 1805.87 Q452.213 1812.96 449.711 1816.7 Q447.228 1820.43 442.508 1820.43 Q437.787 1820.43 435.286 1816.7 Q432.803 1812.96 432.803 1805.87 Q432.803 1798.76 435.286 1795.04 Q437.787 1791.29 442.508 1791.29 Z" fill="#000000" fill-rule="nonzero" fill-opacity="1" /><path clip-path="url(#clip960)" d="M1507.79 1843.36 L1515.43 1843.36 L1515.43 1816.99 L1507.12 1818.66 L1507.12 1814.4 L1515.38 1812.73 L1520.06 1812.73 L1520.06 1843.36 L1527.7 1843.36 L1527.7 1847.29 L1507.79 1847.29 L1507.79 1843.36 Z" fill="#000000" fill-rule="nonzero" fill-opacity="1" /><path clip-path="url(#clip960)" d="M1547.14 1815.81 Q1543.53 1815.81 1541.7 1819.38 Q1539.89 1822.92 1539.89 1830.05 Q1539.89 1837.15 1541.7 1840.72 Q1543.53 1844.26 1547.14 1844.26 Q1550.77 1844.26 1552.58 1840.72 Q1554.41 1837.15 1554.41 1830.05 Q1554.41 1822.92 1552.58 1819.38 Q1550.77 1815.81 1547.14 1815.81 M1547.14 1812.11 Q1552.95 1812.11 1556.01 1816.71 Q1559.08 1821.3 1559.08 1830.05 Q1559.08 1838.77 1556.01 1843.38 Q1552.95 1847.96 1547.14 1847.96 Q1541.33 1847.96 1538.25 1843.38 Q1535.2 1838.77 1535.2 1830.05 Q1535.2 1821.3 1538.25 1816.71 Q1541.33 1812.11 1547.14 1812.11 Z" fill="#000000" fill-rule="nonzero" fill-opacity="1" /><path clip-path="url(#clip960)" d="M1559.63 1816.68 L1565.84 1816.68 L1565.84 1795.26 L1559.08 1796.62 L1559.08 1793.16 L1565.8 1791.8 L1569.6 1791.8 L1569.6 1816.68 L1575.8 1816.68 L1575.8 1819.88 L1559.63 1819.88 L1559.63 1816.68 Z" fill="#000000" fill-rule="nonzero" fill-opacity="1" /><path clip-path="url(#clip960)" d="M2632.17 1843.36 L2639.81 1843.36 L2639.81 1816.99 L2631.5 1818.66 L2631.5 1814.4 L2639.76 1812.73 L2644.44 1812.73 L2644.44 1843.36 L2652.08 1843.36 L2652.08 1847.29 L2632.17 1847.29 L2632.17 1843.36 Z" fill="#000000" fill-rule="nonzero" fill-opacity="1" /><path clip-path="url(#clip960)" d="M2671.52 1815.81 Q2667.91 1815.81 2666.08 1819.38 Q2664.28 1822.92 2664.28 1830.05 Q2664.28 1837.15 2666.08 1840.72 Q2667.91 1844.26 2671.52 1844.26 Q2675.16 1844.26 2676.96 1840.72 Q2678.79 1837.15 2678.79 1830.05 Q2678.79 1822.92 2676.96 1819.38 Q2675.16 1815.81 2671.52 1815.81 M2671.52 1812.11 Q2677.33 1812.11 2680.39 1816.71 Q2683.47 1821.3 2683.47 1830.05 Q2683.47 1838.77 2680.39 1843.38 Q2677.33 1847.96 2671.52 1847.96 Q2665.71 1847.96 2662.63 1843.38 Q2659.58 1838.77 2659.58 1830.05 Q2659.58 1821.3 2662.63 1816.71 Q2665.71 1812.11 2671.52 1812.11 Z" fill="#000000" fill-rule="nonzero" fill-opacity="1" /><path clip-path="url(#clip960)" d="M2688.04 1816.68 L2701.3 1816.68 L2701.3 1819.88 L2683.47 1819.88 L2683.47 1816.68 Q2685.63 1814.45 2689.35 1810.68 Q2693.1 1806.9 2694.05 1805.81 Q2695.88 1803.76 2696.59 1802.35 Q2697.33 1800.92 2697.33 1799.55 Q2697.33 1797.31 2695.75 1795.9 Q2694.19 1794.49 2691.67 1794.49 Q2689.88 1794.49 2687.89 1795.11 Q2685.91 1795.73 2683.65 1796.99 L2683.65 1793.16 Q2685.95 1792.23 2687.94 1791.76 Q2689.94 1791.29 2691.59 1791.29 Q2695.95 1791.29 2698.55 1793.48 Q2701.14 1795.66 2701.14 1799.31 Q2701.14 1801.04 2700.49 1802.6 Q2699.85 1804.14 2698.14 1806.25 Q2697.67 1806.79 2695.15 1809.41 Q2692.62 1812 2688.04 1816.68 Z" fill="#000000" fill-rule="nonzero" fill-opacity="1" /><path clip-path="url(#clip960)" d="M1788.53 1893.4 L1794.96 1893.4 L1794.96 1940.92 L1788.53 1940.92 L1788.53 1893.4 Z" fill="#000000" fill-rule="nonzero" fill-opacity="1" /><path clip-path="url(#clip960)" d="M1813.29 1895.15 L1813.29 1905.27 L1825.35 1905.27 L1825.35 1909.82 L1813.29 1909.82 L1813.29 1929.18 Q1813.29 1933.54 1814.47 1934.78 Q1815.68 1936.02 1819.34 1936.02 L1825.35 1936.02 L1825.35 1940.92 L1819.34 1940.92 Q1812.56 1940.92 1809.98 1938.41 Q1807.4 1935.86 1807.4 1929.18 L1807.4 1909.82 L1803.11 1909.82 L1803.11 1905.27 L1807.4 1905.27 L1807.4 1895.15 L1813.29 1895.15 Z" fill="#000000" fill-rule="nonzero" fill-opacity="1" /><path clip-path="url(#clip960)" d="M1863.55 1921.63 L1863.55 1924.5 L1836.62 1924.5 Q1837 1930.54 1840.25 1933.73 Q1843.53 1936.88 1849.35 1936.88 Q1852.73 1936.88 1855.88 1936.05 Q1859.06 1935.22 1862.18 1933.57 L1862.18 1939.11 Q1859.03 1940.44 1855.72 1941.14 Q1852.41 1941.84 1849 1941.84 Q1840.47 1941.84 1835.48 1936.88 Q1830.51 1931.91 1830.51 1923.45 Q1830.51 1914.69 1835.22 1909.57 Q1839.96 1904.41 1847.98 1904.41 Q1855.18 1904.41 1859.35 1909.06 Q1863.55 1913.68 1863.55 1921.63 M1857.69 1919.91 Q1857.63 1915.11 1854.99 1912.24 Q1852.38 1909.38 1848.05 1909.38 Q1843.15 1909.38 1840.19 1912.15 Q1837.26 1914.92 1836.81 1919.95 L1857.69 1919.91 Z" fill="#000000" fill-rule="nonzero" fill-opacity="1" /><path clip-path="url(#clip960)" d="M1893.82 1910.75 Q1892.83 1910.17 1891.65 1909.92 Q1890.51 1909.63 1889.11 1909.63 Q1884.14 1909.63 1881.47 1912.88 Q1878.83 1916.09 1878.83 1922.14 L1878.83 1940.92 L1872.94 1940.92 L1872.94 1905.27 L1878.83 1905.27 L1878.83 1910.81 Q1880.67 1907.56 1883.63 1906 Q1886.59 1904.41 1890.83 1904.41 Q1891.43 1904.41 1892.16 1904.51 Q1892.89 1904.57 1893.79 1904.73 L1893.82 1910.75 Z" fill="#000000" fill-rule="nonzero" fill-opacity="1" /><path clip-path="url(#clip960)" d="M1916.16 1923 Q1909.06 1923 1906.33 1924.62 Q1903.59 1926.25 1903.59 1930.16 Q1903.59 1933.28 1905.63 1935.13 Q1907.7 1936.94 1911.23 1936.94 Q1916.1 1936.94 1919.03 1933.5 Q1921.99 1930.04 1921.99 1924.31 L1921.99 1923 L1916.16 1923 M1927.84 1920.58 L1927.84 1940.92 L1921.99 1940.92 L1921.99 1935.51 Q1919.98 1938.76 1916.99 1940.32 Q1914 1941.84 1909.67 1941.84 Q1904.19 1941.84 1900.95 1938.79 Q1897.73 1935.7 1897.73 1930.54 Q1897.73 1924.53 1901.74 1921.47 Q1905.79 1918.42 1913.77 1918.42 L1921.99 1918.42 L1921.99 1917.84 Q1921.99 1913.8 1919.31 1911.61 Q1916.67 1909.38 1911.86 1909.38 Q1908.81 1909.38 1905.91 1910.11 Q1903.02 1910.84 1900.34 1912.31 L1900.34 1906.9 Q1903.56 1905.65 1906.58 1905.05 Q1909.6 1904.41 1912.47 1904.41 Q1920.2 1904.41 1924.02 1908.42 Q1927.84 1912.43 1927.84 1920.58 Z" fill="#000000" fill-rule="nonzero" fill-opacity="1" /><path clip-path="url(#clip960)" d="M1945.7 1895.15 L1945.7 1905.27 L1957.76 1905.27 L1957.76 1909.82 L1945.7 1909.82 L1945.7 1929.18 Q1945.7 1933.54 1946.88 1934.78 Q1948.09 1936.02 1951.75 1936.02 L1957.76 1936.02 L1957.76 1940.92 L1951.75 1940.92 Q1944.97 1940.92 1942.39 1938.41 Q1939.81 1935.86 1939.81 1929.18 L1939.81 1909.82 L1935.51 1909.82 L1935.51 1905.27 L1939.81 1905.27 L1939.81 1895.15 L1945.7 1895.15 Z" fill="#000000" fill-rule="nonzero" fill-opacity="1" /><path clip-path="url(#clip960)" d="M1965.46 1905.27 L1971.32 1905.27 L1971.32 1940.92 L1965.46 1940.92 L1965.46 1905.27 M1965.46 1891.4 L1971.32 1891.4 L1971.32 1898.81 L1965.46 1898.81 L1965.46 1891.4 Z" fill="#000000" fill-rule="nonzero" fill-opacity="1" /><path clip-path="url(#clip960)" d="M1997.39 1909.38 Q1992.68 1909.38 1989.94 1913.07 Q1987.2 1916.73 1987.2 1923.13 Q1987.2 1929.53 1989.91 1933.22 Q1992.65 1936.88 1997.39 1936.88 Q2002.07 1936.88 2004.8 1933.19 Q2007.54 1929.49 2007.54 1923.13 Q2007.54 1916.79 2004.8 1913.1 Q2002.07 1909.38 1997.39 1909.38 M1997.39 1904.41 Q2005.03 1904.41 2009.39 1909.38 Q2013.75 1914.34 2013.75 1923.13 Q2013.75 1931.88 2009.39 1936.88 Q2005.03 1941.84 1997.39 1941.84 Q1989.72 1941.84 1985.36 1936.88 Q1981.03 1931.88 1981.03 1923.13 Q1981.03 1914.34 1985.36 1909.38 Q1989.72 1904.41 1997.39 1904.41 Z" fill="#000000" fill-rule="nonzero" fill-opacity="1" /><path clip-path="url(#clip960)" d="M2053.09 1919.4 L2053.09 1940.92 L2047.23 1940.92 L2047.23 1919.6 Q2047.23 1914.53 2045.26 1912.02 Q2043.28 1909.51 2039.34 1909.51 Q2034.6 1909.51 2031.86 1912.53 Q2029.12 1915.55 2029.12 1920.77 L2029.12 1940.92 L2023.23 1940.92 L2023.23 1905.27 L2029.12 1905.27 L2029.12 1910.81 Q2031.22 1907.6 2034.05 1906 Q2036.92 1904.41 2040.64 1904.41 Q2046.79 1904.41 2049.94 1908.23 Q2053.09 1912.02 2053.09 1919.4 Z" fill="#000000" fill-rule="nonzero" fill-opacity="1" /><path clip-path="url(#clip960)" d="M2087.49 1906.32 L2087.49 1911.86 Q2085.01 1910.59 2082.34 1909.95 Q2079.66 1909.31 2076.8 1909.31 Q2072.44 1909.31 2070.24 1910.65 Q2068.08 1911.99 2068.08 1914.66 Q2068.08 1916.7 2069.64 1917.88 Q2071.2 1919.02 2075.91 1920.07 L2077.91 1920.52 Q2084.15 1921.86 2086.76 1924.31 Q2089.4 1926.72 2089.4 1931.09 Q2089.4 1936.05 2085.46 1938.95 Q2081.54 1941.84 2074.67 1941.84 Q2071.8 1941.84 2068.68 1941.27 Q2065.6 1940.73 2062.16 1939.62 L2062.16 1933.57 Q2065.41 1935.26 2068.56 1936.11 Q2071.71 1936.94 2074.79 1936.94 Q2078.93 1936.94 2081.16 1935.54 Q2083.39 1934.11 2083.39 1931.53 Q2083.39 1929.14 2081.77 1927.87 Q2080.17 1926.6 2074.73 1925.42 L2072.69 1924.94 Q2067.25 1923.8 2064.83 1921.44 Q2062.41 1919.05 2062.41 1914.92 Q2062.41 1909.89 2065.98 1907.15 Q2069.54 1904.41 2076.1 1904.41 Q2079.35 1904.41 2082.21 1904.89 Q2085.08 1905.37 2087.49 1906.32 Z" fill="#000000" fill-rule="nonzero" fill-opacity="1" /><polyline clip-path="url(#clip962)" style="stroke:#000000; stroke-linecap:round; stroke-linejoin:round; stroke-width:2; stroke-opacity:0.1; fill:none" points="325.177,1717.97 3552.76,1717.97 "/>
<polyline clip-path="url(#clip962)" style="stroke:#000000; stroke-linecap:round; stroke-linejoin:round; stroke-width:2; stroke-opacity:0.1; fill:none" points="325.177,652.956 3552.76,652.956 "/>
<polyline clip-path="url(#clip960)" style="stroke:#000000; stroke-linecap:round; stroke-linejoin:round; stroke-width:4; stroke-opacity:1; fill:none" points="325.177,1759.63 325.177,113.392 "/>
<polyline clip-path="url(#clip960)" style="stroke:#000000; stroke-linecap:round; stroke-linejoin:round; stroke-width:4; stroke-opacity:1; fill:none" points="325.177,1717.97 344.075,1717.97 "/>
<polyline clip-path="url(#clip960)" style="stroke:#000000; stroke-linecap:round; stroke-linejoin:round; stroke-width:4; stroke-opacity:1; fill:none" points="325.177,652.956 344.075,652.956 "/>
<path clip-path="url(#clip960)" d="M166.223 1737.76 L173.862 1737.76 L173.862 1711.39 L165.552 1713.06 L165.552 1708.8 L173.815 1707.13 L178.491 1707.13 L178.491 1737.76 L186.13 1737.76 L186.13 1741.69 L166.223 1741.69 L166.223 1737.76 Z" fill="#000000" fill-rule="nonzero" fill-opacity="1" /><path clip-path="url(#clip960)" d="M205.575 1710.21 Q201.963 1710.21 200.135 1713.78 Q198.329 1717.32 198.329 1724.45 Q198.329 1731.55 200.135 1735.12 Q201.963 1738.66 205.575 1738.66 Q209.209 1738.66 211.014 1735.12 Q212.843 1731.55 212.843 1724.45 Q212.843 1717.32 211.014 1713.78 Q209.209 1710.21 205.575 1710.21 M205.575 1706.51 Q211.385 1706.51 214.44 1711.11 Q217.519 1715.7 217.519 1724.45 Q217.519 1733.17 214.44 1737.78 Q211.385 1742.36 205.575 1742.36 Q199.764 1742.36 196.686 1737.78 Q193.63 1733.17 193.63 1724.45 Q193.63 1715.7 196.686 1711.11 Q199.764 1706.51 205.575 1706.51 Z" fill="#000000" fill-rule="nonzero" fill-opacity="1" /><path clip-path="url(#clip960)" d="M218.064 1711.09 L224.271 1711.09 L224.271 1689.66 L217.519 1691.02 L217.519 1687.56 L224.233 1686.2 L228.032 1686.2 L228.032 1711.09 L234.239 1711.09 L234.239 1714.28 L218.064 1714.28 L218.064 1711.09 Z" fill="#000000" fill-rule="nonzero" fill-opacity="1" /><path clip-path="url(#clip960)" d="M241.913 1709.51 L245.881 1709.51 L245.881 1714.28 L241.913 1714.28 L241.913 1709.51 Z" fill="#000000" fill-rule="nonzero" fill-opacity="1" /><path clip-path="url(#clip960)" d="M254.194 1686.2 L269.109 1686.2 L269.109 1689.4 L257.674 1689.4 L257.674 1696.28 Q258.501 1696 259.329 1695.87 Q260.156 1695.72 260.984 1695.72 Q265.686 1695.72 268.432 1698.3 Q271.177 1700.87 271.177 1705.27 Q271.177 1709.81 268.356 1712.33 Q265.535 1714.83 260.401 1714.83 Q258.633 1714.83 256.79 1714.53 Q254.965 1714.23 253.009 1713.62 L253.009 1709.81 Q254.702 1710.73 256.507 1711.18 Q258.313 1711.63 260.325 1711.63 Q263.579 1711.63 265.479 1709.92 Q267.378 1708.21 267.378 1705.27 Q267.378 1702.34 265.479 1700.63 Q263.579 1698.92 260.325 1698.92 Q258.802 1698.92 257.279 1699.25 Q255.774 1699.59 254.194 1700.31 L254.194 1686.2 Z" fill="#000000" fill-rule="nonzero" fill-opacity="1" /><path clip-path="url(#clip960)" d="M164.004 672.749 L171.642 672.749 L171.642 646.383 L163.332 648.05 L163.332 643.791 L171.596 642.124 L176.272 642.124 L176.272 672.749 L183.911 672.749 L183.911 676.684 L164.004 676.684 L164.004 672.749 Z" fill="#000000" fill-rule="nonzero" fill-opacity="1" /><path clip-path="url(#clip960)" d="M203.355 645.203 Q199.744 645.203 197.915 648.767 Q196.11 652.309 196.11 659.439 Q196.11 666.545 197.915 670.11 Q199.744 673.652 203.355 673.652 Q206.989 673.652 208.795 670.11 Q210.624 666.545 210.624 659.439 Q210.624 652.309 208.795 648.767 Q206.989 645.203 203.355 645.203 M203.355 641.499 Q209.165 641.499 212.221 646.105 Q215.3 650.689 215.3 659.439 Q215.3 668.165 212.221 672.772 Q209.165 677.355 203.355 677.355 Q197.545 677.355 194.466 672.772 Q191.411 668.165 191.411 659.439 Q191.411 650.689 194.466 646.105 Q197.545 641.499 203.355 641.499 Z" fill="#000000" fill-rule="nonzero" fill-opacity="1" /><path clip-path="url(#clip960)" d="M219.87 646.076 L233.129 646.076 L233.129 649.274 L215.3 649.274 L215.3 646.076 Q217.462 643.838 221.186 640.077 Q224.929 636.296 225.888 635.205 Q227.713 633.155 228.427 631.745 Q229.161 630.315 229.161 628.942 Q229.161 626.704 227.581 625.294 Q226.02 623.883 223.5 623.883 Q221.713 623.883 219.719 624.504 Q217.745 625.124 215.488 626.384 L215.488 622.548 Q217.782 621.626 219.776 621.156 Q221.769 620.686 223.425 620.686 Q227.788 620.686 230.383 622.867 Q232.979 625.049 232.979 628.698 Q232.979 630.428 232.321 631.989 Q231.681 633.531 229.97 635.638 Q229.499 636.183 226.979 638.798 Q224.459 641.393 219.87 646.076 Z" fill="#000000" fill-rule="nonzero" fill-opacity="1" /><path clip-path="url(#clip960)" d="M241.104 644.496 L245.072 644.496 L245.072 649.274 L241.104 649.274 L241.104 644.496 Z" fill="#000000" fill-rule="nonzero" fill-opacity="1" /><path clip-path="url(#clip960)" d="M261.473 623.695 Q258.539 623.695 257.053 626.591 Q255.586 629.469 255.586 635.262 Q255.586 641.036 257.053 643.932 Q258.539 646.81 261.473 646.81 Q264.425 646.81 265.892 643.932 Q267.378 641.036 267.378 635.262 Q267.378 629.469 265.892 626.591 Q264.425 623.695 261.473 623.695 M261.473 620.686 Q266.193 620.686 268.676 624.428 Q271.177 628.152 271.177 635.262 Q271.177 642.352 268.676 646.095 Q266.193 649.819 261.473 649.819 Q256.752 649.819 254.25 646.095 Q251.768 642.352 251.768 635.262 Q251.768 628.152 254.25 624.428 Q256.752 620.686 261.473 620.686 Z" fill="#000000" fill-rule="nonzero" fill-opacity="1" /><path clip-path="url(#clip960)" d="M47.5563 1003.21 L47.5563 996.779 L89.6654 996.779 L89.6654 973.64 L95.0763 973.64 L95.0763 1003.21 L47.5563 1003.21 Z" fill="#000000" fill-rule="nonzero" fill-opacity="1" /><path clip-path="url(#clip960)" d="M63.5342 954.479 Q63.5342 959.19 67.2263 961.927 Q70.8866 964.664 77.2841 964.664 Q83.6817 964.664 87.3738 961.959 Q91.0341 959.222 91.0341 954.479 Q91.0341 949.8 87.3419 947.063 Q83.6498 944.326 77.2841 944.326 Q70.9503 944.326 67.2581 947.063 Q63.5342 949.8 63.5342 954.479 M58.569 954.479 Q58.569 946.84 63.5342 942.48 Q68.4995 938.119 77.2841 938.119 Q86.037 938.119 91.0341 942.48 Q95.9993 946.84 95.9993 954.479 Q95.9993 962.15 91.0341 966.51 Q86.037 970.839 77.2841 970.839 Q68.4995 970.839 63.5342 966.51 Q58.569 962.15 58.569 954.479 Z" fill="#000000" fill-rule="nonzero" fill-opacity="1" /><path clip-path="url(#clip960)" d="M60.4787 905.686 L66.0168 905.686 Q64.7437 908.169 64.1071 910.842 Q63.4706 913.516 63.4706 916.38 Q63.4706 920.741 64.8073 922.937 Q66.1441 925.101 68.8177 925.101 Q70.8548 925.101 72.0324 923.542 Q73.1783 921.982 74.2286 917.272 L74.6742 915.266 Q76.011 909.028 78.4618 906.418 Q80.8808 903.776 85.2413 903.776 Q90.2065 903.776 93.1029 907.723 Q95.9993 911.638 95.9993 918.513 Q95.9993 921.377 95.4264 924.497 Q94.8853 927.584 93.7713 931.021 L87.7239 931.021 Q89.4108 927.775 90.2702 924.624 Q91.0977 921.473 91.0977 918.386 Q91.0977 914.248 89.6973 912.02 Q88.265 909.792 85.6869 909.792 Q83.2997 909.792 82.0266 911.415 Q80.7534 913.007 79.5758 918.449 L79.0984 920.486 Q77.9525 925.929 75.5972 928.348 Q73.2101 930.767 69.0724 930.767 Q64.0435 930.767 61.3062 927.202 Q58.569 923.637 58.569 917.081 Q58.569 913.834 59.0464 910.97 Q59.5238 908.105 60.4787 905.686 Z" fill="#000000" fill-rule="nonzero" fill-opacity="1" /><path clip-path="url(#clip960)" d="M60.4787 871.725 L66.0168 871.725 Q64.7437 874.208 64.1071 876.881 Q63.4706 879.555 63.4706 882.419 Q63.4706 886.78 64.8073 888.976 Q66.1441 891.14 68.8177 891.14 Q70.8548 891.14 72.0324 889.581 Q73.1783 888.021 74.2286 883.311 L74.6742 881.305 Q76.011 875.067 78.4618 872.457 Q80.8808 869.815 85.2413 869.815 Q90.2065 869.815 93.1029 873.762 Q95.9993 877.677 95.9993 884.552 Q95.9993 887.416 95.4264 890.536 Q94.8853 893.623 93.7713 897.06 L87.7239 897.06 Q89.4108 893.814 90.2702 890.663 Q91.0977 887.512 91.0977 884.425 Q91.0977 880.287 89.6973 878.059 Q88.265 875.831 85.6869 875.831 Q83.2997 875.831 82.0266 877.454 Q80.7534 879.046 79.5758 884.488 L79.0984 886.525 Q77.9525 891.968 75.5972 894.387 Q73.2101 896.806 69.0724 896.806 Q64.0435 896.806 61.3062 893.241 Q58.569 889.676 58.569 883.12 Q58.569 879.873 59.0464 877.008 Q59.5238 874.144 60.4787 871.725 Z" fill="#000000" fill-rule="nonzero" fill-opacity="1" /><path clip-path="url(#clip960)" d="M1665.96 12.096 L1674.14 12.096 L1674.14 65.6895 L1703.59 65.6895 L1703.59 72.576 L1665.96 72.576 L1665.96 12.096 Z" fill="#000000" fill-rule="nonzero" fill-opacity="1" /><path clip-path="url(#clip960)" d="M1727.98 32.4315 Q1721.98 32.4315 1718.5 37.1306 Q1715.01 41.7891 1715.01 49.9314 Q1715.01 58.0738 1718.46 62.7728 Q1721.94 67.4314 1727.98 67.4314 Q1733.93 67.4314 1737.41 62.7323 Q1740.9 58.0333 1740.9 49.9314 Q1740.9 41.8701 1737.41 37.1711 Q1733.93 32.4315 1727.98 32.4315 M1727.98 26.1121 Q1737.7 26.1121 1743.25 32.4315 Q1748.8 38.7509 1748.8 49.9314 Q1748.8 61.0714 1743.25 67.4314 Q1737.7 73.7508 1727.98 73.7508 Q1718.21 73.7508 1712.66 67.4314 Q1707.15 61.0714 1707.15 49.9314 Q1707.15 38.7509 1712.66 32.4315 Q1718.21 26.1121 1727.98 26.1121 Z" fill="#000000" fill-rule="nonzero" fill-opacity="1" /><path clip-path="url(#clip960)" d="M1790.08 28.5427 L1790.08 35.5912 Q1786.92 33.9709 1783.51 33.1607 Q1780.11 32.3505 1776.46 32.3505 Q1770.91 32.3505 1768.12 34.0519 Q1765.37 35.7533 1765.37 39.156 Q1765.37 41.7486 1767.35 43.2475 Q1769.34 44.7058 1775.33 46.0426 L1777.88 46.6097 Q1785.82 48.3111 1789.14 51.4303 Q1792.51 54.509 1792.51 60.0587 Q1792.51 66.3781 1787.48 70.0644 Q1782.5 73.7508 1773.75 73.7508 Q1770.1 73.7508 1766.13 73.0216 Q1762.21 72.3329 1757.83 70.9151 L1757.83 63.2184 Q1761.96 65.3654 1765.97 66.4591 Q1769.98 67.5124 1773.91 67.5124 Q1779.18 67.5124 1782.01 65.73 Q1784.85 63.9071 1784.85 60.6258 Q1784.85 57.5877 1782.78 55.9673 Q1780.76 54.3469 1773.83 52.8481 L1771.24 52.2405 Q1764.31 50.7821 1761.23 47.7845 Q1758.15 44.7463 1758.15 39.4801 Q1758.15 33.0797 1762.69 29.5959 Q1767.23 26.1121 1775.57 26.1121 Q1779.71 26.1121 1783.35 26.7198 Q1787 27.3274 1790.08 28.5427 Z" fill="#000000" fill-rule="nonzero" fill-opacity="1" /><path clip-path="url(#clip960)" d="M1833.3 28.5427 L1833.3 35.5912 Q1830.14 33.9709 1826.74 33.1607 Q1823.33 32.3505 1819.69 32.3505 Q1814.14 32.3505 1811.34 34.0519 Q1808.59 35.7533 1808.59 39.156 Q1808.59 41.7486 1810.57 43.2475 Q1812.56 44.7058 1818.55 46.0426 L1821.11 46.6097 Q1829.05 48.3111 1832.37 51.4303 Q1835.73 54.509 1835.73 60.0587 Q1835.73 66.3781 1830.71 70.0644 Q1825.72 73.7508 1816.97 73.7508 Q1813.33 73.7508 1809.36 73.0216 Q1805.43 72.3329 1801.05 70.9151 L1801.05 63.2184 Q1805.19 65.3654 1809.2 66.4591 Q1813.21 67.5124 1817.14 67.5124 Q1822.4 67.5124 1825.24 65.73 Q1828.07 63.9071 1828.07 60.6258 Q1828.07 57.5877 1826.01 55.9673 Q1823.98 54.3469 1817.05 52.8481 L1814.46 52.2405 Q1807.54 50.7821 1804.46 47.7845 Q1801.38 44.7463 1801.38 39.4801 Q1801.38 33.0797 1805.91 29.5959 Q1810.45 26.1121 1818.8 26.1121 Q1822.93 26.1121 1826.57 26.7198 Q1830.22 27.3274 1833.3 28.5427 Z" fill="#000000" fill-rule="nonzero" fill-opacity="1" /><path clip-path="url(#clip960)" d="M1874.29 12.096 L1909.05 12.096 L1909.05 18.9825 L1882.48 18.9825 L1882.48 36.8065 L1906.46 36.8065 L1906.46 43.6931 L1882.48 43.6931 L1882.48 72.576 L1874.29 72.576 L1874.29 12.096 Z" fill="#000000" fill-rule="nonzero" fill-opacity="1" /><path clip-path="url(#clip960)" d="M1916.38 54.671 L1916.38 27.2059 L1923.84 27.2059 L1923.84 54.3874 Q1923.84 60.8284 1926.35 64.0691 Q1928.86 67.2693 1933.88 67.2693 Q1939.92 67.2693 1943.4 63.421 Q1946.93 59.5726 1946.93 52.9291 L1946.93 27.2059 L1954.38 27.2059 L1954.38 72.576 L1946.93 72.576 L1946.93 65.6084 Q1944.21 69.7404 1940.61 71.7658 Q1937.04 73.7508 1932.3 73.7508 Q1924.48 73.7508 1920.43 68.8897 Q1916.38 64.0286 1916.38 54.671 M1935.14 26.1121 L1935.14 26.1121 Z" fill="#000000" fill-rule="nonzero" fill-opacity="1" /><path clip-path="url(#clip960)" d="M2007.45 45.1919 L2007.45 72.576 L1999.99 72.576 L1999.99 45.4349 Q1999.99 38.994 1997.48 35.7938 Q1994.97 32.5936 1989.95 32.5936 Q1983.91 32.5936 1980.43 36.4419 Q1976.94 40.2903 1976.94 46.9338 L1976.94 72.576 L1969.45 72.576 L1969.45 27.2059 L1976.94 27.2059 L1976.94 34.2544 Q1979.62 30.163 1983.22 28.1376 Q1986.87 26.1121 1991.61 26.1121 Q1999.43 26.1121 2003.44 30.9732 Q2007.45 35.7938 2007.45 45.1919 Z" fill="#000000" fill-rule="nonzero" fill-opacity="1" /><path clip-path="url(#clip960)" d="M2054.96 28.9478 L2054.96 35.9153 Q2051.8 34.1734 2048.6 33.3227 Q2045.44 32.4315 2042.2 32.4315 Q2034.95 32.4315 2030.94 37.0496 Q2026.93 41.6271 2026.93 49.9314 Q2026.93 58.2358 2030.94 62.8538 Q2034.95 67.4314 2042.2 67.4314 Q2045.44 67.4314 2048.6 66.5807 Q2051.8 65.6895 2054.96 63.9476 L2054.96 70.8341 Q2051.85 72.2924 2048.48 73.0216 Q2045.16 73.7508 2041.39 73.7508 Q2031.15 73.7508 2025.11 67.3098 Q2019.07 60.8689 2019.07 49.9314 Q2019.07 38.832 2025.15 32.472 Q2031.27 26.1121 2041.88 26.1121 Q2045.32 26.1121 2048.6 26.8413 Q2051.89 27.5299 2054.96 28.9478 Z" fill="#000000" fill-rule="nonzero" fill-opacity="1" /><path clip-path="url(#clip960)" d="M2075.3 14.324 L2075.3 27.2059 L2090.65 27.2059 L2090.65 32.9987 L2075.3 32.9987 L2075.3 57.6282 Q2075.3 63.1779 2076.8 64.7578 Q2078.34 66.3376 2083 66.3376 L2090.65 66.3376 L2090.65 72.576 L2083 72.576 Q2074.37 72.576 2071.09 69.3758 Q2067.81 66.1351 2067.81 57.6282 L2067.81 32.9987 L2062.34 32.9987 L2062.34 27.2059 L2067.81 27.2059 L2067.81 14.324 L2075.3 14.324 Z" fill="#000000" fill-rule="nonzero" fill-opacity="1" /><path clip-path="url(#clip960)" d="M2100.46 27.2059 L2107.91 27.2059 L2107.91 72.576 L2100.46 72.576 L2100.46 27.2059 M2100.46 9.54393 L2107.91 9.54393 L2107.91 18.9825 L2100.46 18.9825 L2100.46 9.54393 Z" fill="#000000" fill-rule="nonzero" fill-opacity="1" /><path clip-path="url(#clip960)" d="M2141.09 32.4315 Q2135.09 32.4315 2131.61 37.1306 Q2128.12 41.7891 2128.12 49.9314 Q2128.12 58.0738 2131.57 62.7728 Q2135.05 67.4314 2141.09 67.4314 Q2147.04 67.4314 2150.53 62.7323 Q2154.01 58.0333 2154.01 49.9314 Q2154.01 41.8701 2150.53 37.1711 Q2147.04 32.4315 2141.09 32.4315 M2141.09 26.1121 Q2150.81 26.1121 2156.36 32.4315 Q2161.91 38.7509 2161.91 49.9314 Q2161.91 61.0714 2156.36 67.4314 Q2150.81 73.7508 2141.09 73.7508 Q2131.32 73.7508 2125.77 67.4314 Q2120.26 61.0714 2120.26 49.9314 Q2120.26 38.7509 2125.77 32.4315 Q2131.32 26.1121 2141.09 26.1121 Z" fill="#000000" fill-rule="nonzero" fill-opacity="1" /><path clip-path="url(#clip960)" d="M2211.98 45.1919 L2211.98 72.576 L2204.52 72.576 L2204.52 45.4349 Q2204.52 38.994 2202.01 35.7938 Q2199.5 32.5936 2194.48 32.5936 Q2188.44 32.5936 2184.96 36.4419 Q2181.47 40.2903 2181.47 46.9338 L2181.47 72.576 L2173.98 72.576 L2173.98 27.2059 L2181.47 27.2059 L2181.47 34.2544 Q2184.15 30.163 2187.75 28.1376 Q2191.4 26.1121 2196.14 26.1121 Q2203.96 26.1121 2207.97 30.9732 Q2211.98 35.7938 2211.98 45.1919 Z" fill="#000000" fill-rule="nonzero" fill-opacity="1" /><polyline clip-path="url(#clip962)" style="stroke:#ff0000; stroke-linecap:round; stroke-linejoin:round; stroke-width:4; stroke-opacity:1; fill:none" points="416.524,208.937 755.164,578.525 953.255,310.789 1093.8,550.664 1202.82,728.842 1291.89,737.451 1367.21,724.354 1432.44,760.586 1489.99,837.496 1541.46,931.873 1588.02,993.572 1630.53,922.251 1669.64,886.921 1705.85,956.182 1739.55,1016.53 1771.08,1024.87 1800.7,1018.83 1828.63,1021.11 1855.04,1043.15 1880.1,1074.03 1903.94,1074.64 1926.66,1053.37 1948.38,1053.18 1969.17,1079.37 1989.12,1101.28 2008.28,1111.07 2026.72,1107.18 2044.48,1108.11 2061.63,1115.19 2078.19,1117.59 2094.21,1115.78 2109.72,1111.9 2124.76,1109.82 2139.34,1109.74 2153.5,1110.6 2167.27,1113.3 2180.65,1119.44 2193.68,1124.28 2206.37,1122.51 2218.74,1121.04 2230.8,1126.28 2242.58,1132.22 2254.07,1131.37 2265.3,1131.6 2276.28,1135.64 2287.02,1139.89 2297.53,1136.53 2307.81,1133.11 2317.89,1135.02 2327.76,1137.3 2337.43,1135.32 2346.92,1134.45 2356.22,1137.62 2365.36,1139.32 2374.32,1138.59 2383.12,1139.95 2391.77,1141.46 2400.27,1140.62 2408.62,1140.22 2416.83,1141.17 2424.91,1140.71 2432.85,1140.16 2440.67,1141.35 2448.36,1141.61 2455.94,1141.2 2463.4,1141.65 2470.74,1142.22 2477.98,1141.93 2485.11,1141.81 2492.14,1142.23 2499.07,1142.06 2505.9,1141.79 2512.64,1142.01 2519.29,1142.12 2525.85,1142.02 2532.32,1142.21 2538.71,1142.41 2545.01,1142.3 2551.23,1142.33 2557.38,1142.42 2563.45,1142.27 2569.44,1142.22 2575.36,1142.34 2581.22,1142.32 2587,1142.34 2592.71,1142.49 2598.36,1142.5 2603.94,1142.43 2609.46,1142.47 2614.92,1142.47 2620.32,1142.42 2625.66,1142.48 2630.94,1142.51 2636.17,1142.47 2641.34,1142.5 2646.45,1142.53 2651.52,1142.51 2656.53,1142.54 2661.49,1142.56 2666.4,1142.54 2671.26,1142.54 2676.07,1142.55 2680.84,1142.54 2685.56,1142.54 2690.23,1142.56 2694.86,1142.56 2699.45,1142.56 2704,1142.57 2708.5,1142.57 2712.96,1142.56 2717.38,1142.57 2721.76,1142.57 2726.11,1142.57 2730.41,1142.57 2734.68,1142.57 2738.91,1142.58 2743.1,1142.58 2747.26,1142.58 2751.38,1142.58 2755.47,1142.58 2759.53,1142.58 2763.55,1142.58 2767.53,1142.59 2771.49,1142.58 2775.41,1142.59 2779.31,1142.59 2783.17,1142.59 2787,1142.59 2790.8,1142.59 2794.58,1142.59 2798.32,1142.59 2802.03,1142.59 2805.72,1142.59 2809.38,1142.6 2813.01,1142.6 2816.62,1142.6 2820.2,1142.6 2823.75,1142.6 2827.28,1142.6 2830.78,1142.6 2834.26,1142.6 2837.71,1142.6 2841.14,1142.6 2844.54,1142.6 2847.93,1142.6 2851.28,1142.61 2854.62,1142.61 2857.93,1142.61 2861.22,1142.61 2864.49,1142.61 2867.73,1142.61 2870.96,1142.61 2874.16,1142.61 2877.35,1134.45 2880.51,940.464 2883.65,1111.81 2886.77,1085.88 2889.87,1039.61 2892.96,1044.49 2896.02,1093.14 2899.06,1128.97 2902.09,1118.04 2905.09,1097.24 2908.08,1111.24 2911.05,1146 2914,1150.27 2916.94,1146.94 2919.86,1159.14 2922.75,1184.67 2925.64,1217.65 2928.5,1262.41 2931.35,1261 2934.18,1277.75 2937,1310.82 2939.8,1321.96 2942.58,1383.13 2945.35,1285.69 2948.1,1168.38 2950.84,1298.22 2953.56,1319.41 2956.27,1298.94 2958.96,1372.82 2961.64,1380.89 2964.3,1376.37 2966.95,1435.93 2969.58,1402.08 2972.2,1442.91 2974.81,1424.94 2977.4,1448.49 2979.98,1448.86 2982.54,1476.64 2985.09,1504.26 2987.63,1505.97 2990.16,1497.95 2992.67,1512.4 2995.17,1527.03 2997.65,1527.38 3000.13,1521.65 3002.59,1525.56 3005.04,1531.87 3007.47,1540.64 3009.9,1546.89 3012.31,1552.08 3014.71,1554.32 3017.1,1562.17 3019.48,1567.09 3021.84,1560.44 3024.2,1573.25 3026.54,1575.63 3028.87,1567.93 3031.19,1589.33 3033.5,1582.52 3035.8,1579.49 3038.09,1587.94 3040.37,1592.73 3042.64,1608.26 3044.89,1605.86 3047.14,1615 3049.37,1618.48 3051.6,1622.59 3053.82,1612.01 3056.02,1547.09 3058.22,1554.39 3060.4,1538.61 3062.58,1556.5 3064.75,1546.3 3066.9,1589.71 3069.05,1598.51 3071.19,1598.75 3073.32,1586.4 3075.44,1500.43 3077.55,1399.59 3079.65,1380.84 3081.74,1345.13 3083.82,1385.89 3085.9,1422.98 3087.96,1412.56 3090.02,1404.05 3092.07,1413.52 3094.11,1410.7 3096.14,1441.77 3098.16,1478.68 3100.18,1473.09 3102.19,1466.82 3104.18,1470.39 3106.17,1461.64 3108.16,1489.47 3110.13,1500.86 3112.1,1505.61 3114.05,1493.52 3116,1494.39 3117.95,1512.26 3119.88,1524.43 3121.81,1531.22 3123.73,1534.99 3125.64,1533.06 3127.55,1542.26 3129.44,1545.77 3131.33,1559.83 3133.22,1562.22 3135.09,1561.25 3136.96,1553.59 3138.82,1568.76 3140.67,1558.86 3142.52,1576.37 3144.36,1570.23 3146.19,1578.83 3148.02,1575.66 3149.84,1588.82 3151.65,1587.38 3153.46,1583.7 3155.26,1597.9 3157.05,1597.81 3158.84,1596.95 3160.62,1605.27 3162.39,1611.4 3164.16,1609.05 3165.92,1618.45 3167.67,1621.69 3169.42,1620.87 3171.16,1627.24 3172.9,1625.85 3174.63,1619.35 3176.35,1611.15 3178.07,1608.44 3179.78,1625.22 3181.48,1599.65 3183.18,1625.61 3184.88,1637.24 3186.57,1644.27 3188.25,1677 3189.92,1114.03 3191.59,1270.05 3193.26,1238.78 3194.92,1343.56 3196.57,1245.51 3198.22,1349.28 3199.86,1480.66 3201.5,1419.77 3203.13,1387.07 3204.75,1410.94 3206.37,1398.35 3207.99,1418.69 3209.6,1496.77 3211.2,1487.55 3212.8,1466.48 3214.4,1472.48 3215.99,1455.88 3217.57,1455.94 3219.15,1506.34 3220.72,1513.85 3222.29,1523.44 3223.85,1528.47 3225.41,1498.9 3226.96,1514.37 3228.51,1531.18 3230.06,1528.06 3231.6,1542.3 3233.13,1542.21 3234.66,1532.29 3236.18,1542.08 3237.7,1539.1 3239.22,1543.52 3240.73,1551.13 3242.23,1552.67 3243.73,1549.47 3245.23,1562.09 3246.72,1552.14 3248.21,1563.06 3249.69,1555.98 3251.17,1563.58 3252.64,1564.79 3254.11,1570.65 3255.58,1569.88 3257.04,1568.85 3258.5,1575.12 3259.95,1569.84 3261.39,1575.36 3262.84,1574.78 3264.28,1579.33 3265.71,1579.82 3267.14,1582.68 3268.57,1583.92 3269.99,1586.74 3271.41,1589.06 3272.82,1591.37 3274.23,1596.96 3275.64,1594.62 3277.04,1601.51 3278.44,1602.5 3279.83,1603.24 3281.22,1613.86 3282.61,1609.73 3283.99,1619.04 3285.37,1623.66 3286.74,1619.57 3288.11,1628.73 3289.48,1636.19 3290.84,1637.21 3292.2,1630.25 3293.56,1625.36 3294.91,1643.95 3296.26,1642.83 3297.6,1633.93 3298.94,1650.88 3300.28,1639.82 3301.61,1631.58 3302.94,1654.53 3304.27,1621.78 3305.59,1643.24 3306.91,1650.26 3308.22,1632.4 3309.53,1660.99 3310.84,1652.38 3312.15,1663.69 3313.45,1670.28 3314.74,1667.05 3316.04,1675.42 3317.33,1670.67 3318.62,1658.22 3319.9,1678.04 3321.18,1672 3322.46,1653.88 3323.73,1680.57 3325,1654.51 3326.27,1654.38 3327.53,1670.9 3328.8,1653.94 3330.05,1678.32 3331.31,1682.83 3332.56,1665.39 3333.81,1688 3335.05,1698.23 3336.29,1674.85 3337.53,1664.21 3338.77,1697.79 3340,1678.6 3341.23,1660.23 3342.45,1680.51 3343.68,1687.75 3344.9,1678.69 3346.11,1690.19 3347.33,1713.04 3348.54,1709.18 3349.75,1709.68 3350.95,1710.9 3352.15,1487.55 3353.35,1494.95 3354.55,1501.11 3355.74,1505.44 3356.93,1509.02 3358.12,1512.12 3359.3,1514.6 3360.48,1516.82 3361.66,1518.93 3362.84,1520.96 3364.01,1522.89 3365.18,1524.84 3366.35,1526.77 3367.51,1528.69 3368.67,1530.54 3369.83,1532.28 3370.99,1533.89 3372.14,1535.19 3373.29,1536.25 3374.44,1537.07 3375.59,1537.69 3376.73,1538.1 3377.87,1538.38 3379.01,1538.65 3380.14,1539 3381.28,1539.48 3382.41,1540.03 3383.53,1540.62 3384.66,1541.16 3385.78,1541.66 3386.9,1542.13 3388.01,1542.6 3389.13,1543.1 3390.24,1543.64 3391.35,1544.25 3392.46,1544.91 3393.56,1545.57 3394.66,1546.18 3395.76,1546.73 3396.86,1547.2 3397.95,1547.65 3399.04,1548.08 3400.13,1548.52 3401.22,1548.95 3402.3,1549.41 3403.39,1549.87 3404.47,1550.35 3405.54,1550.83 3406.62,1551.31 3407.69,1551.8 3408.76,1552.31 3409.83,1552.83 3410.89,1553.35 3411.96,1553.87 3413.02,1554.37 3414.08,1554.86 3415.13,1555.36 3416.19,1555.85 3417.24,1556.37 3418.29,1556.89 3419.34,1557.43 3420.38,1557.97 3421.42,1558.52 3422.46,1559.08 3423.5,1559.65 3424.54,1560.24 3425.57,1560.83 3426.6,1561.43 3427.63,1562.04 3428.66,1562.66 3429.69,1563.28 3430.71,1563.91 3431.73,1564.56 3432.75,1565.22 3433.77,1565.9 3434.78,1566.59 3435.79,1567.3 3436.8,1568.03 3437.81,1568.78 3438.82,1569.55 3439.82,1570.35 3440.83,1571.17 3441.83,1572.03 3442.82,1572.92 3443.82,1573.84 3444.81,1574.81 3445.81,1575.82 3446.8,1576.88 3447.78,1578 3448.77,1579.17 3449.75,1580.42 3450.74,1581.75 3451.72,1583.2 3452.69,1584.76 3453.67,1586.26 3454.64,1587.63 3455.62,1588.95 3456.59,1590.34 3457.55,1591.98 3458.52,1593.74 3459.49,1487.55 3460.45,1487.55 3461.41,1511.63 "/>
<polyline clip-path="url(#clip962)" style="stroke:#0000ff; stroke-linecap:round; stroke-linejoin:round; stroke-width:4; stroke-opacity:1; fill:none" points="416.524,159.984 755.164,476.601 953.255,255.623 1093.8,489.266 1202.82,654.25 1291.89,678.893 1367.21,686.605 1432.44,721.557 1489.99,784.505 1541.46,851.015 1588.02,880.093 1630.53,831.665 1669.64,821.329 1705.85,882.263 1739.55,919.385 1771.08,911.636 1800.7,898.307 1828.63,902.387 1855.04,921.86 1880.1,942.739 1903.94,938.989 1926.66,917.978 1948.38,915.001 1969.17,938.967 1989.12,963.218 2008.28,970.871 2026.72,964.184 2044.48,959.947 2061.63,961.511 2078.19,963.587 2094.21,957.477 2109.72,947.441 2124.76,942.124 2139.34,945.706 2153.5,952.055 2167.27,957.953 2180.65,961.356 2193.68,961.225 2206.37,959.4 2218.74,957.664 2230.8,960.432 2242.58,967.755 2254.07,972.968 2265.3,975.243 2276.28,976.408 2287.02,974.489 2297.53,971.257 2307.81,970.167 2317.89,972.618 2327.76,975.417 2337.43,977.094 2346.92,977.703 2356.22,977.543 2365.36,975.63 2374.32,973.812 2383.12,974.067 2391.77,975.296 2400.27,975.724 2408.62,975.026 2416.83,973.063 2424.91,970.245 2432.85,969.804 2440.67,972.536 2448.36,975.358 2455.94,976.766 2463.4,976.863 2470.74,975.89 2477.98,974.505 2485.11,974.197 2492.14,975.335 2499.07,976.591 2505.9,977.231 2512.64,977.184 2519.29,976.648 2525.85,976.176 2532.32,976.445 2538.71,977.142 2545.01,977.549 2551.23,977.159 2557.38,976.125 2563.45,975.038 2569.44,974.684 2575.36,975.15 2581.22,975.766 2587,976.13 2592.71,976.067 2598.36,975.795 2603.94,975.785 2609.46,976.241 2614.92,976.779 2620.32,977.005 2625.66,976.654 2630.94,976.09 2636.17,975.694 2641.34,975.759 2646.45,976.144 2651.52,976.353 2656.53,976.26 2661.49,975.945 2666.4,975.7 2671.26,975.746 2676.07,976.049 2680.84,976.363 2685.56,976.392 2690.23,976.154 2694.86,975.891 2699.45,975.812 2704,975.994 2708.5,976.265 2712.96,976.372 2717.38,976.229 2721.76,976.096 2726.11,976.115 2730.41,976.237 2734.68,976.317 2738.91,976.273 2743.1,976.125 2747.26,976.006 2751.38,976.002 2755.47,976.032 2759.53,976.051 2763.55,976.07 2767.53,976.057 2771.49,976.028 2775.41,976.069 2779.31,976.143 2783.17,976.179 2787,976.155 2790.8,976.084 2794.58,976.089 2798.32,976.209 2802.03,976.331 2805.72,976.289 2809.38,976.145 2813.01,975.994 2816.62,976.012 2820.2,976.078 2823.75,976.156 2827.28,976.126 2830.78,976.073 2834.26,976.077 2837.71,976.23 2841.14,976.297 2844.54,976.278 2847.93,976.241 2851.28,976.215 2854.62,976.192 2857.93,976.135 2861.22,976.07 2864.49,976.082 2867.73,976.141 2870.96,976.226 2874.16,976.252 2877.35,977.703 2880.51,825.932 2883.65,943.374 2886.77,953.285 2889.87,922.611 2892.96,924.052 2896.02,952.169 2899.06,972.247 2902.09,963.704 2905.09,943.746 2908.08,938.744 2911.05,941.355 2914,940.212 2916.94,936.88 2919.86,947.322 2922.75,974.259 2925.64,980.188 2928.5,948.943 2931.35,843.773 2934.18,977.293 2937,1007.26 2939.8,1012.24 2942.58,1022.14 2945.35,920.025 2948.1,968.779 2950.84,1091.33 2953.56,1051.63 2956.27,1029.96 2958.96,1062.31 2961.64,1088.69 2964.3,1115.45 2966.95,1130.57 2969.58,1104.14 2972.2,1140.69 2974.81,1163.26 2977.4,1156.03 2979.98,1127.91 2982.54,1134.39 2985.09,1168.27 2987.63,1169.81 2990.16,1152.21 2992.67,1164.19 2995.17,1185.42 2997.65,1177.44 3000.13,1172.63 3002.59,1180.77 3005.04,1193.81 3007.47,1199.97 3009.9,1200.17 3012.31,1195.65 3014.71,1187.86 3017.1,1188.39 3019.48,1197.42 3021.84,1192.54 3024.2,1203.22 3026.54,1200.09 3028.87,1183.66 3031.19,1192.01 3033.5,1194.25 3035.8,1185.52 3038.09,1186.7 3040.37,1190.16 3042.64,1194.65 3044.89,1196.72 3047.14,1200.72 3049.37,1202.09 3051.6,1203.5 3053.82,1203.23 3056.02,1182.99 3058.22,1197.67 3060.4,1204.62 3062.58,1198.84 3064.75,1180.35 3066.9,1195.44 3069.05,1188.74 3071.19,1182.72 3073.32,1183.48 3075.44,1179.58 3077.55,1156.07 3079.65,1127.11 3081.74,1111.44 3083.82,1131.1 3085.9,1166.31 3087.96,1176.92 3090.02,1173.71 3092.07,1164.34 3094.11,1143.49 3096.14,1155.39 3098.16,1186.45 3100.18,1193.57 3102.19,1190.24 3104.18,1173.71 3106.17,1155.3 3108.16,1165.81 3110.13,1173.73 3112.1,1161.08 3114.05,1139.2 3116,1133.77 3117.95,1148.24 3119.88,1161.93 3121.81,1163.96 3123.73,1154.96 3125.64,1141.51 3127.55,1144.14 3129.44,1139.09 3131.33,1112.88 3133.22,1067.25 3135.09,1047.48 3136.96,1072.63 3138.82,1067.21 3140.67,1045.42 3142.52,1087.87 3144.36,1111.41 3146.19,1103.66 3148.02,1077.91 3149.84,1094.86 3151.65,1082.35 3153.46,1058.01 3155.26,1103.37 3157.05,1120.54 3158.84,1116.92 3160.62,1103.77 3162.39,1090.11 3164.16,1070.9 3165.92,1086.62 3167.67,1096.48 3169.42,1109.02 3171.16,1097.27 3172.9,1075.36 3174.63,1101.45 3176.35,1056.99 3178.07,1129.39 3179.78,1126.4 3181.48,1070.54 3183.18,1128.03 3184.88,1100.47 3186.57,1119.17 3188.25,1113.84 3189.92,649.494 3191.59,1102.11 3193.26,1077.74 3194.92,1111.01 3196.57,1075.17 3198.22,1130.08 3199.86,1198.07 3201.5,1174.1 3203.13,1146.99 3204.75,1129.57 3206.37,1109.68 3207.99,1131.25 3209.6,1189.82 3211.2,1207.43 3212.8,1196.02 3214.4,1182.99 3215.99,1156.98 3217.57,1152.06 3219.15,1177.71 3220.72,1196.19 3222.29,1196.63 3223.85,1174.29 3225.41,1145.59 3226.96,1151.93 3228.51,1172.68 3230.06,1182.85 3231.6,1178.7 3233.13,1162.99 3234.66,1153.26 3236.18,1168.94 3237.7,1172.31 3239.22,1158.51 3240.73,1166.85 3242.23,1183.48 3243.73,1185.19 3245.23,1173.13 3246.72,1156.86 3248.21,1166.12 3249.69,1172.99 3251.17,1171.94 3252.64,1161.57 3254.11,1168.15 3255.58,1178.9 3257.04,1178.73 3258.5,1170.97 3259.95,1162.74 3261.39,1176.78 3262.84,1178.28 3264.28,1166.47 3265.71,1163.46 3267.14,1172.22 3268.57,1170.82 3269.99,1162.14 3271.41,1161.46 3272.82,1166.96 3274.23,1165.5 3275.64,1157.83 3277.04,1166.41 3278.44,1166.49 3279.83,1155.59 3281.22,1156.5 3282.61,1154.93 3283.99,1144.13 3285.37,1139.17 3286.74,1136.38 3288.11,1124.87 3289.48,1122.63 3290.84,1118.69 3292.2,1108.18 3293.56,1113.8 3294.91,1106.17 3296.26,1102.67 3297.6,1108.94 3298.94,1103.06 3300.28,1096.91 3301.61,1107.03 3302.94,1101.37 3304.27,1084.04 3305.59,1102.51 3306.91,1104.25 3308.22,1091.63 3309.53,1101.26 3310.84,1102.06 3312.15,1096.59 3313.45,1096.08 3314.74,1090.85 3316.04,1080.39 3317.33,1075.63 3318.62,1068.22 3319.9,1061.11 3321.18,1065.63 3322.46,1059.73 3323.73,1051.71 3325,1057.95 3326.27,1066.77 3327.53,1051.41 3328.8,1045.44 3330.05,1067.24 3331.31,1057.17 3332.56,1023.57 3333.81,1047.88 3335.05,1037.92 3336.29,1006.43 3337.53,1047.46 3338.77,1022.92 3340,988.047 3341.23,1044.2 3342.45,1012.75 3343.68,953.997 3344.9,1035.7 3346.11,1008.44 3347.33,999.21 3348.54,990.946 3349.75,996.399 3350.95,1040.58 3352.15,1207.43 3353.35,1206.3 3354.55,1204.61 3355.74,1202.76 3356.93,1201.05 3358.12,1199.3 3359.3,1197.82 3360.48,1196.62 3361.66,1195.66 3362.84,1194.95 3364.01,1194.49 3365.18,1194.2 3366.35,1193.96 3367.51,1193.79 3368.67,1193.61 3369.83,1193.41 3370.99,1193.2 3372.14,1192.94 3373.29,1192.57 3374.44,1192.13 3375.59,1191.62 3376.73,1191.06 3377.87,1190.47 3379.01,1189.86 3380.14,1189.24 3381.28,1188.61 3382.41,1188 3383.53,1187.44 3384.66,1186.97 3385.78,1186.62 3386.9,1186.41 3388.01,1186.37 3389.13,1186.53 3390.24,1186.89 3391.35,1187.44 3392.46,1188.13 3393.56,1188.92 3394.66,1189.75 3395.76,1190.55 3396.86,1191.25 3397.95,1191.84 3399.04,1192.3 3400.13,1192.63 3401.22,1192.8 3402.3,1192.83 3403.39,1192.73 3404.47,1192.52 3405.54,1192.22 3406.62,1191.87 3407.69,1191.51 3408.76,1191.16 3409.83,1190.83 3410.89,1190.54 3411.96,1190.29 3413.02,1190.04 3414.08,1189.78 3415.13,1189.5 3416.19,1189.2 3417.24,1188.88 3418.29,1188.54 3419.34,1188.21 3420.38,1187.9 3421.42,1187.63 3422.46,1187.42 3423.5,1187.27 3424.54,1187.18 3425.57,1187.15 3426.6,1187.16 3427.63,1187.2 3428.66,1187.24 3429.69,1187.27 3430.71,1187.26 3431.73,1187.2 3432.75,1187.09 3433.77,1186.94 3434.78,1186.77 3435.79,1186.61 3436.8,1186.45 3437.81,1186.32 3438.82,1186.23 3439.82,1186.18 3440.83,1186.16 3441.83,1186.16 3442.82,1186.15 3443.82,1186.13 3444.81,1186.1 3445.81,1186.07 3446.8,1186.05 3447.78,1186.05 3448.77,1186.09 3449.75,1186.19 3450.74,1186.39 3451.72,1186.69 3452.69,1187.13 3453.67,1187.7 3454.64,1188.24 3455.62,1188.69 3456.59,1188.99 3457.55,1189.1 3458.52,1189.08 3459.49,1207.43 3460.45,1207.43 3461.41,1200.93 "/>
<polyline clip-path="url(#clip962)" style="stroke:#808080; stroke-linecap:round; stroke-linejoin:round; stroke-width:4; stroke-opacity:1; fill:none" points="3211.2,3405.87 3211.2,-1532.85 "/>
<polyline clip-path="url(#clip962)" style="stroke:#000000; stroke-linecap:round; stroke-linejoin:round; stroke-width:4; stroke-opacity:1; fill:none" points="416.524,275.28 755.164,523.161 953.255,323.646 1093.8,580.771 1202.82,742.332 1291.89,784.947 1367.21,786.618 1432.44,830.297 1489.99,913.166 1541.46,999.361 1588.02,1014.34 1630.53,900.306 1669.64,868.191 1705.85,966.042 1739.55,1068.41 1771.08,1097.98 1800.7,1096.85 1828.63,1092.18 1855.04,1096.5 1880.1,1098.63 1903.94,1083.04 1926.66,1052.47 1948.38,1045.54 1969.17,1076.84 1989.12,1115.89 2008.28,1143.99 2026.72,1160.71 2044.48,1171.95 2061.63,1176.42 2078.19,1167.53 2094.21,1151.79 2109.72,1133.46 2124.76,1129.03 2139.34,1138.08 2153.5,1150.6 2167.27,1159.5 2180.65,1163.52 2193.68,1162.06 2206.37,1148.54 2218.74,1136.26 2230.8,1137.91 2242.58,1147 2254.07,1152.12 2265.3,1155.28 2276.28,1157.11 2287.02,1155.55 2297.53,1147.89 2307.81,1143.94 2317.89,1150.33 2327.76,1159.23 2337.43,1162.43 2346.92,1162.27 2356.22,1160.65 2365.36,1155.92 2374.32,1151.85 2383.12,1154.28 2391.77,1159.63 2400.27,1161.65 2408.62,1160.17 2416.83,1156.39 2424.91,1151.47 2432.85,1151.52 2440.67,1158.43 2448.36,1165.63 2455.94,1168.71 2463.4,1167.4 2470.74,1162.72 2477.98,1157.12 2485.11,1154.97 2492.14,1157 2499.07,1159.62 2505.9,1160.85 2512.64,1160.24 2519.29,1158.4 2525.85,1156.95 2532.32,1157.92 2538.71,1160.41 2545.01,1162.49 2551.23,1162.76 2557.38,1161.26 2563.45,1159.28 2569.44,1158.77 2575.36,1159.9 2581.22,1161.04 2587,1161.28 2592.71,1160.61 2598.36,1159.35 2603.94,1158.78 2609.46,1159.58 2614.92,1160.68 2620.32,1161.19 2625.66,1160.47 2630.94,1159.36 2636.17,1158.72 2641.34,1159.19 2646.45,1160.44 2651.52,1161.1 2656.53,1160.83 2661.49,1159.92 2666.4,1159.26 2671.26,1159.37 2676.07,1160.13 2680.84,1160.9 2685.56,1160.88 2690.23,1160.1 2694.86,1159.36 2699.45,1159.18 2704,1159.7 2708.5,1160.5 2712.96,1160.78 2717.38,1160.29 2721.76,1159.7 2726.11,1159.57 2730.41,1159.82 2734.68,1160.15 2738.91,1160.23 2743.1,1160.09 2747.26,1159.9 2751.38,1159.88 2755.47,1159.91 2759.53,1159.98 2763.55,1160.11 2767.53,1160.17 2771.49,1160.08 2775.41,1160.06 2779.31,1160.04 2783.17,1160.01 2787,1159.91 2790.8,1159.78 2794.58,1159.89 2798.32,1160.26 2802.03,1160.53 2805.72,1160.39 2809.38,1160.02 2813.01,1159.64 2816.62,1159.8 2820.2,1160.04 2823.75,1160.25 2827.28,1160.15 2830.78,1159.86 2834.26,1159.72 2837.71,1160.05 2841.14,1160.27 2844.54,1160.35 2847.93,1160.33 2851.28,1160.21 2854.62,1160.03 2857.93,1159.87 2861.22,1159.78 2864.49,1159.85 2867.73,1160.01 2870.96,1160.19 2874.16,1160.16 2877.35,1162.27 2880.51,899.428 2883.65,1117.04 2886.77,1159.38 2889.87,1146 2892.96,1155.45 2896.02,1182.18 2899.06,1180.39 2902.09,1125.48 2905.09,1083.45 2908.08,1094.1 2911.05,1134.88 2914,1169.5 2916.94,1177.31 2919.86,1192.02 2922.75,1209.83 2925.64,1207.77 2928.5,1249.15 2931.35,1218.7 2934.18,1237.5 2937,1216.18 2939.8,1285.51 2942.58,1268.42 2945.35,1162.42 2948.1,1083.79 2950.84,1229.99 2953.56,1296.24 2956.27,1270.66 2958.96,1281.84 2961.64,1247.76 2964.3,1238.98 2966.95,1297.31 2969.58,1321.27 2972.2,1304.46 2974.81,1261.06 2977.4,1252.81 2979.98,1244.32 2982.54,1237.05 2985.09,1230.04 2987.63,1218.48 2990.16,1209.7 2992.67,1206.95 2995.17,1214.79 2997.65,1220.66 3000.13,1225.48 3002.59,1237.97 3005.04,1250.35 3007.47,1252.65 3009.9,1246.43 3012.31,1236.79 3014.71,1230.3 3017.1,1233.78 3019.48,1244.15 3021.84,1244.08 3024.2,1249.17 3026.54,1245.15 3028.87,1228.19 3031.19,1227.77 3033.5,1222.68 3035.8,1200.8 3038.09,1198.82 3040.37,1210 3042.64,1201.01 3044.89,1195.38 3047.14,1206.6 3049.37,1202.11 3051.6,1190.74 3053.82,1190.78 3056.02,1158.7 3058.22,1203.22 3060.4,1223.46 3062.58,1241.58 3064.75,1212.83 3066.9,1208.51 3069.05,1163.17 3071.19,1130.22 3073.32,1154.62 3075.44,877.489 3077.55,1207.26 3079.65,1238.6 3081.74,1241.42 3083.82,1284.63 3085.9,1310.75 3087.96,1299.72 3090.02,1296.92 3092.07,1307.7 3094.11,1310.54 3096.14,1327.72 3098.16,1343.38 3100.18,1327.19 3102.19,1307.18 3104.18,1292.29 3106.17,1280.02 3108.16,1284.84 3110.13,1285.92 3112.1,1282.35 3114.05,1273.26 3116,1272.35 3117.95,1281.13 3119.88,1285.44 3121.81,1284.18 3123.73,1273.88 3125.64,1257.88 3127.55,1246.97 3129.44,1235.26 3131.33,1225.35 3133.22,1211.78 3135.09,1204.52 3136.96,1202.99 3138.82,1200.85 3140.67,1193.5 3142.52,1207.24 3144.36,1216.31 3146.19,1216.42 3148.02,1206.44 3149.84,1204.52 3151.65,1193.48 3153.46,1189.06 3155.26,1199.72 3157.05,1209.5 3158.84,1212.04 3160.62,1210.14 3162.39,1208.19 3164.16,1212.34 3165.92,1225.19 3167.67,1241.65 3169.42,1253.56 3171.16,1255.18 3172.9,1249.77 3174.63,1246.62 3176.35,1254.7 3178.07,1250.19 3179.78,1264.51 3181.48,1269.09 3183.18,1265.97 3184.88,1240.23 3186.57,1274.56 3188.25,1286.24 3189.92,451.206 3191.59,1191.03 3193.26,1166.95 3194.92,1227 3196.57,1202.51 3198.22,1249.99 3199.86,1304.72 3201.5,1292.12 3203.13,1287.57 3204.75,1298.88 3206.37,1283.76 3207.99,1291.01 3209.6,1338.5 3211.2,1343.9 3212.8,1317.94 3214.4,1291.43 3215.99,1261.75 3217.57,1254.72 3219.15,1282.34 3220.72,1309.34 3222.29,1328.11 3223.85,1327.56 3225.41,1307.15 3226.96,1317.11 3228.51,1328.05 3230.06,1321.13 3231.6,1307.94 3233.13,1285.56 3234.66,1276.98 3236.18,1297.81 3237.7,1307.76 3239.22,1294.71 3240.73,1304.74 3242.23,1322.98 3243.73,1321.74 3245.23,1306.07 3246.72,1286.44 3248.21,1293.2 3249.69,1298.36 3251.17,1300.19 3252.64,1296.05 3254.11,1307.49 3255.58,1322.76 3257.04,1325.72 3258.5,1316.06 3259.95,1301.65 3261.39,1309.04 3262.84,1304.42 3264.28,1290.9 3265.71,1291.24 3267.14,1305.55 3268.57,1309.81 3269.99,1304.21 3271.41,1304.27 3272.82,1309.09 3274.23,1302.34 3275.64,1288.84 3277.04,1291.69 3278.44,1288.33 3279.83,1279.99 3281.22,1282.4 3282.61,1280.19 3283.99,1275.77 3285.37,1272.3 3286.74,1268.06 3288.11,1262.86 3289.48,1259.5 3290.84,1255.55 3292.2,1247.32 3293.56,1248.39 3294.91,1244.84 3296.26,1241.4 3297.6,1244.38 3298.94,1241.22 3300.28,1233.47 3301.61,1240.03 3302.94,1239.1 3304.27,1220.87 3305.59,1238.73 3306.91,1240.54 3308.22,1225.5 3309.53,1241.27 3310.84,1241.57 3312.15,1236.97 3313.45,1241.4 3314.74,1246.69 3316.04,1244.18 3317.33,1241.67 3318.62,1248.61 3319.9,1240.48 3321.18,1236.6 3322.46,1243.96 3323.73,1236.21 3325,1225.51 3326.27,1247.1 3327.53,1241.89 3328.8,1226.57 3330.05,1252.38 3331.31,1258.7 3332.56,1233.15 3333.81,1260.73 3335.05,1258.1 3336.29,1231.1 3337.53,1261.23 3338.77,1245.84 3340,1225.42 3341.23,1261.13 3342.45,1238.82 3343.68,1229.63 3344.9,1256.27 3346.11,1239.09 3347.33,1248.66 3348.54,1242.53 3349.75,1243.78 3350.95,1252.8 3352.15,1343.9 3353.35,1345.29 3354.55,1345.07 3355.74,1343.5 3356.93,1341.42 3358.12,1339.07 3359.3,1336.54 3360.48,1333.85 3361.66,1331.11 3362.84,1328.38 3364.01,1325.75 3365.18,1323.28 3366.35,1321 3367.51,1318.87 3368.67,1316.87 3369.83,1314.99 3370.99,1313.21 3372.14,1311.51 3373.29,1309.93 3374.44,1308.47 3375.59,1307.13 3376.73,1305.89 3377.87,1304.78 3379.01,1303.82 3380.14,1303.01 3381.28,1302.36 3382.41,1301.85 3383.53,1301.45 3384.66,1301.19 3385.78,1301.04 3386.9,1301.03 3388.01,1301.16 3389.13,1301.42 3390.24,1301.81 3391.35,1302.32 3392.46,1302.91 3393.56,1303.56 3394.66,1304.23 3395.76,1304.91 3396.86,1305.56 3397.95,1306.17 3399.04,1306.74 3400.13,1307.25 3401.22,1307.69 3402.3,1308.05 3403.39,1308.33 3404.47,1308.56 3405.54,1308.73 3406.62,1308.86 3407.69,1308.97 3408.76,1309.07 3409.83,1309.15 3410.89,1309.22 3411.96,1309.29 3413.02,1309.32 3414.08,1309.34 3415.13,1309.32 3416.19,1309.3 3417.24,1309.25 3418.29,1309.2 3419.34,1309.16 3420.38,1309.14 3421.42,1309.14 3422.46,1309.17 3423.5,1309.25 3424.54,1309.38 3425.57,1309.55 3426.6,1309.75 3427.63,1309.97 3428.66,1310.24 3429.69,1310.52 3430.71,1310.81 3431.73,1311.09 3432.75,1311.36 3433.77,1311.64 3434.78,1311.92 3435.79,1312.24 3436.8,1312.58 3437.81,1312.95 3438.82,1313.38 3439.82,1313.87 3440.83,1314.39 3441.83,1314.96 3442.82,1315.58 3443.82,1316.24 3444.81,1316.96 3445.81,1317.73 3446.8,1318.56 3447.78,1319.48 3448.77,1320.48 3449.75,1321.56 3450.74,1322.73 3451.72,1323.97 3452.69,1325.3 3453.67,1326.65 3454.64,1328.05 3455.62,1329.42 3456.59,1330.6 3457.55,1331.55 3458.52,1332.38 3459.49,1343.9 3460.45,1343.9 3461.41,1342.84 "/>
<path clip-path="url(#clip960)" d="M2760.38 427.467 L3445.17 427.467 L3445.17 168.267 L2760.38 168.267  Z" fill="#ffffff" fill-rule="evenodd" fill-opacity="1"/>
<polyline clip-path="url(#clip960)" style="stroke:#000000; stroke-linecap:round; stroke-linejoin:round; stroke-width:4; stroke-opacity:1; fill:none" points="2760.38,427.467 3445.17,427.467 3445.17,168.267 2760.38,168.267 2760.38,427.467 "/>
<polyline clip-path="url(#clip960)" style="stroke:#ff0000; stroke-linecap:round; stroke-linejoin:round; stroke-width:4; stroke-opacity:1; fill:none" points="2796.24,220.107 3011.41,220.107 "/>
<path clip-path="url(#clip960)" d="M3047.27 202.827 L3076.51 202.827 L3076.51 206.762 L3064.24 206.762 L3064.24 237.387 L3059.54 237.387 L3059.54 206.762 L3047.27 206.762 L3047.27 202.827 Z" fill="#000000" fill-rule="nonzero" fill-opacity="1" /><path clip-path="url(#clip960)" d="M3088.89 215.442 Q3088.18 215.026 3087.32 214.841 Q3086.49 214.632 3085.47 214.632 Q3081.86 214.632 3079.91 216.993 Q3077.99 219.331 3077.99 223.729 L3077.99 237.387 L3073.71 237.387 L3073.71 211.461 L3077.99 211.461 L3077.99 215.489 Q3079.33 213.128 3081.49 211.993 Q3083.64 210.836 3086.72 210.836 Q3087.16 210.836 3087.69 210.905 Q3088.22 210.952 3088.87 211.067 L3088.89 215.442 Z" fill="#000000" fill-rule="nonzero" fill-opacity="1" /><path clip-path="url(#clip960)" d="M3105.14 224.354 Q3099.98 224.354 3097.99 225.535 Q3096 226.716 3096 229.563 Q3096 231.831 3097.48 233.174 Q3098.99 234.493 3101.55 234.493 Q3105.1 234.493 3107.23 231.993 Q3109.38 229.47 3109.38 225.304 L3109.38 224.354 L3105.14 224.354 M3113.64 222.595 L3113.64 237.387 L3109.38 237.387 L3109.38 233.452 Q3107.92 235.813 3105.74 236.947 Q3103.57 238.058 3100.42 238.058 Q3096.44 238.058 3094.08 235.836 Q3091.74 233.591 3091.74 229.841 Q3091.74 225.466 3094.66 223.243 Q3097.6 221.021 3103.41 221.021 L3109.38 221.021 L3109.38 220.604 Q3109.38 217.665 3107.43 216.067 Q3105.51 214.447 3102.02 214.447 Q3099.8 214.447 3097.69 214.979 Q3095.58 215.512 3093.64 216.577 L3093.64 212.642 Q3095.98 211.739 3098.18 211.299 Q3100.37 210.836 3102.46 210.836 Q3108.08 210.836 3110.86 213.753 Q3113.64 216.669 3113.64 222.595 Z" fill="#000000" fill-rule="nonzero" fill-opacity="1" /><path clip-path="url(#clip960)" d="M3122.41 211.461 L3126.67 211.461 L3126.67 237.387 L3122.41 237.387 L3122.41 211.461 M3122.41 201.368 L3126.67 201.368 L3126.67 206.762 L3122.41 206.762 L3122.41 201.368 Z" fill="#000000" fill-rule="nonzero" fill-opacity="1" /><path clip-path="url(#clip960)" d="M3157.13 221.739 L3157.13 237.387 L3152.87 237.387 L3152.87 221.878 Q3152.87 218.197 3151.44 216.368 Q3150 214.54 3147.13 214.54 Q3143.68 214.54 3141.69 216.739 Q3139.7 218.938 3139.7 222.734 L3139.7 237.387 L3135.42 237.387 L3135.42 211.461 L3139.7 211.461 L3139.7 215.489 Q3141.23 213.151 3143.29 211.993 Q3145.37 210.836 3148.08 210.836 Q3152.55 210.836 3154.84 213.614 Q3157.13 216.368 3157.13 221.739 Z" fill="#000000" fill-rule="nonzero" fill-opacity="1" /><path clip-path="url(#clip960)" d="M3165.63 211.461 L3169.89 211.461 L3169.89 237.387 L3165.63 237.387 L3165.63 211.461 M3165.63 201.368 L3169.89 201.368 L3169.89 206.762 L3165.63 206.762 L3165.63 201.368 Z" fill="#000000" fill-rule="nonzero" fill-opacity="1" /><path clip-path="url(#clip960)" d="M3200.35 221.739 L3200.35 237.387 L3196.09 237.387 L3196.09 221.878 Q3196.09 218.197 3194.66 216.368 Q3193.22 214.54 3190.35 214.54 Q3186.9 214.54 3184.91 216.739 Q3182.92 218.938 3182.92 222.734 L3182.92 237.387 L3178.64 237.387 L3178.64 211.461 L3182.92 211.461 L3182.92 215.489 Q3184.45 213.151 3186.51 211.993 Q3188.59 210.836 3191.3 210.836 Q3195.77 210.836 3198.06 213.614 Q3200.35 216.368 3200.35 221.739 Z" fill="#000000" fill-rule="nonzero" fill-opacity="1" /><path clip-path="url(#clip960)" d="M3225.91 224.123 Q3225.91 219.493 3223.98 216.947 Q3222.09 214.401 3218.64 214.401 Q3215.21 214.401 3213.29 216.947 Q3211.39 219.493 3211.39 224.123 Q3211.39 228.729 3213.29 231.276 Q3215.21 233.822 3218.64 233.822 Q3222.09 233.822 3223.98 231.276 Q3225.91 228.729 3225.91 224.123 M3230.17 234.169 Q3230.17 240.79 3227.23 244.007 Q3224.29 247.248 3218.22 247.248 Q3215.98 247.248 3213.98 246.901 Q3211.99 246.577 3210.12 245.882 L3210.12 241.739 Q3211.99 242.757 3213.82 243.243 Q3215.65 243.729 3217.55 243.729 Q3221.74 243.729 3223.82 241.53 Q3225.91 239.354 3225.91 234.933 L3225.91 232.827 Q3224.59 235.118 3222.53 236.253 Q3220.47 237.387 3217.6 237.387 Q3212.83 237.387 3209.91 233.753 Q3206.99 230.118 3206.99 224.123 Q3206.99 218.104 3209.91 214.47 Q3212.83 210.836 3217.6 210.836 Q3220.47 210.836 3222.53 211.97 Q3224.59 213.105 3225.91 215.396 L3225.91 211.461 L3230.17 211.461 L3230.17 234.169 Z" fill="#000000" fill-rule="nonzero" fill-opacity="1" /><polyline clip-path="url(#clip960)" style="stroke:#0000ff; stroke-linecap:round; stroke-linejoin:round; stroke-width:4; stroke-opacity:1; fill:none" points="2796.24,271.947 3011.41,271.947 "/>
<path clip-path="url(#clip960)" d="M3060.47 289.227 L3047.27 254.667 L3052.16 254.667 L3063.11 283.764 L3074.08 254.667 L3078.94 254.667 L3065.77 289.227 L3060.47 289.227 Z" fill="#000000" fill-rule="nonzero" fill-opacity="1" /><path clip-path="url(#clip960)" d="M3091.9 276.194 Q3086.74 276.194 3084.75 277.375 Q3082.76 278.556 3082.76 281.403 Q3082.76 283.671 3084.24 285.014 Q3085.74 286.333 3088.31 286.333 Q3091.86 286.333 3093.99 283.833 Q3096.14 281.31 3096.14 277.144 L3096.14 276.194 L3091.9 276.194 M3100.4 274.435 L3100.4 289.227 L3096.14 289.227 L3096.14 285.292 Q3094.68 287.653 3092.5 288.787 Q3090.33 289.898 3087.18 289.898 Q3083.2 289.898 3080.84 287.676 Q3078.5 285.431 3078.5 281.681 Q3078.5 277.306 3081.42 275.083 Q3084.36 272.861 3090.17 272.861 L3096.14 272.861 L3096.14 272.444 Q3096.14 269.505 3094.19 267.907 Q3092.27 266.287 3088.78 266.287 Q3086.56 266.287 3084.45 266.819 Q3082.34 267.352 3080.4 268.417 L3080.4 264.482 Q3082.74 263.579 3084.93 263.139 Q3087.13 262.676 3089.22 262.676 Q3094.84 262.676 3097.62 265.593 Q3100.4 268.509 3100.4 274.435 Z" fill="#000000" fill-rule="nonzero" fill-opacity="1" /><path clip-path="url(#clip960)" d="M3109.17 253.208 L3113.43 253.208 L3113.43 289.227 L3109.17 289.227 L3109.17 253.208 Z" fill="#000000" fill-rule="nonzero" fill-opacity="1" /><path clip-path="url(#clip960)" d="M3122.34 263.301 L3126.6 263.301 L3126.6 289.227 L3122.34 289.227 L3122.34 263.301 M3122.34 253.208 L3126.6 253.208 L3126.6 258.602 L3122.34 258.602 L3122.34 253.208 Z" fill="#000000" fill-rule="nonzero" fill-opacity="1" /><path clip-path="url(#clip960)" d="M3152.57 267.236 L3152.57 253.208 L3156.83 253.208 L3156.83 289.227 L3152.57 289.227 L3152.57 285.338 Q3151.23 287.653 3149.17 288.787 Q3147.13 289.898 3144.26 289.898 Q3139.56 289.898 3136.6 286.148 Q3133.66 282.398 3133.66 276.287 Q3133.66 270.176 3136.6 266.426 Q3139.56 262.676 3144.26 262.676 Q3147.13 262.676 3149.17 263.81 Q3151.23 264.921 3152.57 267.236 M3138.06 276.287 Q3138.06 280.986 3139.98 283.671 Q3141.93 286.333 3145.3 286.333 Q3148.68 286.333 3150.63 283.671 Q3152.57 280.986 3152.57 276.287 Q3152.57 271.588 3150.63 268.926 Q3148.68 266.241 3145.3 266.241 Q3141.93 266.241 3139.98 268.926 Q3138.06 271.588 3138.06 276.287 Z" fill="#000000" fill-rule="nonzero" fill-opacity="1" /><path clip-path="url(#clip960)" d="M3177.39 276.194 Q3172.23 276.194 3170.24 277.375 Q3168.24 278.556 3168.24 281.403 Q3168.24 283.671 3169.73 285.014 Q3171.23 286.333 3173.8 286.333 Q3177.34 286.333 3179.47 283.833 Q3181.62 281.31 3181.62 277.144 L3181.62 276.194 L3177.39 276.194 M3185.88 274.435 L3185.88 289.227 L3181.62 289.227 L3181.62 285.292 Q3180.17 287.653 3177.99 288.787 Q3175.81 289.898 3172.67 289.898 Q3168.68 289.898 3166.32 287.676 Q3163.99 285.431 3163.99 281.681 Q3163.99 277.306 3166.9 275.083 Q3169.84 272.861 3175.65 272.861 L3181.62 272.861 L3181.62 272.444 Q3181.62 269.505 3179.68 267.907 Q3177.76 266.287 3174.26 266.287 Q3172.04 266.287 3169.93 266.819 Q3167.83 267.352 3165.88 268.417 L3165.88 264.482 Q3168.22 263.579 3170.42 263.139 Q3172.62 262.676 3174.7 262.676 Q3180.33 262.676 3183.11 265.593 Q3185.88 268.509 3185.88 274.435 Z" fill="#000000" fill-rule="nonzero" fill-opacity="1" /><path clip-path="url(#clip960)" d="M3198.87 255.94 L3198.87 263.301 L3207.64 263.301 L3207.64 266.611 L3198.87 266.611 L3198.87 280.685 Q3198.87 283.856 3199.73 284.759 Q3200.61 285.662 3203.27 285.662 L3207.64 285.662 L3207.64 289.227 L3203.27 289.227 Q3198.34 289.227 3196.46 287.398 Q3194.59 285.546 3194.59 280.685 L3194.59 266.611 L3191.46 266.611 L3191.46 263.301 L3194.59 263.301 L3194.59 255.94 L3198.87 255.94 Z" fill="#000000" fill-rule="nonzero" fill-opacity="1" /><path clip-path="url(#clip960)" d="M3213.24 263.301 L3217.5 263.301 L3217.5 289.227 L3213.24 289.227 L3213.24 263.301 M3213.24 253.208 L3217.5 253.208 L3217.5 258.602 L3213.24 258.602 L3213.24 253.208 Z" fill="#000000" fill-rule="nonzero" fill-opacity="1" /><path clip-path="url(#clip960)" d="M3236.46 266.287 Q3233.04 266.287 3231.05 268.972 Q3229.05 271.634 3229.05 276.287 Q3229.05 280.94 3231.02 283.625 Q3233.01 286.287 3236.46 286.287 Q3239.86 286.287 3241.86 283.602 Q3243.85 280.917 3243.85 276.287 Q3243.85 271.681 3241.86 268.995 Q3239.86 266.287 3236.46 266.287 M3236.46 262.676 Q3242.02 262.676 3245.19 266.287 Q3248.36 269.898 3248.36 276.287 Q3248.36 282.653 3245.19 286.287 Q3242.02 289.898 3236.46 289.898 Q3230.88 289.898 3227.71 286.287 Q3224.56 282.653 3224.56 276.287 Q3224.56 269.898 3227.71 266.287 Q3230.88 262.676 3236.46 262.676 Z" fill="#000000" fill-rule="nonzero" fill-opacity="1" /><path clip-path="url(#clip960)" d="M3276.97 273.579 L3276.97 289.227 L3272.71 289.227 L3272.71 273.718 Q3272.71 270.037 3271.28 268.208 Q3269.84 266.38 3266.97 266.38 Q3263.52 266.38 3261.53 268.579 Q3259.54 270.778 3259.54 274.574 L3259.54 289.227 L3255.26 289.227 L3255.26 263.301 L3259.54 263.301 L3259.54 267.329 Q3261.07 264.991 3263.13 263.833 Q3265.21 262.676 3267.92 262.676 Q3272.39 262.676 3274.68 265.454 Q3276.97 268.208 3276.97 273.579 Z" fill="#000000" fill-rule="nonzero" fill-opacity="1" /><polyline clip-path="url(#clip960)" style="stroke:#808080; stroke-linecap:round; stroke-linejoin:round; stroke-width:4; stroke-opacity:1; fill:none" points="2796.24,323.787 3011.41,323.787 "/>
<path clip-path="url(#clip960)" d="M3051.95 324.562 L3051.95 337.224 L3059.45 337.224 Q3063.22 337.224 3065.03 335.673 Q3066.86 334.099 3066.86 330.882 Q3066.86 327.641 3065.03 326.113 Q3063.22 324.562 3059.45 324.562 L3051.95 324.562 M3051.95 310.349 L3051.95 320.766 L3058.87 320.766 Q3062.3 320.766 3063.96 319.493 Q3065.65 318.197 3065.65 315.558 Q3065.65 312.942 3063.96 311.646 Q3062.3 310.349 3058.87 310.349 L3051.95 310.349 M3047.27 306.507 L3059.22 306.507 Q3064.56 306.507 3067.46 308.729 Q3070.35 310.951 3070.35 315.048 Q3070.35 318.22 3068.87 320.095 Q3067.39 321.97 3064.52 322.433 Q3067.97 323.173 3069.87 325.534 Q3071.79 327.872 3071.79 331.391 Q3071.79 336.021 3068.64 338.544 Q3065.49 341.067 3059.68 341.067 L3047.27 341.067 L3047.27 306.507 Z" fill="#000000" fill-rule="nonzero" fill-opacity="1" /><path clip-path="url(#clip960)" d="M3101.79 327.039 L3101.79 329.122 L3082.2 329.122 Q3082.48 333.521 3084.84 335.835 Q3087.23 338.127 3091.46 338.127 Q3093.92 338.127 3096.21 337.525 Q3098.52 336.923 3100.79 335.72 L3100.79 339.747 Q3098.5 340.72 3096.09 341.229 Q3093.68 341.738 3091.21 341.738 Q3085 341.738 3081.37 338.127 Q3077.76 334.516 3077.76 328.359 Q3077.76 321.993 3081.18 318.266 Q3084.63 314.516 3090.47 314.516 Q3095.7 314.516 3098.73 317.896 Q3101.79 321.252 3101.79 327.039 M3097.53 325.789 Q3097.48 322.294 3095.56 320.21 Q3093.66 318.127 3090.51 318.127 Q3086.95 318.127 3084.8 320.141 Q3082.67 322.155 3082.34 325.812 L3097.53 325.789 Z" fill="#000000" fill-rule="nonzero" fill-opacity="1" /><path clip-path="url(#clip960)" d="M3125.3 315.905 L3125.3 319.933 Q3123.5 319.007 3121.55 318.544 Q3119.61 318.081 3117.53 318.081 Q3114.36 318.081 3112.76 319.053 Q3111.18 320.025 3111.18 321.97 Q3111.18 323.451 3112.32 324.308 Q3113.45 325.141 3116.88 325.905 L3118.34 326.229 Q3122.87 327.201 3124.77 328.984 Q3126.69 330.743 3126.69 333.914 Q3126.69 337.525 3123.82 339.632 Q3120.98 341.738 3115.98 341.738 Q3113.89 341.738 3111.62 341.321 Q3109.38 340.928 3106.88 340.118 L3106.88 335.72 Q3109.24 336.946 3111.53 337.571 Q3113.82 338.173 3116.07 338.173 Q3119.08 338.173 3120.7 337.155 Q3122.32 336.113 3122.32 334.238 Q3122.32 332.502 3121.14 331.576 Q3119.98 330.65 3116.02 329.794 L3114.54 329.446 Q3110.58 328.613 3108.82 326.9 Q3107.06 325.164 3107.06 322.155 Q3107.06 318.497 3109.66 316.507 Q3112.25 314.516 3117.02 314.516 Q3119.38 314.516 3121.46 314.863 Q3123.55 315.21 3125.3 315.905 Z" fill="#000000" fill-rule="nonzero" fill-opacity="1" /><path clip-path="url(#clip960)" d="M3137.69 307.78 L3137.69 315.141 L3146.46 315.141 L3146.46 318.451 L3137.69 318.451 L3137.69 332.525 Q3137.69 335.696 3138.55 336.599 Q3139.43 337.502 3142.09 337.502 L3146.46 337.502 L3146.46 341.067 L3142.09 341.067 Q3137.16 341.067 3135.28 339.238 Q3133.41 337.386 3133.41 332.525 L3133.41 318.451 L3130.28 318.451 L3130.28 315.141 L3133.41 315.141 L3133.41 307.78 L3137.69 307.78 Z" fill="#000000" fill-rule="nonzero" fill-opacity="1" /><path clip-path="url(#clip960)" d="M3171.99 310.349 L3171.99 323.335 L3177.87 323.335 Q3181.14 323.335 3182.92 321.646 Q3184.7 319.956 3184.7 316.831 Q3184.7 313.729 3182.92 312.039 Q3181.14 310.349 3177.87 310.349 L3171.99 310.349 M3167.32 306.507 L3177.87 306.507 Q3183.68 306.507 3186.65 309.146 Q3189.63 311.761 3189.63 316.831 Q3189.63 321.947 3186.65 324.562 Q3183.68 327.178 3177.87 327.178 L3171.99 327.178 L3171.99 341.067 L3167.32 341.067 L3167.32 306.507 Z" fill="#000000" fill-rule="nonzero" fill-opacity="1" /><path clip-path="url(#clip960)" d="M3205.37 328.034 Q3200.21 328.034 3198.22 329.215 Q3196.23 330.396 3196.23 333.243 Q3196.23 335.511 3197.71 336.854 Q3199.22 338.173 3201.79 338.173 Q3205.33 338.173 3207.46 335.673 Q3209.61 333.15 3209.61 328.984 L3209.61 328.034 L3205.37 328.034 M3213.87 326.275 L3213.87 341.067 L3209.61 341.067 L3209.61 337.132 Q3208.15 339.493 3205.98 340.627 Q3203.8 341.738 3200.65 341.738 Q3196.67 341.738 3194.31 339.516 Q3191.97 337.271 3191.97 333.521 Q3191.97 329.146 3194.89 326.923 Q3197.83 324.701 3203.64 324.701 L3209.61 324.701 L3209.61 324.284 Q3209.61 321.345 3207.67 319.747 Q3205.74 318.127 3202.25 318.127 Q3200.03 318.127 3197.92 318.659 Q3195.81 319.192 3193.87 320.257 L3193.87 316.322 Q3196.21 315.419 3198.41 314.979 Q3200.61 314.516 3202.69 314.516 Q3208.31 314.516 3211.09 317.433 Q3213.87 320.349 3213.87 326.275 Z" fill="#000000" fill-rule="nonzero" fill-opacity="1" /><path clip-path="url(#clip960)" d="M3237.67 319.122 Q3236.95 318.706 3236.09 318.521 Q3235.26 318.312 3234.24 318.312 Q3230.63 318.312 3228.68 320.673 Q3226.76 323.011 3226.76 327.409 L3226.76 341.067 L3222.48 341.067 L3222.48 315.141 L3226.76 315.141 L3226.76 319.169 Q3228.11 316.808 3230.26 315.673 Q3232.41 314.516 3235.49 314.516 Q3235.93 314.516 3236.46 314.585 Q3236.99 314.632 3237.64 314.747 L3237.67 319.122 Z" fill="#000000" fill-rule="nonzero" fill-opacity="1" /><path clip-path="url(#clip960)" d="M3253.92 328.034 Q3248.75 328.034 3246.76 329.215 Q3244.77 330.396 3244.77 333.243 Q3244.77 335.511 3246.25 336.854 Q3247.76 338.173 3250.33 338.173 Q3253.87 338.173 3256 335.673 Q3258.15 333.15 3258.15 328.984 L3258.15 328.034 L3253.92 328.034 M3262.41 326.275 L3262.41 341.067 L3258.15 341.067 L3258.15 337.132 Q3256.69 339.493 3254.52 340.627 Q3252.34 341.738 3249.19 341.738 Q3245.21 341.738 3242.85 339.516 Q3240.51 337.271 3240.51 333.521 Q3240.51 329.146 3243.43 326.923 Q3246.37 324.701 3252.18 324.701 L3258.15 324.701 L3258.15 324.284 Q3258.15 321.345 3256.21 319.747 Q3254.29 318.127 3250.79 318.127 Q3248.57 318.127 3246.46 318.659 Q3244.36 319.192 3242.41 320.257 L3242.41 316.322 Q3244.75 315.419 3246.95 314.979 Q3249.15 314.516 3251.23 314.516 Q3256.86 314.516 3259.63 317.433 Q3262.41 320.349 3262.41 326.275 Z" fill="#000000" fill-rule="nonzero" fill-opacity="1" /><path clip-path="url(#clip960)" d="M3291.37 320.118 Q3292.97 317.247 3295.19 315.882 Q3297.41 314.516 3300.42 314.516 Q3304.47 314.516 3306.67 317.363 Q3308.87 320.187 3308.87 325.419 L3308.87 341.067 L3304.59 341.067 L3304.59 325.558 Q3304.59 321.831 3303.27 320.025 Q3301.95 318.22 3299.24 318.22 Q3295.93 318.22 3294.01 320.419 Q3292.09 322.618 3292.09 326.414 L3292.09 341.067 L3287.8 341.067 L3287.8 325.558 Q3287.8 321.808 3286.48 320.025 Q3285.17 318.22 3282.41 318.22 Q3279.15 318.22 3277.23 320.442 Q3275.3 322.641 3275.3 326.414 L3275.3 341.067 L3271.02 341.067 L3271.02 315.141 L3275.3 315.141 L3275.3 319.169 Q3276.76 316.785 3278.8 315.65 Q3280.84 314.516 3283.64 314.516 Q3286.46 314.516 3288.43 315.951 Q3290.42 317.386 3291.37 320.118 Z" fill="#000000" fill-rule="nonzero" fill-opacity="1" /><path clip-path="url(#clip960)" d="M3339.54 327.039 L3339.54 329.122 L3319.96 329.122 Q3320.23 333.521 3322.6 335.835 Q3324.98 338.127 3329.22 338.127 Q3331.67 338.127 3333.96 337.525 Q3336.28 336.923 3338.54 335.72 L3338.54 339.747 Q3336.25 340.72 3333.85 341.229 Q3331.44 341.738 3328.96 341.738 Q3322.76 341.738 3319.12 338.127 Q3315.51 334.516 3315.51 328.359 Q3315.51 321.993 3318.94 318.266 Q3322.39 314.516 3328.22 314.516 Q3333.45 314.516 3336.48 317.896 Q3339.54 321.252 3339.54 327.039 M3335.28 325.789 Q3335.23 322.294 3333.31 320.21 Q3331.41 318.127 3328.27 318.127 Q3324.7 318.127 3322.55 320.141 Q3320.42 322.155 3320.1 325.812 L3335.28 325.789 Z" fill="#000000" fill-rule="nonzero" fill-opacity="1" /><path clip-path="url(#clip960)" d="M3350.74 307.78 L3350.74 315.141 L3359.52 315.141 L3359.52 318.451 L3350.74 318.451 L3350.74 332.525 Q3350.74 335.696 3351.6 336.599 Q3352.48 337.502 3355.14 337.502 L3359.52 337.502 L3359.52 341.067 L3355.14 341.067 Q3350.21 341.067 3348.34 339.238 Q3346.46 337.386 3346.46 332.525 L3346.46 318.451 L3343.34 318.451 L3343.34 315.141 L3346.46 315.141 L3346.46 307.78 L3350.74 307.78 Z" fill="#000000" fill-rule="nonzero" fill-opacity="1" /><path clip-path="url(#clip960)" d="M3387.29 327.039 L3387.29 329.122 L3367.71 329.122 Q3367.99 333.521 3370.35 335.835 Q3372.73 338.127 3376.97 338.127 Q3379.42 338.127 3381.72 337.525 Q3384.03 336.923 3386.3 335.72 L3386.3 339.747 Q3384.01 340.72 3381.6 341.229 Q3379.19 341.738 3376.72 341.738 Q3370.51 341.738 3366.88 338.127 Q3363.27 334.516 3363.27 328.359 Q3363.27 321.993 3366.69 318.266 Q3370.14 314.516 3375.97 314.516 Q3381.21 314.516 3384.24 317.896 Q3387.29 321.252 3387.29 327.039 M3383.03 325.789 Q3382.99 322.294 3381.07 320.21 Q3379.17 318.127 3376.02 318.127 Q3372.46 318.127 3370.3 320.141 Q3368.17 322.155 3367.85 325.812 L3383.03 325.789 Z" fill="#000000" fill-rule="nonzero" fill-opacity="1" /><path clip-path="url(#clip960)" d="M3409.31 319.122 Q3408.59 318.706 3407.73 318.521 Q3406.9 318.312 3405.88 318.312 Q3402.27 318.312 3400.33 320.673 Q3398.41 323.011 3398.41 327.409 L3398.41 341.067 L3394.12 341.067 L3394.12 315.141 L3398.41 315.141 L3398.41 319.169 Q3399.75 316.808 3401.9 315.673 Q3404.05 314.516 3407.13 314.516 Q3407.57 314.516 3408.1 314.585 Q3408.64 314.632 3409.28 314.747 L3409.31 319.122 Z" fill="#000000" fill-rule="nonzero" fill-opacity="1" /><polyline clip-path="url(#clip960)" style="stroke:#000000; stroke-linecap:round; stroke-linejoin:round; stroke-width:4; stroke-opacity:1; fill:none" points="2796.24,375.627 3011.41,375.627 "/>
<path clip-path="url(#clip960)" d="M3047.27 358.347 L3076.51 358.347 L3076.51 362.282 L3064.24 362.282 L3064.24 392.907 L3059.54 392.907 L3059.54 362.282 L3047.27 362.282 L3047.27 358.347 Z" fill="#000000" fill-rule="nonzero" fill-opacity="1" /><path clip-path="url(#clip960)" d="M3094.96 378.879 L3094.96 380.962 L3075.37 380.962 Q3075.65 385.361 3078.01 387.675 Q3080.4 389.967 3084.63 389.967 Q3087.09 389.967 3089.38 389.365 Q3091.69 388.763 3093.96 387.56 L3093.96 391.587 Q3091.67 392.56 3089.26 393.069 Q3086.86 393.578 3084.38 393.578 Q3078.18 393.578 3074.54 389.967 Q3070.93 386.356 3070.93 380.199 Q3070.93 373.833 3074.36 370.106 Q3077.81 366.356 3083.64 366.356 Q3088.87 366.356 3091.9 369.736 Q3094.96 373.092 3094.96 378.879 M3090.7 377.629 Q3090.65 374.134 3088.73 372.05 Q3086.83 369.967 3083.68 369.967 Q3080.12 369.967 3077.97 371.981 Q3075.84 373.995 3075.51 377.652 L3090.7 377.629 Z" fill="#000000" fill-rule="nonzero" fill-opacity="1" /><path clip-path="url(#clip960)" d="M3118.48 367.745 L3118.48 371.773 Q3116.67 370.847 3114.73 370.384 Q3112.78 369.921 3110.7 369.921 Q3107.53 369.921 3105.93 370.893 Q3104.36 371.865 3104.36 373.81 Q3104.36 375.291 3105.49 376.148 Q3106.62 376.981 3110.05 377.745 L3111.51 378.069 Q3116.05 379.041 3117.94 380.824 Q3119.87 382.583 3119.87 385.754 Q3119.87 389.365 3116.99 391.472 Q3114.15 393.578 3109.15 393.578 Q3107.06 393.578 3104.8 393.161 Q3102.55 392.768 3100.05 391.958 L3100.05 387.56 Q3102.41 388.786 3104.7 389.411 Q3106.99 390.013 3109.24 390.013 Q3112.25 390.013 3113.87 388.995 Q3115.49 387.953 3115.49 386.078 Q3115.49 384.342 3114.31 383.416 Q3113.15 382.49 3109.19 381.634 L3107.71 381.286 Q3103.75 380.453 3101.99 378.74 Q3100.24 377.004 3100.24 373.995 Q3100.24 370.337 3102.83 368.347 Q3105.42 366.356 3110.19 366.356 Q3112.55 366.356 3114.63 366.703 Q3116.72 367.05 3118.48 367.745 Z" fill="#000000" fill-rule="nonzero" fill-opacity="1" /><path clip-path="url(#clip960)" d="M3130.86 359.62 L3130.86 366.981 L3139.63 366.981 L3139.63 370.291 L3130.86 370.291 L3130.86 384.365 Q3130.86 387.536 3131.72 388.439 Q3132.6 389.342 3135.26 389.342 L3139.63 389.342 L3139.63 392.907 L3135.26 392.907 Q3130.33 392.907 3128.45 391.078 Q3126.58 389.226 3126.58 384.365 L3126.58 370.291 L3123.45 370.291 L3123.45 366.981 L3126.58 366.981 L3126.58 359.62 L3130.86 359.62 Z" fill="#000000" fill-rule="nonzero" fill-opacity="1" /><path clip-path="url(#clip960)" d="M3025.01 1039.71 L3038.77 1039.71 L3038.77 1042.67 L3028.22 1042.67 L3028.22 1049.02 Q3028.98 1048.76 3029.75 1048.64 Q3030.51 1048.5 3031.27 1048.5 Q3035.61 1048.5 3038.15 1050.88 Q3040.68 1053.26 3040.68 1057.32 Q3040.68 1061.5 3038.08 1063.83 Q3035.48 1066.14 3030.74 1066.14 Q3029.1 1066.14 3027.4 1065.86 Q3025.72 1065.58 3023.91 1065.03 L3023.91 1061.5 Q3025.48 1062.35 3027.14 1062.77 Q3028.81 1063.19 3030.67 1063.19 Q3033.67 1063.19 3035.42 1061.61 Q3037.18 1060.03 3037.18 1057.32 Q3037.18 1054.61 3035.42 1053.03 Q3033.67 1051.45 3030.67 1051.45 Q3029.26 1051.45 3027.85 1051.76 Q3026.46 1052.08 3025.01 1052.74 L3025.01 1039.71 Z" fill="#000000" fill-rule="nonzero" fill-opacity="1" /><path clip-path="url(#clip960)" d="M3057.23 1042.77 L3048.37 1056.61 L3057.23 1056.61 L3057.23 1042.77 M3056.31 1039.71 L3060.72 1039.71 L3060.72 1056.61 L3064.42 1056.61 L3064.42 1059.52 L3060.72 1059.52 L3060.72 1065.63 L3057.23 1065.63 L3057.23 1059.52 L3045.53 1059.52 L3045.53 1056.14 L3056.31 1039.71 Z" fill="#000000" fill-rule="nonzero" fill-opacity="1" /><path clip-path="url(#clip960)" d="M3070.21 1061.22 L3073.88 1061.22 L3073.88 1065.63 L3070.21 1065.63 L3070.21 1061.22 Z" fill="#000000" fill-rule="nonzero" fill-opacity="1" /><path clip-path="url(#clip960)" d="M3081.62 1065.1 L3081.62 1061.9 Q3082.94 1062.53 3084.29 1062.86 Q3085.65 1063.19 3086.95 1063.19 Q3090.42 1063.19 3092.25 1060.86 Q3094.09 1058.52 3094.35 1053.76 Q3093.34 1055.25 3091.79 1056.05 Q3090.25 1056.85 3088.37 1056.85 Q3084.49 1056.85 3082.21 1054.51 Q3079.95 1052.14 3079.95 1048.06 Q3079.95 1044.07 3082.32 1041.66 Q3084.68 1039.25 3088.6 1039.25 Q3093.1 1039.25 3095.46 1042.7 Q3097.84 1046.14 3097.84 1052.7 Q3097.84 1058.83 3094.92 1062.49 Q3092.02 1066.14 3087.11 1066.14 Q3085.79 1066.14 3084.43 1065.88 Q3083.08 1065.62 3081.62 1065.1 M3088.6 1054.11 Q3090.96 1054.11 3092.33 1052.49 Q3093.72 1050.88 3093.72 1048.06 Q3093.72 1045.27 3092.33 1043.66 Q3090.96 1042.02 3088.6 1042.02 Q3086.24 1042.02 3084.85 1043.66 Q3083.48 1045.27 3083.48 1048.06 Q3083.48 1050.88 3084.85 1052.49 Q3086.24 1054.11 3088.6 1054.11 Z" fill="#000000" fill-rule="nonzero" fill-opacity="1" /><path clip-path="url(#clip960)" d="M3104.75 1062.68 L3110.47 1062.68 L3110.47 1042.91 L3104.24 1044.16 L3104.24 1040.96 L3110.44 1039.71 L3113.95 1039.71 L3113.95 1062.68 L3119.68 1062.68 L3119.68 1065.63 L3104.75 1065.63 L3104.75 1062.68 Z" fill="#000000" fill-rule="nonzero" fill-opacity="1" /><path clip-path="url(#clip960)" d="M3136.39 1042.77 L3127.54 1056.61 L3136.39 1056.61 L3136.39 1042.77 M3135.47 1039.71 L3139.88 1039.71 L3139.88 1056.61 L3143.58 1056.61 L3143.58 1059.52 L3139.88 1059.52 L3139.88 1065.63 L3136.39 1065.63 L3136.39 1059.52 L3124.69 1059.52 L3124.69 1056.14 L3135.47 1039.71 Z" fill="#000000" fill-rule="nonzero" fill-opacity="1" /><path clip-path="url(#clip960)" d="M3160.01 1051.66 Q3162.52 1052.2 3163.93 1053.9 Q3165.35 1055.6 3165.35 1058.1 Q3165.35 1061.94 3162.71 1064.04 Q3160.08 1066.14 3155.21 1066.14 Q3153.58 1066.14 3151.85 1065.81 Q3150.13 1065.5 3148.29 1064.85 L3148.29 1061.47 Q3149.75 1062.32 3151.48 1062.75 Q3153.22 1063.19 3155.11 1063.19 Q3158.41 1063.19 3160.13 1061.88 Q3161.86 1060.58 3161.86 1058.1 Q3161.86 1055.81 3160.25 1054.52 Q3158.65 1053.22 3155.79 1053.22 L3152.77 1053.22 L3152.77 1050.34 L3155.93 1050.34 Q3158.51 1050.34 3159.88 1049.31 Q3161.26 1048.27 3161.26 1046.33 Q3161.26 1044.33 3159.83 1043.27 Q3158.43 1042.2 3155.79 1042.2 Q3154.35 1042.2 3152.7 1042.51 Q3151.05 1042.82 3149.07 1043.48 L3149.07 1040.36 Q3151.06 1039.8 3152.8 1039.52 Q3154.55 1039.25 3156.1 1039.25 Q3160.09 1039.25 3162.42 1041.07 Q3164.75 1042.87 3164.75 1045.96 Q3164.75 1048.12 3163.51 1049.61 Q3162.28 1051.09 3160.01 1051.66 Z" fill="#000000" fill-rule="nonzero" fill-opacity="1" /><path clip-path="url(#clip960)" d="M3175.02 1062.68 L3187.26 1062.68 L3187.26 1065.63 L3170.8 1065.63 L3170.8 1062.68 Q3172.8 1060.62 3176.24 1057.14 Q3179.69 1053.66 3180.58 1052.65 Q3182.26 1050.76 3182.92 1049.45 Q3183.6 1048.13 3183.6 1046.87 Q3183.6 1044.8 3182.14 1043.5 Q3180.7 1042.2 3178.37 1042.2 Q3176.72 1042.2 3174.88 1042.77 Q3173.06 1043.34 3170.98 1044.51 L3170.98 1040.96 Q3173.1 1040.11 3174.94 1039.68 Q3176.78 1039.25 3178.3 1039.25 Q3182.33 1039.25 3184.73 1041.26 Q3187.12 1043.27 3187.12 1046.64 Q3187.12 1048.24 3186.52 1049.68 Q3185.93 1051.1 3184.35 1053.05 Q3183.91 1053.55 3181.59 1055.96 Q3179.26 1058.36 3175.02 1062.68 Z" fill="#000000" fill-rule="nonzero" fill-opacity="1" /><path clip-path="url(#clip960)" d="M3202.56 1051.28 Q3200.2 1051.28 3198.81 1052.89 Q3197.44 1054.51 3197.44 1057.32 Q3197.44 1060.11 3198.81 1061.75 Q3200.2 1063.36 3202.56 1063.36 Q3204.92 1063.36 3206.29 1061.75 Q3207.68 1060.11 3207.68 1057.32 Q3207.68 1054.51 3206.29 1052.89 Q3204.92 1051.28 3202.56 1051.28 M3209.52 1040.29 L3209.52 1043.48 Q3208.2 1042.86 3206.85 1042.53 Q3205.51 1042.2 3204.19 1042.2 Q3200.72 1042.2 3198.88 1044.54 Q3197.05 1046.88 3196.79 1051.62 Q3197.82 1050.11 3199.36 1049.31 Q3200.91 1048.5 3202.77 1048.5 Q3206.67 1048.5 3208.93 1050.88 Q3211.2 1053.24 3211.2 1057.32 Q3211.2 1061.31 3208.84 1063.72 Q3206.48 1066.14 3202.56 1066.14 Q3198.06 1066.14 3195.68 1062.7 Q3193.3 1059.25 3193.3 1052.7 Q3193.3 1046.55 3196.22 1042.91 Q3199.14 1039.25 3204.05 1039.25 Q3205.37 1039.25 3206.71 1039.51 Q3208.06 1039.77 3209.52 1040.29 Z" fill="#000000" fill-rule="nonzero" fill-opacity="1" /></svg>
