<?xml version="1.0" encoding="UTF-8" standalone="no"?>
<svg
   width="900"
   height="500"
   viewBox="0 0 3600 2000"
   version="1.1"
   id="svg231"
   sodipodi:docname="losses_.svg"
   inkscape:export-filename="losses_.png"
   inkscape:export-xdpi="96"
   inkscape:export-ydpi="96"
   inkscape:version="1.2.2 (1:1.2.2+202212051552+b0a8486541)"
   xmlns:inkscape="http://www.inkscape.org/namespaces/inkscape"
   xmlns:sodipodi="http://sodipodi.sourceforge.net/DTD/sodipodi-0.dtd"
   xmlns="http://www.w3.org/2000/svg"
   xmlns:svg="http://www.w3.org/2000/svg">
  <sodipodi:namedview
     id="namedview233"
     pagecolor="#ffffff"
     bordercolor="#000000"
     borderopacity="0.25"
     inkscape:showpageshadow="2"
     inkscape:pageopacity="0.0"
     inkscape:pagecheckerboard="0"
     inkscape:deskcolor="#d1d1d1"
     showgrid="false"
     inkscape:zoom="0.78833333"
     inkscape:cx="363.42495"
     inkscape:cy="300"
     inkscape:window-width="1920"
     inkscape:window-height="1044"
     inkscape:window-x="0"
     inkscape:window-y="0"
     inkscape:window-maximized="1"
     inkscape:current-layer="svg231" />
  <defs
     id="defs5">
    <clipPath
       id="clip930">
      <rect
         x="0"
         y="0"
         width="3600"
         height="2000"
         id="rect2" />
    </clipPath>
  </defs>
  <path
     clip-path="url(#clip930)"
     d="M0 2000 L3600 2000 L3600 0 L0 0  Z"
     fill="#ffffff"
     fill-rule="evenodd"
     fill-opacity="1"
     id="path7" />
  <defs
     id="defs12">
    <clipPath
       id="clip931">
      <rect
         x="720"
         y="0"
         width="2521"
         height="2000"
         id="rect9" />
    </clipPath>
  </defs>
  <path
     clip-path="url(#clip930)"
     d="M262.185 1822.62 L3552.76 1822.62 L3552.76 113.392 L262.185 113.392  Z"
     fill="#ffffff"
     fill-rule="evenodd"
     fill-opacity="1"
     id="path14" />
  <defs
     id="defs19">
    <clipPath
       id="clip932">
      <rect
         x="262"
         y="113"
         width="3292"
         height="1710"
         id="rect16" />
    </clipPath>
  </defs>
  <polyline
     clip-path="url(#clip932)"
     style="stroke:#000000; stroke-linecap:round; stroke-linejoin:round; stroke-width:2; stroke-opacity:0.1; fill:none"
     points="355.315,1822.62 355.315,113.392 "
     id="polyline21" />
  <polyline
     clip-path="url(#clip932)"
     style="stroke:#000000; stroke-linecap:round; stroke-linejoin:round; stroke-width:2; stroke-opacity:0.1; fill:none"
     points="1502.21,1822.62 1502.21,113.392 "
     id="polyline23" />
  <polyline
     clip-path="url(#clip932)"
     style="stroke:#000000; stroke-linecap:round; stroke-linejoin:round; stroke-width:2; stroke-opacity:0.1; fill:none"
     points="2649.1,1822.62 2649.1,113.392 "
     id="polyline25" />
  <polyline
     clip-path="url(#clip930)"
     style="stroke:#000000; stroke-linecap:round; stroke-linejoin:round; stroke-width:4; stroke-opacity:1; fill:none"
     points="262.185,1822.62 3552.76,1822.62 "
     id="polyline27" />
  <polyline
     clip-path="url(#clip930)"
     style="stroke:#000000; stroke-linecap:round; stroke-linejoin:round; stroke-width:4; stroke-opacity:1; fill:none"
     points="355.315,1822.62 355.315,1803.73 "
     id="polyline29" />
  <polyline
     clip-path="url(#clip930)"
     style="stroke:#000000; stroke-linecap:round; stroke-linejoin:round; stroke-width:4; stroke-opacity:1; fill:none"
     points="1502.21,1822.62 1502.21,1803.73 "
     id="polyline31" />
  <polyline
     clip-path="url(#clip930)"
     style="stroke:#000000; stroke-linecap:round; stroke-linejoin:round; stroke-width:4; stroke-opacity:1; fill:none"
     points="2649.1,1822.62 2649.1,1803.73 "
     id="polyline33" />
  <path
     clip-path="url(#clip930)"
     d="M320.298 1906.35 L327.936 1906.35 L327.936 1879.98 L319.626 1881.65 L319.626 1877.39 L327.89 1875.72 L332.566 1875.72 L332.566 1906.35 L340.205 1906.35 L340.205 1910.28 L320.298 1910.28 L320.298 1906.35 Z"
     fill="#000000"
     fill-rule="nonzero"
     fill-opacity="1"
     id="path35" />
  <path
     clip-path="url(#clip930)"
     d="M359.649 1878.8 Q356.038 1878.8 354.209 1882.37 Q352.404 1885.91 352.404 1893.04 Q352.404 1900.15 354.209 1903.71 Q356.038 1907.25 359.649 1907.25 Q363.283 1907.25 365.089 1903.71 Q366.918 1900.15 366.918 1893.04 Q366.918 1885.91 365.089 1882.37 Q363.283 1878.8 359.649 1878.8 M359.649 1875.1 Q365.459 1875.1 368.515 1879.71 Q371.594 1884.29 371.594 1893.04 Q371.594 1901.77 368.515 1906.37 Q365.459 1910.96 359.649 1910.96 Q353.839 1910.96 350.76 1906.37 Q347.705 1901.77 347.705 1893.04 Q347.705 1884.29 350.76 1879.71 Q353.839 1875.1 359.649 1875.1 Z"
     fill="#000000"
     fill-rule="nonzero"
     fill-opacity="1"
     id="path37" />
  <path
     clip-path="url(#clip930)"
     d="M381.298 1857.29 Q378.364 1857.29 376.879 1860.19 Q375.412 1863.07 375.412 1868.86 Q375.412 1874.64 376.879 1877.53 Q378.364 1880.41 381.298 1880.41 Q384.251 1880.41 385.718 1877.53 Q387.204 1874.64 387.204 1868.86 Q387.204 1863.07 385.718 1860.19 Q384.251 1857.29 381.298 1857.29 M381.298 1854.29 Q386.019 1854.29 388.502 1858.03 Q391.003 1861.75 391.003 1868.86 Q391.003 1875.95 388.502 1879.69 Q386.019 1883.42 381.298 1883.42 Q376.578 1883.42 374.076 1879.69 Q371.594 1875.95 371.594 1868.86 Q371.594 1861.75 374.076 1858.03 Q376.578 1854.29 381.298 1854.29 Z"
     fill="#000000"
     fill-rule="nonzero"
     fill-opacity="1"
     id="path39" />
  <path
     clip-path="url(#clip930)"
     d="M1468.53 1906.35 L1476.17 1906.35 L1476.17 1879.98 L1467.86 1881.65 L1467.86 1877.39 L1476.13 1875.72 L1480.8 1875.72 L1480.8 1906.35 L1488.44 1906.35 L1488.44 1910.28 L1468.53 1910.28 L1468.53 1906.35 Z"
     fill="#000000"
     fill-rule="nonzero"
     fill-opacity="1"
     id="path41" />
  <path
     clip-path="url(#clip930)"
     d="M1507.89 1878.8 Q1504.27 1878.8 1502.45 1882.37 Q1500.64 1885.91 1500.64 1893.04 Q1500.64 1900.15 1502.45 1903.71 Q1504.27 1907.25 1507.89 1907.25 Q1511.52 1907.25 1513.33 1903.71 Q1515.15 1900.15 1515.15 1893.04 Q1515.15 1885.91 1513.33 1882.37 Q1511.52 1878.8 1507.89 1878.8 M1507.89 1875.1 Q1513.7 1875.1 1516.75 1879.71 Q1519.83 1884.29 1519.83 1893.04 Q1519.83 1901.77 1516.75 1906.37 Q1513.7 1910.96 1507.89 1910.96 Q1502.08 1910.96 1499 1906.37 Q1495.94 1901.77 1495.94 1893.04 Q1495.94 1884.29 1499 1879.71 Q1502.08 1875.1 1507.89 1875.1 Z"
     fill="#000000"
     fill-rule="nonzero"
     fill-opacity="1"
     id="path43" />
  <path
     clip-path="url(#clip930)"
     d="M1520.38 1879.68 L1526.58 1879.68 L1526.58 1858.25 L1519.83 1859.61 L1519.83 1856.15 L1526.54 1854.79 L1530.34 1854.79 L1530.34 1879.68 L1536.55 1879.68 L1536.55 1882.87 L1520.38 1882.87 L1520.38 1879.68 Z"
     fill="#000000"
     fill-rule="nonzero"
     fill-opacity="1"
     id="path45" />
  <path
     clip-path="url(#clip930)"
     d="M2614.87 1906.35 L2622.51 1906.35 L2622.51 1879.98 L2614.2 1881.65 L2614.2 1877.39 L2622.46 1875.72 L2627.14 1875.72 L2627.14 1906.35 L2634.78 1906.35 L2634.78 1910.28 L2614.87 1910.28 L2614.87 1906.35 Z"
     fill="#000000"
     fill-rule="nonzero"
     fill-opacity="1"
     id="path47" />
  <path
     clip-path="url(#clip930)"
     d="M2654.22 1878.8 Q2650.61 1878.8 2648.78 1882.37 Q2646.98 1885.91 2646.98 1893.04 Q2646.98 1900.15 2648.78 1903.71 Q2650.61 1907.25 2654.22 1907.25 Q2657.86 1907.25 2659.66 1903.71 Q2661.49 1900.15 2661.49 1893.04 Q2661.49 1885.91 2659.66 1882.37 Q2657.86 1878.8 2654.22 1878.8 M2654.22 1875.1 Q2660.03 1875.1 2663.09 1879.71 Q2666.17 1884.29 2666.17 1893.04 Q2666.17 1901.77 2663.09 1906.37 Q2660.03 1910.96 2654.22 1910.96 Q2648.41 1910.96 2645.33 1906.37 Q2642.28 1901.77 2642.28 1893.04 Q2642.28 1884.29 2645.33 1879.71 Q2648.41 1875.1 2654.22 1875.1 Z"
     fill="#000000"
     fill-rule="nonzero"
     fill-opacity="1"
     id="path49" />
  <path
     clip-path="url(#clip930)"
     d="M2670.74 1879.68 L2684 1879.68 L2684 1882.87 L2666.17 1882.87 L2666.17 1879.68 Q2668.33 1877.44 2672.05 1873.68 Q2675.8 1869.9 2676.76 1868.81 Q2678.58 1866.76 2679.29 1865.34 Q2680.03 1863.92 2680.03 1862.54 Q2680.03 1860.3 2678.45 1858.89 Q2676.89 1857.48 2674.37 1857.48 Q2672.58 1857.48 2670.59 1858.1 Q2668.61 1858.72 2666.35 1859.98 L2666.35 1856.15 Q2668.65 1855.23 2670.64 1854.76 Q2672.64 1854.29 2674.29 1854.29 Q2678.66 1854.29 2681.25 1856.47 Q2683.85 1858.65 2683.85 1862.3 Q2683.85 1864.03 2683.19 1865.59 Q2682.55 1867.13 2680.84 1869.24 Q2680.37 1869.78 2677.85 1872.4 Q2675.33 1874.99 2670.74 1879.68 Z"
     fill="#000000"
     fill-rule="nonzero"
     fill-opacity="1"
     id="path51" />
  <polyline
     clip-path="url(#clip932)"
     style="stroke:#000000; stroke-linecap:round; stroke-linejoin:round; stroke-width:2; stroke-opacity:0.1; fill:none"
     points="262.185,1779.36 3552.76,1779.36 "
     id="polyline73" />
  <polyline
     clip-path="url(#clip932)"
     style="stroke:#000000; stroke-linecap:round; stroke-linejoin:round; stroke-width:2; stroke-opacity:0.1; fill:none"
     points="262.185,673.602 3552.76,673.602 "
     id="polyline75" />
  <polyline
     clip-path="url(#clip930)"
     style="stroke:#000000; stroke-linecap:round; stroke-linejoin:round; stroke-width:4; stroke-opacity:1; fill:none"
     points="262.185,1822.62 262.185,113.392 "
     id="polyline77" />
  <polyline
     clip-path="url(#clip930)"
     style="stroke:#000000; stroke-linecap:round; stroke-linejoin:round; stroke-width:4; stroke-opacity:1; fill:none"
     points="262.185,1779.36 281.083,1779.36 "
     id="polyline79" />
  <polyline
     clip-path="url(#clip930)"
     style="stroke:#000000; stroke-linecap:round; stroke-linejoin:round; stroke-width:4; stroke-opacity:1; fill:none"
     points="262.185,673.602 281.083,673.602 "
     id="polyline81" />
  <path
     clip-path="url(#clip930)"
     d="M103.231 1799.16 L110.87 1799.16 L110.87 1772.79 L102.559 1774.46 L102.559 1770.2 L110.823 1768.53 L115.499 1768.53 L115.499 1799.16 L123.138 1799.16 L123.138 1803.09 L103.231 1803.09 L103.231 1799.16 Z"
     fill="#000000"
     fill-rule="nonzero"
     fill-opacity="1"
     id="path83" />
  <path
     clip-path="url(#clip930)"
     d="M142.582 1771.61 Q138.971 1771.61 137.143 1775.17 Q135.337 1778.72 135.337 1785.85 Q135.337 1792.95 137.143 1796.52 Q138.971 1800.06 142.582 1800.06 Q146.217 1800.06 148.022 1796.52 Q149.851 1792.95 149.851 1785.85 Q149.851 1778.72 148.022 1775.17 Q146.217 1771.61 142.582 1771.61 M142.582 1767.91 Q148.393 1767.91 151.448 1772.51 Q154.527 1777.1 154.527 1785.85 Q154.527 1794.57 151.448 1799.18 Q148.393 1803.76 142.582 1803.76 Q136.772 1803.76 133.694 1799.18 Q130.638 1794.57 130.638 1785.85 Q130.638 1777.1 133.694 1772.51 Q136.772 1767.91 142.582 1767.91 Z"
     fill="#000000"
     fill-rule="nonzero"
     fill-opacity="1"
     id="path85" />
  <path
     clip-path="url(#clip930)"
     d="M155.072 1772.48 L161.279 1772.48 L161.279 1751.06 L154.527 1752.41 L154.527 1748.95 L161.241 1747.6 L165.04 1747.6 L165.04 1772.48 L171.247 1772.48 L171.247 1775.68 L155.072 1775.68 L155.072 1772.48 Z"
     fill="#000000"
     fill-rule="nonzero"
     fill-opacity="1"
     id="path87" />
  <path
     clip-path="url(#clip930)"
     d="M178.92 1770.9 L182.889 1770.9 L182.889 1775.68 L178.92 1775.68 L178.92 1770.9 Z"
     fill="#000000"
     fill-rule="nonzero"
     fill-opacity="1"
     id="path89" />
  <path
     clip-path="url(#clip930)"
     d="M191.202 1747.6 L206.117 1747.6 L206.117 1750.8 L194.681 1750.8 L194.681 1757.68 Q195.509 1757.4 196.336 1757.27 Q197.164 1757.12 197.992 1757.12 Q202.693 1757.12 205.439 1759.69 Q208.185 1762.27 208.185 1766.67 Q208.185 1771.2 205.364 1773.72 Q202.543 1776.23 197.409 1776.23 Q195.641 1776.23 193.797 1775.92 Q191.973 1775.62 190.017 1775.02 L190.017 1771.2 Q191.71 1772.13 193.515 1772.58 Q195.321 1773.03 197.333 1773.03 Q200.587 1773.03 202.487 1771.32 Q204.386 1769.61 204.386 1766.67 Q204.386 1763.74 202.487 1762.03 Q200.587 1760.31 197.333 1760.31 Q195.81 1760.31 194.286 1760.65 Q192.782 1760.99 191.202 1761.71 L191.202 1747.6 Z"
     fill="#000000"
     fill-rule="nonzero"
     fill-opacity="1"
     id="path91" />
  <path
     clip-path="url(#clip930)"
     d="M101.011 693.395 L108.65 693.395 L108.65 667.029 L100.34 668.696 L100.34 664.437 L108.604 662.77 L113.28 662.77 L113.28 693.395 L120.919 693.395 L120.919 697.33 L101.011 697.33 L101.011 693.395 Z"
     fill="#000000"
     fill-rule="nonzero"
     fill-opacity="1"
     id="path93" />
  <path
     clip-path="url(#clip930)"
     d="M140.363 665.849 Q136.752 665.849 134.923 669.413 Q133.118 672.955 133.118 680.085 Q133.118 687.191 134.923 690.756 Q136.752 694.298 140.363 694.298 Q143.997 694.298 145.803 690.756 Q147.632 687.191 147.632 680.085 Q147.632 672.955 145.803 669.413 Q143.997 665.849 140.363 665.849 M140.363 662.145 Q146.173 662.145 149.229 666.751 Q152.307 671.335 152.307 680.085 Q152.307 688.811 149.229 693.418 Q146.173 698.001 140.363 698.001 Q134.553 698.001 131.474 693.418 Q128.419 688.811 128.419 680.085 Q128.419 671.335 131.474 666.751 Q134.553 662.145 140.363 662.145 Z"
     fill="#000000"
     fill-rule="nonzero"
     fill-opacity="1"
     id="path95" />
  <path
     clip-path="url(#clip930)"
     d="M156.878 666.722 L170.137 666.722 L170.137 669.92 L152.307 669.92 L152.307 666.722 Q154.47 664.484 158.194 660.723 Q161.937 656.942 162.896 655.851 Q164.721 653.801 165.435 652.391 Q166.169 650.961 166.169 649.588 Q166.169 647.35 164.589 645.94 Q163.028 644.529 160.508 644.529 Q158.721 644.529 156.727 645.15 Q154.752 645.77 152.496 647.03 L152.496 643.194 Q154.79 642.272 156.784 641.802 Q158.777 641.332 160.432 641.332 Q164.796 641.332 167.391 643.513 Q169.987 645.695 169.987 649.344 Q169.987 651.074 169.329 652.635 Q168.689 654.177 166.978 656.284 Q166.507 656.829 163.987 659.444 Q161.467 662.039 156.878 666.722 Z"
     fill="#000000"
     fill-rule="nonzero"
     fill-opacity="1"
     id="path97" />
  <path
     clip-path="url(#clip930)"
     d="M178.112 665.142 L182.08 665.142 L182.08 669.92 L178.112 669.92 L178.112 665.142 Z"
     fill="#000000"
     fill-rule="nonzero"
     fill-opacity="1"
     id="path99" />
  <path
     clip-path="url(#clip930)"
     d="M198.481 644.341 Q195.547 644.341 194.061 647.237 Q192.594 650.115 192.594 655.908 Q192.594 661.682 194.061 664.578 Q195.547 667.456 198.481 667.456 Q201.433 667.456 202.9 664.578 Q204.386 661.682 204.386 655.908 Q204.386 650.115 202.9 647.237 Q201.433 644.341 198.481 644.341 M198.481 641.332 Q203.201 641.332 205.684 645.074 Q208.185 648.798 208.185 655.908 Q208.185 662.998 205.684 666.741 Q203.201 670.465 198.481 670.465 Q193.76 670.465 191.258 666.741 Q188.776 662.998 188.776 655.908 Q188.776 648.798 191.258 645.074 Q193.76 641.332 198.481 641.332 Z"
     fill="#000000"
     fill-rule="nonzero"
     fill-opacity="1"
     id="path101" />
  <path
     clip-path="url(#clip930)"
     d="M1634.46 12.096 L1642.64 12.096 L1642.64 65.6895 L1672.09 65.6895 L1672.09 72.576 L1634.46 72.576 L1634.46 12.096 Z"
     fill="#000000"
     fill-rule="nonzero"
     fill-opacity="1"
     id="path111" />
  <path
     clip-path="url(#clip930)"
     d="M1696.48 32.4315 Q1690.48 32.4315 1687 37.1306 Q1683.52 41.7891 1683.52 49.9314 Q1683.52 58.0738 1686.96 62.7728 Q1690.44 67.4314 1696.48 67.4314 Q1702.43 67.4314 1705.92 62.7323 Q1709.4 58.0333 1709.4 49.9314 Q1709.4 41.8701 1705.92 37.1711 Q1702.43 32.4315 1696.48 32.4315 M1696.48 26.1121 Q1706.2 26.1121 1711.75 32.4315 Q1717.3 38.7509 1717.3 49.9314 Q1717.3 61.0714 1711.75 67.4314 Q1706.2 73.7508 1696.48 73.7508 Q1686.72 73.7508 1681.17 67.4314 Q1675.66 61.0714 1675.66 49.9314 Q1675.66 38.7509 1681.17 32.4315 Q1686.72 26.1121 1696.48 26.1121 Z"
     fill="#000000"
     fill-rule="nonzero"
     fill-opacity="1"
     id="path113" />
  <path
     clip-path="url(#clip930)"
     d="M1758.58 28.5427 L1758.58 35.5912 Q1755.42 33.9709 1752.02 33.1607 Q1748.61 32.3505 1744.97 32.3505 Q1739.42 32.3505 1736.62 34.0519 Q1733.87 35.7533 1733.87 39.156 Q1733.87 41.7486 1735.85 43.2475 Q1737.84 44.7058 1743.83 46.0426 L1746.39 46.6097 Q1754.33 48.3111 1757.65 51.4303 Q1761.01 54.509 1761.01 60.0587 Q1761.01 66.3781 1755.99 70.0644 Q1751 73.7508 1742.25 73.7508 Q1738.61 73.7508 1734.64 73.0216 Q1730.71 72.3329 1726.33 70.9151 L1726.33 63.2184 Q1730.47 65.3654 1734.48 66.4591 Q1738.49 67.5124 1742.42 67.5124 Q1747.68 67.5124 1750.52 65.73 Q1753.35 63.9071 1753.35 60.6258 Q1753.35 57.5877 1751.29 55.9673 Q1749.26 54.3469 1742.34 52.8481 L1739.74 52.2405 Q1732.82 50.7821 1729.74 47.7845 Q1726.66 44.7463 1726.66 39.4801 Q1726.66 33.0797 1731.2 29.5959 Q1735.73 26.1121 1744.08 26.1121 Q1748.21 26.1121 1751.86 26.7198 Q1755.5 27.3274 1758.58 28.5427 Z"
     fill="#000000"
     fill-rule="nonzero"
     fill-opacity="1"
     id="path115" />
  <path
     clip-path="url(#clip930)"
     d="M1801.8 28.5427 L1801.8 35.5912 Q1798.64 33.9709 1795.24 33.1607 Q1791.84 32.3505 1788.19 32.3505 Q1782.64 32.3505 1779.85 34.0519 Q1777.09 35.7533 1777.09 39.156 Q1777.09 41.7486 1779.08 43.2475 Q1781.06 44.7058 1787.06 46.0426 L1789.61 46.6097 Q1797.55 48.3111 1800.87 51.4303 Q1804.23 54.509 1804.23 60.0587 Q1804.23 66.3781 1799.21 70.0644 Q1794.23 73.7508 1785.48 73.7508 Q1781.83 73.7508 1777.86 73.0216 Q1773.93 72.3329 1769.56 70.9151 L1769.56 63.2184 Q1773.69 65.3654 1777.7 66.4591 Q1781.71 67.5124 1785.64 67.5124 Q1790.91 67.5124 1793.74 65.73 Q1796.58 63.9071 1796.58 60.6258 Q1796.58 57.5877 1794.51 55.9673 Q1792.49 54.3469 1785.56 52.8481 L1782.97 52.2405 Q1776.04 50.7821 1772.96 47.7845 Q1769.88 44.7463 1769.88 39.4801 Q1769.88 33.0797 1774.42 29.5959 Q1778.96 26.1121 1787.3 26.1121 Q1791.43 26.1121 1795.08 26.7198 Q1798.72 27.3274 1801.8 28.5427 Z"
     fill="#000000"
     fill-rule="nonzero"
     fill-opacity="1"
     id="path117" />
  <path
     clip-path="url(#clip930)"
     d="M1842.8 12.096 L1877.55 12.096 L1877.55 18.9825 L1850.98 18.9825 L1850.98 36.8065 L1874.96 36.8065 L1874.96 43.6931 L1850.98 43.6931 L1850.98 72.576 L1842.8 72.576 L1842.8 12.096 Z"
     fill="#000000"
     fill-rule="nonzero"
     fill-opacity="1"
     id="path119" />
  <path
     clip-path="url(#clip930)"
     d="M1884.89 54.671 L1884.89 27.2059 L1892.34 27.2059 L1892.34 54.3874 Q1892.34 60.8284 1894.85 64.0691 Q1897.36 67.2693 1902.39 67.2693 Q1908.42 67.2693 1911.91 63.421 Q1915.43 59.5726 1915.43 52.9291 L1915.43 27.2059 L1922.88 27.2059 L1922.88 72.576 L1915.43 72.576 L1915.43 65.6084 Q1912.72 69.7404 1909.11 71.7658 Q1905.55 73.7508 1900.81 73.7508 Q1892.99 73.7508 1888.94 68.8897 Q1884.89 64.0286 1884.89 54.671 M1903.64 26.1121 L1903.64 26.1121 Z"
     fill="#000000"
     fill-rule="nonzero"
     fill-opacity="1"
     id="path121" />
  <path
     clip-path="url(#clip930)"
     d="M1975.95 45.1919 L1975.95 72.576 L1968.5 72.576 L1968.5 45.4349 Q1968.5 38.994 1965.99 35.7938 Q1963.47 32.5936 1958.45 32.5936 Q1952.42 32.5936 1948.93 36.4419 Q1945.45 40.2903 1945.45 46.9338 L1945.45 72.576 L1937.95 72.576 L1937.95 27.2059 L1945.45 27.2059 L1945.45 34.2544 Q1948.12 30.163 1951.73 28.1376 Q1955.37 26.1121 1960.11 26.1121 Q1967.93 26.1121 1971.94 30.9732 Q1975.95 35.7938 1975.95 45.1919 Z"
     fill="#000000"
     fill-rule="nonzero"
     fill-opacity="1"
     id="path123" />
  <path
     clip-path="url(#clip930)"
     d="M2023.47 28.9478 L2023.47 35.9153 Q2020.31 34.1734 2017.11 33.3227 Q2013.95 32.4315 2010.71 32.4315 Q2003.46 32.4315 1999.45 37.0496 Q1995.44 41.6271 1995.44 49.9314 Q1995.44 58.2358 1999.45 62.8538 Q2003.46 67.4314 2010.71 67.4314 Q2013.95 67.4314 2017.11 66.5807 Q2020.31 65.6895 2023.47 63.9476 L2023.47 70.8341 Q2020.35 72.2924 2016.99 73.0216 Q2013.67 73.7508 2009.9 73.7508 Q1999.65 73.7508 1993.61 67.3098 Q1987.58 60.8689 1987.58 49.9314 Q1987.58 38.832 1993.65 32.472 Q1999.77 26.1121 2010.38 26.1121 Q2013.83 26.1121 2017.11 26.8413 Q2020.39 27.5299 2023.47 28.9478 Z"
     fill="#000000"
     fill-rule="nonzero"
     fill-opacity="1"
     id="path125" />
  <path
     clip-path="url(#clip930)"
     d="M2043.8 14.324 L2043.8 27.2059 L2059.16 27.2059 L2059.16 32.9987 L2043.8 32.9987 L2043.8 57.6282 Q2043.8 63.1779 2045.3 64.7578 Q2046.84 66.3376 2051.5 66.3376 L2059.16 66.3376 L2059.16 72.576 L2051.5 72.576 Q2042.87 72.576 2039.59 69.3758 Q2036.31 66.1351 2036.31 57.6282 L2036.31 32.9987 L2030.84 32.9987 L2030.84 27.2059 L2036.31 27.2059 L2036.31 14.324 L2043.8 14.324 Z"
     fill="#000000"
     fill-rule="nonzero"
     fill-opacity="1"
     id="path127" />
  <path
     clip-path="url(#clip930)"
     d="M2068.96 27.2059 L2076.41 27.2059 L2076.41 72.576 L2068.96 72.576 L2068.96 27.2059 M2068.96 9.54393 L2076.41 9.54393 L2076.41 18.9825 L2068.96 18.9825 L2068.96 9.54393 Z"
     fill="#000000"
     fill-rule="nonzero"
     fill-opacity="1"
     id="path129" />
  <path
     clip-path="url(#clip930)"
     d="M2109.59 32.4315 Q2103.6 32.4315 2100.11 37.1306 Q2096.63 41.7891 2096.63 49.9314 Q2096.63 58.0738 2100.07 62.7728 Q2103.55 67.4314 2109.59 67.4314 Q2115.55 67.4314 2119.03 62.7323 Q2122.51 58.0333 2122.51 49.9314 Q2122.51 41.8701 2119.03 37.1711 Q2115.55 32.4315 2109.59 32.4315 M2109.59 26.1121 Q2119.31 26.1121 2124.86 32.4315 Q2130.41 38.7509 2130.41 49.9314 Q2130.41 61.0714 2124.86 67.4314 Q2119.31 73.7508 2109.59 73.7508 Q2099.83 73.7508 2094.28 67.4314 Q2088.77 61.0714 2088.77 49.9314 Q2088.77 38.7509 2094.28 32.4315 Q2099.83 26.1121 2109.59 26.1121 Z"
     fill="#000000"
     fill-rule="nonzero"
     fill-opacity="1"
     id="path131" />
  <path
     clip-path="url(#clip930)"
     d="M2180.48 45.1919 L2180.48 72.576 L2173.03 72.576 L2173.03 45.4349 Q2173.03 38.994 2170.52 35.7938 Q2168 32.5936 2162.98 32.5936 Q2156.95 32.5936 2153.46 36.4419 Q2149.98 40.2903 2149.98 46.9338 L2149.98 72.576 L2142.48 72.576 L2142.48 27.2059 L2149.98 27.2059 L2149.98 34.2544 Q2152.65 30.163 2156.26 28.1376 Q2159.9 26.1121 2164.64 26.1121 Q2172.46 26.1121 2176.47 30.9732 Q2180.48 35.7938 2180.48 45.1919 Z"
     fill="#000000"
     fill-rule="nonzero"
     fill-opacity="1"
     id="path133" />
  <polyline
     clip-path="url(#clip932)"
     style="stroke:#ff0000; stroke-linecap:round; stroke-linejoin:round; stroke-width:4; stroke-opacity:1; fill:none"
     points="355.315,212.593 700.563,596.323 902.521,318.343 1045.81,567.396 1156.96,752.392 1247.77,761.33 1324.55,747.732 1391.06,785.351 1449.73,865.203 1502.21,963.191 1549.68,1027.25 1593.02,953.202 1632.89,916.52 1669.8,988.431 1704.16,1051.09 1736.31,1059.75 1766.51,1053.47 1794.98,1055.84 1821.91,1078.73 1847.46,1110.79 1871.76,1111.42 1894.93,1089.34 1917.07,1089.14 1938.27,1116.33 1958.6,1139.09 1978.14,1149.25 1996.93,1145.21 2015.05,1146.17 2032.53,1153.53 2049.41,1156.01 2065.74,1154.13 2081.56,1150.1 2096.89,1147.95 2111.75,1147.87 2126.19,1148.75 2140.22,1151.56 2153.87,1157.94 2167.16,1162.96 2180.09,1161.13 2192.7,1159.6 2205,1165.03 2217.01,1171.21 2228.73,1170.32 2240.18,1170.57 2251.37,1174.75 2262.32,1179.17 2273.03,1175.67 2283.52,1172.13 2293.79,1174.11 2303.85,1176.48 2313.71,1174.42 2323.38,1173.52 2332.87,1176.81 2342.18,1178.57 2351.32,1177.82 2360.3,1179.23 2369.11,1180.8 2377.78,1179.92 2386.29,1179.51 2394.66,1180.5 2402.89,1180.02 2410.99,1179.45 2418.96,1180.68 2426.81,1180.95 2434.53,1180.53 2442.13,1181 2449.62,1181.58 2457,1181.28 2464.28,1181.16 2471.44,1181.6 2478.51,1181.42 2485.47,1181.14 2492.34,1181.37 2499.12,1181.49 2505.81,1181.38 2512.4,1181.58 2518.92,1181.79 2525.34,1181.67 2531.69,1181.7 2537.95,1181.8 2544.14,1181.64 2550.25,1181.59 2556.29,1181.72 2562.25,1181.7 2568.15,1181.71 2573.97,1181.87 2579.73,1181.87 2585.43,1181.8 2591.05,1181.84 2596.62,1181.85 2602.12,1181.79 2607.57,1181.86 2612.95,1181.88 2618.28,1181.84 2623.55,1181.88 2628.76,1181.91 2633.93,1181.89 2639.04,1181.92 2644.09,1181.94 2649.1,1181.92 2654.05,1181.92 2658.96,1181.93 2663.82,1181.92 2668.63,1181.92 2673.4,1181.95 2678.12,1181.94 2682.8,1181.94 2687.43,1181.95 2692.02,1181.95 2696.57,1181.94 2701.08,1181.95 2705.55,1181.95 2709.97,1181.95 2714.36,1181.96 2718.71,1181.96 2723.02,1181.96 2727.3,1181.96 2731.54,1181.96 2735.74,1181.96 2739.91,1181.96 2744.04,1181.96 2748.14,1181.96 2752.21,1181.97 2756.24,1181.96 2760.24,1181.97 2764.21,1181.97 2768.15,1181.97 2772.06,1181.97 2775.93,1181.97 2779.78,1181.97 2783.6,1181.97 2787.38,1181.97 2791.14,1181.97 2794.87,1181.98 2798.58,1181.98 2802.25,1181.98 2805.9,1181.98 2809.52,1181.98 2813.12,1181.98 2816.69,1181.98 2820.24,1181.98 2823.76,1181.98 2827.25,1181.99 2830.72,1181.99 2834.17,1181.98 2837.59,1181.99 2840.99,1181.99 2844.37,1181.99 2847.72,1181.99 2851.06,1181.99 2854.37,1181.99 2857.65,1181.99 2860.92,1182 2864.16,1173.52 2867.39,972.111 2870.59,1150.01 2873.77,1123.09 2876.94,1075.05 2880.08,1080.12 2883.2,1130.63 2886.3,1167.83 2889.39,1156.48 2892.45,1134.88 2895.5,1149.42 2898.53,1185.51 2901.54,1189.95 2904.53,1186.49 2907.5,1199.16 2910.46,1225.67 2913.4,1259.91 2916.32,1306.37 2919.22,1304.91 2922.11,1322.3 2924.98,1356.64 2927.84,1368.21 2930.67,1431.72 2933.5,1330.54 2936.3,1208.75 2939.09,1343.55 2941.87,1365.56 2944.63,1344.31 2947.37,1421.01 2950.1,1429.39 2952.82,1424.7 2955.51,1486.53 2958.2,1451.4 2960.87,1493.78 2963.53,1475.12 2966.17,1499.58 2968.8,1499.97 2971.41,1528.8 2974.01,1557.48 2976.6,1559.25 2979.18,1550.93 2981.74,1565.94 2984.28,1581.12 2986.82,1581.48 2989.34,1575.54 2991.85,1579.59 2994.35,1586.15 2996.83,1595.25 2999.3,1601.74 3001.76,1607.13 3004.21,1609.46 3006.65,1617.6 3009.07,1622.71 3011.48,1615.81 3013.88,1629.11 3016.27,1631.58 3018.65,1623.59 3021.01,1645.81 3023.37,1638.73 3025.71,1635.59 3028.05,1644.36 3030.37,1649.34 3032.68,1665.46 3034.98,1662.96 3037.27,1672.46 3039.55,1676.07 3041.82,1680.34 3044.08,1669.36 3046.33,1601.95 3048.57,1609.53 3050.79,1593.15 3053.01,1611.72 3055.22,1601.13 3057.42,1646.2 3059.61,1655.33 3061.79,1655.58 3063.96,1642.76 3066.12,1553.51 3068.27,1448.81 3070.42,1429.34 3072.55,1392.27 3074.67,1434.58 3076.79,1473.09 3078.89,1462.27 3080.99,1453.44 3083.08,1463.27 3085.16,1460.34 3087.23,1492.59 3089.29,1530.92 3091.35,1525.12 3093.39,1518.61 3095.43,1522.31 3097.46,1513.23 3099.48,1542.12 3101.49,1553.95 3103.5,1558.88 3105.49,1546.33 3107.48,1547.23 3109.46,1565.79 3111.43,1578.42 3113.4,1585.47 3115.36,1589.38 3117.3,1587.39 3119.25,1596.93 3121.18,1600.58 3123.11,1615.17 3125.03,1617.66 3126.94,1616.65 3128.84,1608.7 3130.74,1624.45 3132.63,1614.17 3134.52,1632.35 3136.39,1625.97 3138.26,1634.9 3140.12,1631.61 3141.98,1645.28 3143.83,1643.78 3145.67,1639.96 3147.5,1654.7 3149.33,1654.61 3151.15,1653.72 3152.96,1662.35 3154.77,1668.72 3156.57,1666.28 3158.37,1676.04 3160.16,1679.4 3161.94,1678.55 3163.72,1685.17 3165.48,1683.72 3167.25,1676.98 3169,1668.46 3170.76,1665.65 3172.5,1683.07 3174.24,1656.52 3175.97,1683.48 3177.7,1695.54 3179.42,1702.85 3181.13,1736.83 3182.84,1152.32 3184.54,1314.31 3186.24,1281.84 3187.93,1390.64 3189.62,1288.83 3191.3,1396.57 3192.97,1532.98 3194.64,1469.76 3196.3,1435.81 3197.96,1460.59 3199.61,1447.52 3201.26,1468.64 3202.9,1549.71 3204.54,1540.13 3206.17,1518.25 3207.79,1524.48 3209.41,1507.25 3211.03,1507.31 3212.64,1559.65 3214.24,1567.43 3215.84,1577.4 3217.43,1582.62 3219.02,1551.91 3220.61,1567.98 3222.18,1585.43 3223.76,1582.2 3225.33,1596.97 3226.89,1596.88 3228.45,1586.58 3230,1596.74 3231.55,1593.66 3233.1,1598.24 3234.64,1606.14 3236.17,1607.74 3237.7,1604.42 3239.23,1617.52 3240.75,1607.19 3242.27,1618.53 3243.78,1611.18 3245.28,1619.07 3246.79,1620.33 3248.28,1626.41 3249.78,1625.61 3251.27,1624.55 3252.75,1631.05 3254.23,1625.57 3255.71,1631.3 3257.18,1630.7 3258.65,1635.42 3260.11,1635.94 3261.57,1638.9 3263.02,1640.19 3264.47,1643.12 3265.92,1645.52 3267.36,1647.93 3268.8,1653.73 3270.23,1651.3 3271.66,1658.46 3273.08,1659.48 3274.51,1660.25 3275.92,1671.28 3277.34,1666.99 3278.75,1676.65 3280.15,1681.45 3281.55,1677.2 3282.95,1686.71 3284.34,1694.45 3285.73,1695.51 3287.12,1688.29 3288.5,1683.22 3289.88,1702.52 3291.25,1701.35 3292.62,1692.12 3293.99,1709.71 3295.35,1698.23 3296.71,1689.67 3298.06,1713.5 3299.42,1679.5 3300.76,1701.78 3302.11,1709.07 3303.45,1690.52 3304.79,1720.21 3306.12,1711.27 3307.45,1723.01 3308.78,1729.86 3310.1,1726.5 3311.42,1735.19 3312.73,1730.26 3314.05,1717.34 3315.36,1737.91 3316.66,1731.64 3317.96,1712.82 3319.26,1740.54 3320.56,1713.48 3321.85,1713.34 3323.14,1730.5 3324.42,1712.89 3325.71,1738.21 3326.98,1742.88 3328.26,1724.78 3329.53,1748.25 3330.8,1758.87 3332.07,1734.6 3333.33,1723.55 3334.59,1758.42 3335.85,1738.49 3337.1,1719.42 3338.35,1740.47 3339.6,1747.99 3340.84,1738.58 3342.08,1750.52 3343.32,1774.25 3344.55,1770.24 3345.78,1770.76 3347.01,1772.02 3348.24,1540.13 3349.46,1547.82 3350.68,1554.2 3351.89,1558.7 3353.11,1562.42 3354.32,1565.64 3355.53,1568.22 3356.73,1570.52 3357.93,1572.72 3359.13,1574.82 3360.33,1576.83 3361.52,1578.85 3362.71,1580.85 3363.9,1582.84 3365.08,1584.76 3366.26,1586.58 3367.44,1588.25 3368.62,1589.6 3369.79,1590.7 3370.96,1591.55 3372.13,1592.19 3373.3,1592.61 3374.46,1592.91 3375.62,1593.18 3376.77,1593.55 3377.93,1594.04 3379.08,1594.62 3380.23,1595.23 3381.38,1595.79 3382.52,1596.31 3383.66,1596.8 3384.8,1597.29 3385.94,1597.8 3387.07,1598.37 3388.2,1599 3389.33,1599.69 3390.45,1600.38 3391.58,1601.01 3392.7,1601.57 3393.81,1602.06 3394.93,1602.53 3396.04,1602.98 3397.15,1603.43 3398.26,1603.88 3399.37,1604.36 3400.47,1604.84 3401.57,1605.33 3402.67,1605.83 3403.77,1606.33 3404.86,1606.84 3405.95,1607.37 3407.04,1607.91 3408.13,1608.45 3409.21,1608.99 3410.29,1609.51 3411.37,1610.02 3412.45,1610.53 3413.52,1611.05 3414.59,1611.58 3415.66,1612.13 3416.73,1612.68 3417.8,1613.25 3418.86,1613.82 3419.92,1614.4 3420.98,1614.99 3422.04,1615.6 3423.09,1616.22 3424.14,1616.84 3425.19,1617.47 3426.24,1618.11 3427.28,1618.76 3428.33,1619.41 3429.37,1620.08 3430.41,1620.77 3431.44,1621.48 3432.48,1622.2 3433.51,1622.93 3434.54,1623.69 3435.57,1624.47 3436.6,1625.27 3437.62,1626.1 3438.64,1626.96 3439.66,1627.84 3440.68,1628.76 3441.69,1629.72 3442.71,1630.73 3443.72,1631.78 3444.73,1632.88 3445.73,1634.04 3446.74,1635.26 3447.74,1636.56 3448.74,1637.94 3449.74,1639.44 3450.74,1641.06 3451.74,1642.62 3452.73,1644.04 3453.72,1645.41 3454.71,1646.86 3455.7,1648.56 3456.68,1650.38 3457.67,1540.13 3458.65,1540.13 3459.63,1565.13 "
     id="polyline135" />
  <polyline
     clip-path="url(#clip932)"
     style="stroke:#808080; stroke-linecap:round; stroke-linejoin:round; stroke-width:4; stroke-opacity:1; fill:none"
     points="3204.54,3531.86 3204.54,-1595.84 "
     id="polyline137" />
  <polyline
     clip-path="url(#clip932)"
     style="stroke:#0000ff; stroke-linecap:round; stroke-linejoin:round; stroke-width:4; stroke-opacity:1; fill:none"
     points="355.315,161.767 700.563,490.499 902.521,261.066 1045.81,503.649 1156.96,674.946 1247.77,700.531 1324.55,708.539 1391.06,744.828 1449.73,810.185 1502.21,879.239 1549.68,909.43 1593.02,859.149 1632.89,848.418 1669.8,911.683 1704.16,950.226 1736.31,942.18 1766.51,928.341 1794.98,932.577 1821.91,952.796 1847.46,974.473 1871.76,970.579 1894.93,948.765 1917.07,945.674 1938.27,970.557 1958.6,995.736 1978.14,1003.68 1996.93,996.739 2015.05,992.339 2032.53,993.963 2049.41,996.119 2065.74,989.775 2081.56,979.355 2096.89,973.835 2111.75,977.554 2126.19,984.146 2140.22,990.27 2153.87,993.803 2167.16,993.666 2180.09,991.772 2192.7,989.97 2205,992.843 2217.01,1000.45 2228.73,1005.86 2240.18,1008.22 2251.37,1009.43 2262.32,1007.44 2273.03,1004.08 2283.52,1002.95 2293.79,1005.5 2303.85,1008.4 2313.71,1010.14 2323.38,1010.78 2332.87,1010.61 2342.18,1008.62 2351.32,1006.74 2360.3,1007 2369.11,1008.28 2377.78,1008.72 2386.29,1008 2394.66,1005.96 2402.89,1003.03 2410.99,1002.57 2418.96,1005.41 2426.81,1008.34 2434.53,1009.8 2442.13,1009.9 2449.62,1008.89 2457,1007.46 2464.28,1007.14 2471.44,1008.32 2478.51,1009.62 2485.47,1010.28 2492.34,1010.24 2499.12,1009.68 2505.81,1009.19 2512.4,1009.47 2518.92,1010.19 2525.34,1010.62 2531.69,1010.21 2537.95,1009.14 2544.14,1008.01 2550.25,1007.64 2556.29,1008.12 2562.25,1008.76 2568.15,1009.14 2573.97,1009.08 2579.73,1008.79 2585.43,1008.78 2591.05,1009.26 2596.62,1009.82 2602.12,1010.05 2607.57,1009.69 2612.95,1009.1 2618.28,1008.69 2623.55,1008.76 2628.76,1009.16 2633.93,1009.37 2639.04,1009.28 2644.09,1008.95 2649.1,1008.7 2654.05,1008.74 2658.96,1009.06 2663.82,1009.38 2668.63,1009.41 2673.4,1009.17 2678.12,1008.89 2682.8,1008.81 2687.43,1009 2692.02,1009.28 2696.57,1009.39 2701.08,1009.25 2705.55,1009.11 2709.97,1009.13 2714.36,1009.25 2718.71,1009.34 2723.02,1009.29 2727.3,1009.14 2731.54,1009.01 2735.74,1009.01 2739.91,1009.04 2744.04,1009.06 2748.14,1009.08 2752.21,1009.07 2756.24,1009.04 2760.24,1009.08 2764.21,1009.15 2768.15,1009.19 2772.06,1009.17 2775.93,1009.09 2779.78,1009.1 2783.6,1009.22 2787.38,1009.35 2791.14,1009.31 2794.87,1009.16 2798.58,1009 2802.25,1009.02 2805.9,1009.09 2809.52,1009.17 2813.12,1009.14 2816.69,1009.08 2820.24,1009.09 2823.76,1009.25 2827.25,1009.32 2830.72,1009.3 2834.17,1009.26 2837.59,1009.23 2840.99,1009.21 2844.37,1009.15 2847.72,1009.08 2851.06,1009.09 2854.37,1009.15 2857.65,1009.24 2860.92,1009.27 2864.16,1010.78 2867.39,853.196 2870.59,975.133 2873.77,985.423 2876.94,953.575 2880.08,955.071 2883.2,984.264 2886.3,1005.11 2889.39,996.24 2892.45,975.519 2895.5,970.326 2898.53,973.036 2901.54,971.85 2904.53,968.39 2907.5,979.231 2910.46,1007.2 2913.4,1013.36 2916.32,980.914 2919.22,871.72 2922.11,1010.35 2924.98,1041.47 2927.84,1046.63 2930.67,1056.91 2933.5,950.89 2936.3,1001.51 2939.09,1128.75 2941.87,1087.53 2944.63,1065.03 2947.37,1098.62 2950.1,1126.01 2952.82,1153.79 2955.51,1169.5 2958.2,1142.05 2960.87,1179.99 2963.53,1203.43 2966.17,1195.93 2968.8,1166.73 2971.41,1173.46 2974.01,1208.63 2976.6,1210.23 2979.18,1191.96 2981.74,1204.4 2984.28,1226.44 2986.82,1218.15 2989.34,1213.16 2991.85,1221.61 2994.35,1235.16 2996.83,1241.55 2999.3,1241.75 3001.76,1237.07 3004.21,1228.97 3006.65,1229.53 3009.07,1238.9 3011.48,1233.84 3013.88,1244.92 3016.27,1241.67 3018.65,1224.61 3021.01,1233.28 3023.37,1235.61 3025.71,1226.55 3028.05,1227.77 3030.37,1231.37 3032.68,1236.02 3034.98,1238.17 3037.27,1242.32 3039.55,1243.75 3041.82,1245.21 3044.08,1244.93 3046.33,1223.92 3048.57,1239.16 3050.79,1246.37 3053.01,1240.38 3055.22,1221.18 3057.42,1236.85 3059.61,1229.88 3061.79,1223.64 3063.96,1224.43 3066.12,1220.38 3068.27,1195.96 3070.42,1165.9 3072.55,1149.63 3074.67,1170.04 3076.79,1206.59 3078.89,1217.62 3080.99,1214.28 3083.08,1204.55 3085.16,1182.9 3087.23,1195.26 3089.29,1227.51 3091.35,1234.9 3093.39,1231.45 3095.43,1214.28 3097.46,1195.17 3099.48,1206.08 3101.49,1214.3 3103.5,1201.16 3105.49,1178.46 3107.48,1172.81 3109.46,1187.83 3111.43,1202.05 3113.4,1204.16 3115.36,1194.82 3117.3,1180.85 3119.25,1183.58 3121.18,1178.34 3123.11,1151.12 3125.03,1103.75 3126.94,1083.22 3128.84,1109.33 3130.74,1103.71 3132.63,1081.08 3134.52,1125.15 3136.39,1149.6 3138.26,1141.55 3140.12,1114.81 3141.98,1132.41 3143.83,1119.43 3145.67,1094.15 3147.5,1141.25 3149.33,1159.08 3151.15,1155.31 3152.96,1141.67 3154.77,1127.48 3156.57,1107.54 3158.37,1123.86 3160.16,1134.1 3161.94,1147.12 3163.72,1134.92 3165.48,1112.17 3167.25,1139.25 3169,1093.1 3170.76,1168.27 3172.5,1165.16 3174.24,1107.17 3175.97,1166.85 3177.7,1138.24 3179.42,1157.66 3181.13,1152.12 3182.84,670.007 3184.54,1139.94 3186.24,1114.64 3187.93,1149.18 3189.62,1111.98 3191.3,1168.98 3192.97,1239.57 3194.64,1214.69 3196.3,1186.54 3197.96,1168.45 3199.61,1147.8 3201.26,1170.2 3202.9,1231 3204.54,1249.29 3206.17,1237.44 3207.79,1223.92 3209.41,1196.91 3211.03,1191.8 3212.64,1218.44 3214.24,1237.62 3215.84,1238.08 3217.43,1214.88 3219.02,1185.08 3220.61,1191.67 3222.18,1213.21 3223.76,1223.78 3225.33,1219.46 3226.89,1203.15 3228.45,1193.05 3230,1209.33 3231.55,1212.83 3233.1,1198.5 3234.64,1207.16 3236.17,1224.43 3237.7,1226.2 3239.23,1213.68 3240.75,1196.79 3242.27,1206.4 3243.78,1213.54 3245.28,1212.44 3246.79,1201.68 3248.28,1208.51 3249.78,1219.67 3251.27,1219.49 3252.75,1211.43 3254.23,1202.89 3255.71,1217.47 3257.18,1219.03 3258.65,1206.77 3260.11,1203.64 3261.57,1212.74 3263.02,1211.28 3264.47,1202.26 3265.92,1201.57 3267.36,1207.28 3268.8,1205.76 3270.23,1197.8 3271.66,1206.7 3273.08,1206.79 3274.51,1195.47 3275.92,1196.41 3277.34,1194.78 3278.75,1183.57 3280.15,1178.42 3281.55,1175.52 3282.95,1163.58 3284.34,1161.24 3285.73,1157.16 3287.12,1146.24 3288.5,1152.08 3289.88,1144.16 3291.25,1140.53 3292.62,1147.03 3293.99,1140.93 3295.35,1134.54 3296.71,1145.05 3298.06,1139.18 3299.42,1121.18 3300.76,1140.36 3302.11,1142.16 3303.45,1129.06 3304.79,1139.06 3306.12,1139.89 3307.45,1134.22 3308.78,1133.69 3310.1,1128.25 3311.42,1117.39 3312.73,1112.45 3314.05,1104.76 3315.36,1097.37 3316.66,1102.06 3317.96,1095.94 3319.26,1087.61 3320.56,1094.09 3321.85,1103.25 3323.14,1087.3 3324.42,1081.1 3325.71,1103.73 3326.98,1093.28 3328.26,1058.4 3329.53,1083.64 3330.8,1073.29 3332.07,1040.6 3333.33,1083.21 3334.59,1057.72 3335.85,1021.51 3337.1,1079.81 3338.35,1047.16 3339.6,986.162 3340.84,1070.99 3342.08,1042.69 3343.32,1033.11 3344.55,1024.52 3345.78,1030.19 3347.01,1076.06 3348.24,1249.29 3349.46,1248.12 3350.68,1246.37 3351.89,1244.45 3353.11,1242.67 3354.32,1240.85 3355.53,1239.31 3356.73,1238.07 3357.93,1237.07 3359.13,1236.34 3360.33,1235.86 3361.52,1235.55 3362.71,1235.31 3363.9,1235.13 3365.08,1234.94 3366.26,1234.74 3367.44,1234.52 3368.62,1234.25 3369.79,1233.87 3370.96,1233.41 3372.13,1232.88 3373.3,1232.3 3374.46,1231.69 3375.62,1231.05 3376.77,1230.4 3377.93,1229.75 3379.08,1229.12 3380.23,1228.54 3381.38,1228.05 3382.52,1227.68 3383.66,1227.47 3384.8,1227.43 3385.94,1227.6 3387.07,1227.97 3388.2,1228.53 3389.33,1229.25 3390.45,1230.07 3391.58,1230.94 3392.7,1231.76 3393.81,1232.5 3394.93,1233.11 3396.04,1233.59 3397.15,1233.92 3398.26,1234.1 3399.37,1234.13 3400.47,1234.03 3401.57,1233.81 3402.67,1233.5 3403.77,1233.13 3404.86,1232.76 3405.95,1232.4 3407.04,1232.06 3408.13,1231.75 3409.21,1231.49 3410.29,1231.23 3411.37,1230.96 3412.45,1230.67 3413.52,1230.37 3414.59,1230.03 3415.66,1229.68 3416.73,1229.34 3417.8,1229.01 3418.86,1228.74 3419.92,1228.51 3420.98,1228.36 3422.04,1228.27 3423.09,1228.24 3424.14,1228.25 3425.19,1228.28 3426.24,1228.33 3427.28,1228.36 3428.33,1228.35 3429.37,1228.29 3430.41,1228.17 3431.44,1228.02 3432.48,1227.84 3433.51,1227.68 3434.54,1227.51 3435.57,1227.38 3436.6,1227.28 3437.62,1227.23 3438.64,1227.21 3439.66,1227.21 3440.68,1227.2 3441.69,1227.18 3442.71,1227.15 3443.72,1227.12 3444.73,1227.09 3445.73,1227.1 3446.74,1227.14 3447.74,1227.24 3448.74,1227.44 3449.74,1227.76 3450.74,1228.21 3451.74,1228.8 3452.73,1229.37 3453.72,1229.84 3454.71,1230.15 3455.7,1230.26 3456.68,1230.24 3457.67,1249.29 3458.65,1249.29 3459.63,1242.54 "
     id="polyline139" />
  <path
     clip-path="url(#clip930)"
     d="M2751.98 377.727 L3443.07 377.727 L3443.07 170.367 L2751.98 170.367  Z"
     fill="#ffffff"
     fill-rule="evenodd"
     fill-opacity="1"
     id="path141" />
  <polyline
     clip-path="url(#clip930)"
     style="stroke:#000000; stroke-linecap:round; stroke-linejoin:round; stroke-width:4; stroke-opacity:1; fill:none"
     points="2751.98,377.727 3443.07,377.727 3443.07,170.367 2751.98,170.367 2751.98,377.727 "
     id="polyline143" />
  <polyline
     clip-path="url(#clip930)"
     style="stroke:#ff0000; stroke-linecap:round; stroke-linejoin:round; stroke-width:4; stroke-opacity:1; fill:none"
     points="2788.54,222.207 3007.91,222.207 "
     id="polyline145" />
  <path
     clip-path="url(#clip930)"
     d="M3044.47 204.927 L3073.71 204.927 L3073.71 208.862 L3061.44 208.862 L3061.44 239.487 L3056.74 239.487 L3056.74 208.862 L3044.47 208.862 L3044.47 204.927 Z"
     fill="#000000"
     fill-rule="nonzero"
     fill-opacity="1"
     id="path147" />
  <path
     clip-path="url(#clip930)"
     d="M3086.09 217.542 Q3085.38 217.126 3084.52 216.94 Q3083.69 216.732 3082.67 216.732 Q3079.06 216.732 3077.11 219.093 Q3075.19 221.431 3075.19 225.829 L3075.19 239.487 L3070.91 239.487 L3070.91 213.561 L3075.19 213.561 L3075.19 217.588 Q3076.53 215.227 3078.69 214.093 Q3080.84 212.936 3083.92 212.936 Q3084.36 212.936 3084.89 213.005 Q3085.42 213.051 3086.07 213.167 L3086.09 217.542 Z"
     fill="#000000"
     fill-rule="nonzero"
     fill-opacity="1"
     id="path149" />
  <path
     clip-path="url(#clip930)"
     d="M3102.34 226.454 Q3097.18 226.454 3095.19 227.635 Q3093.2 228.815 3093.2 231.662 Q3093.2 233.931 3094.68 235.274 Q3096.19 236.593 3098.76 236.593 Q3102.3 236.593 3104.43 234.093 Q3106.58 231.57 3106.58 227.403 L3106.58 226.454 L3102.34 226.454 M3110.84 224.695 L3110.84 239.487 L3106.58 239.487 L3106.58 235.551 Q3105.12 237.912 3102.95 239.047 Q3100.77 240.158 3097.62 240.158 Q3093.64 240.158 3091.28 237.936 Q3088.94 235.69 3088.94 231.94 Q3088.94 227.565 3091.86 225.343 Q3094.8 223.121 3100.61 223.121 L3106.58 223.121 L3106.58 222.704 Q3106.58 219.764 3104.63 218.167 Q3102.71 216.547 3099.22 216.547 Q3097 216.547 3094.89 217.079 Q3092.78 217.612 3090.84 218.676 L3090.84 214.741 Q3093.18 213.839 3095.38 213.399 Q3097.57 212.936 3099.66 212.936 Q3105.28 212.936 3108.06 215.852 Q3110.84 218.769 3110.84 224.695 Z"
     fill="#000000"
     fill-rule="nonzero"
     fill-opacity="1"
     id="path151" />
  <path
     clip-path="url(#clip930)"
     d="M3119.61 213.561 L3123.87 213.561 L3123.87 239.487 L3119.61 239.487 L3119.61 213.561 M3119.61 203.468 L3123.87 203.468 L3123.87 208.862 L3119.61 208.862 L3119.61 203.468 Z"
     fill="#000000"
     fill-rule="nonzero"
     fill-opacity="1"
     id="path153" />
  <path
     clip-path="url(#clip930)"
     d="M3154.33 223.838 L3154.33 239.487 L3150.07 239.487 L3150.07 223.977 Q3150.07 220.297 3148.64 218.468 Q3147.2 216.639 3144.33 216.639 Q3140.88 216.639 3138.89 218.838 Q3136.9 221.038 3136.9 224.834 L3136.9 239.487 L3132.62 239.487 L3132.62 213.561 L3136.9 213.561 L3136.9 217.588 Q3138.43 215.251 3140.49 214.093 Q3142.57 212.936 3145.28 212.936 Q3149.75 212.936 3152.04 215.713 Q3154.33 218.468 3154.33 223.838 Z"
     fill="#000000"
     fill-rule="nonzero"
     fill-opacity="1"
     id="path155" />
  <path
     clip-path="url(#clip930)"
     d="M3162.83 213.561 L3167.09 213.561 L3167.09 239.487 L3162.83 239.487 L3162.83 213.561 M3162.83 203.468 L3167.09 203.468 L3167.09 208.862 L3162.83 208.862 L3162.83 203.468 Z"
     fill="#000000"
     fill-rule="nonzero"
     fill-opacity="1"
     id="path157" />
  <path
     clip-path="url(#clip930)"
     d="M3197.55 223.838 L3197.55 239.487 L3193.29 239.487 L3193.29 223.977 Q3193.29 220.297 3191.86 218.468 Q3190.42 216.639 3187.55 216.639 Q3184.1 216.639 3182.11 218.838 Q3180.12 221.038 3180.12 224.834 L3180.12 239.487 L3175.84 239.487 L3175.84 213.561 L3180.12 213.561 L3180.12 217.588 Q3181.65 215.251 3183.71 214.093 Q3185.79 212.936 3188.5 212.936 Q3192.97 212.936 3195.26 215.713 Q3197.55 218.468 3197.55 223.838 Z"
     fill="#000000"
     fill-rule="nonzero"
     fill-opacity="1"
     id="path159" />
  <path
     clip-path="url(#clip930)"
     d="M3223.11 226.223 Q3223.11 221.593 3221.19 219.047 Q3219.29 216.501 3215.84 216.501 Q3212.41 216.501 3210.49 219.047 Q3208.59 221.593 3208.59 226.223 Q3208.59 230.829 3210.49 233.375 Q3212.41 235.922 3215.84 235.922 Q3219.29 235.922 3221.19 233.375 Q3223.11 230.829 3223.11 226.223 M3227.37 236.269 Q3227.37 242.889 3224.43 246.107 Q3221.49 249.348 3215.42 249.348 Q3213.18 249.348 3211.19 249 Q3209.19 248.676 3207.32 247.982 L3207.32 243.838 Q3209.19 244.857 3211.02 245.343 Q3212.85 245.829 3214.75 245.829 Q3218.94 245.829 3221.02 243.63 Q3223.11 241.454 3223.11 237.033 L3223.11 234.926 Q3221.79 237.218 3219.73 238.352 Q3217.67 239.487 3214.8 239.487 Q3210.03 239.487 3207.11 235.852 Q3204.19 232.218 3204.19 226.223 Q3204.19 220.204 3207.11 216.57 Q3210.03 212.936 3214.8 212.936 Q3217.67 212.936 3219.73 214.07 Q3221.79 215.204 3223.11 217.496 L3223.11 213.561 L3227.37 213.561 L3227.37 236.269 Z"
     fill="#000000"
     fill-rule="nonzero"
     fill-opacity="1"
     id="path161" />
  <polyline
     clip-path="url(#clip930)"
     style="stroke:#808080; stroke-linecap:round; stroke-linejoin:round; stroke-width:4; stroke-opacity:1; fill:none"
     points="2788.54,274.047 3007.91,274.047 "
     id="polyline163" />
  <path
     clip-path="url(#clip930)"
     d="M3049.15 274.822 L3049.15 287.484 L3056.65 287.484 Q3060.42 287.484 3062.23 285.933 Q3064.06 284.359 3064.06 281.141 Q3064.06 277.901 3062.23 276.373 Q3060.42 274.822 3056.65 274.822 L3049.15 274.822 M3049.15 260.609 L3049.15 271.026 L3056.07 271.026 Q3059.5 271.026 3061.16 269.753 Q3062.85 268.456 3062.85 265.817 Q3062.85 263.202 3061.16 261.905 Q3059.5 260.609 3056.07 260.609 L3049.15 260.609 M3044.47 256.767 L3056.42 256.767 Q3061.76 256.767 3064.66 258.989 Q3067.55 261.211 3067.55 265.308 Q3067.55 268.479 3066.07 270.354 Q3064.59 272.229 3061.72 272.692 Q3065.17 273.433 3067.07 275.794 Q3068.99 278.132 3068.99 281.651 Q3068.99 286.28 3065.84 288.803 Q3062.69 291.327 3056.88 291.327 L3044.47 291.327 L3044.47 256.767 Z"
     fill="#000000"
     fill-rule="nonzero"
     fill-opacity="1"
     id="path165" />
  <path
     clip-path="url(#clip930)"
     d="M3098.99 277.299 L3098.99 279.382 L3079.4 279.382 Q3079.68 283.78 3082.04 286.095 Q3084.43 288.387 3088.66 288.387 Q3091.12 288.387 3093.41 287.785 Q3095.72 287.183 3097.99 285.979 L3097.99 290.007 Q3095.7 290.979 3093.29 291.489 Q3090.89 291.998 3088.41 291.998 Q3082.2 291.998 3078.57 288.387 Q3074.96 284.776 3074.96 278.618 Q3074.96 272.253 3078.39 268.526 Q3081.83 264.776 3087.67 264.776 Q3092.9 264.776 3095.93 268.155 Q3098.99 271.512 3098.99 277.299 M3094.73 276.049 Q3094.68 272.553 3092.76 270.47 Q3090.86 268.387 3087.71 268.387 Q3084.15 268.387 3082 270.401 Q3079.87 272.415 3079.54 276.072 L3094.73 276.049 Z"
     fill="#000000"
     fill-rule="nonzero"
     fill-opacity="1"
     id="path167" />
  <path
     clip-path="url(#clip930)"
     d="M3122.51 266.165 L3122.51 270.192 Q3120.7 269.266 3118.76 268.803 Q3116.81 268.341 3114.73 268.341 Q3111.56 268.341 3109.96 269.313 Q3108.38 270.285 3108.38 272.229 Q3108.38 273.711 3109.52 274.567 Q3110.65 275.401 3114.08 276.165 L3115.54 276.489 Q3120.07 277.461 3121.97 279.243 Q3123.89 281.002 3123.89 284.174 Q3123.89 287.785 3121.02 289.891 Q3118.18 291.998 3113.18 291.998 Q3111.09 291.998 3108.82 291.581 Q3106.58 291.188 3104.08 290.377 L3104.08 285.979 Q3106.44 287.206 3108.73 287.831 Q3111.02 288.433 3113.27 288.433 Q3116.28 288.433 3117.9 287.415 Q3119.52 286.373 3119.52 284.498 Q3119.52 282.762 3118.34 281.836 Q3117.18 280.91 3113.22 280.053 L3111.74 279.706 Q3107.78 278.873 3106.02 277.16 Q3104.26 275.424 3104.26 272.415 Q3104.26 268.757 3106.86 266.766 Q3109.45 264.776 3114.22 264.776 Q3116.58 264.776 3118.66 265.123 Q3120.75 265.47 3122.51 266.165 Z"
     fill="#000000"
     fill-rule="nonzero"
     fill-opacity="1"
     id="path169" />
  <path
     clip-path="url(#clip930)"
     d="M3134.89 258.04 L3134.89 265.401 L3143.66 265.401 L3143.66 268.711 L3134.89 268.711 L3134.89 282.785 Q3134.89 285.956 3135.75 286.859 Q3136.63 287.762 3139.29 287.762 L3143.66 287.762 L3143.66 291.327 L3139.29 291.327 Q3134.36 291.327 3132.48 289.498 Q3130.61 287.646 3130.61 282.785 L3130.61 268.711 L3127.48 268.711 L3127.48 265.401 L3130.61 265.401 L3130.61 258.04 L3134.89 258.04 Z"
     fill="#000000"
     fill-rule="nonzero"
     fill-opacity="1"
     id="path171" />
  <path
     clip-path="url(#clip930)"
     d="M3169.19 260.609 L3169.19 273.595 L3175.07 273.595 Q3178.34 273.595 3180.12 271.905 Q3181.9 270.216 3181.9 267.091 Q3181.9 263.989 3180.12 262.299 Q3178.34 260.609 3175.07 260.609 L3169.19 260.609 M3164.52 256.767 L3175.07 256.767 Q3180.88 256.767 3183.85 259.405 Q3186.83 262.021 3186.83 267.091 Q3186.83 272.206 3183.85 274.822 Q3180.88 277.438 3175.07 277.438 L3169.19 277.438 L3169.19 291.327 L3164.52 291.327 L3164.52 256.767 Z"
     fill="#000000"
     fill-rule="nonzero"
     fill-opacity="1"
     id="path173" />
  <path
     clip-path="url(#clip930)"
     d="M3202.57 278.294 Q3197.41 278.294 3195.42 279.475 Q3193.43 280.655 3193.43 283.502 Q3193.43 285.771 3194.91 287.114 Q3196.42 288.433 3198.99 288.433 Q3202.53 288.433 3204.66 285.933 Q3206.81 283.41 3206.81 279.243 L3206.81 278.294 L3202.57 278.294 M3211.07 276.535 L3211.07 291.327 L3206.81 291.327 L3206.81 287.391 Q3205.35 289.752 3203.18 290.887 Q3201 291.998 3197.85 291.998 Q3193.87 291.998 3191.51 289.776 Q3189.17 287.53 3189.17 283.78 Q3189.17 279.405 3192.09 277.183 Q3195.03 274.961 3200.84 274.961 L3206.81 274.961 L3206.81 274.544 Q3206.81 271.604 3204.87 270.007 Q3202.94 268.387 3199.45 268.387 Q3197.23 268.387 3195.12 268.919 Q3193.01 269.452 3191.07 270.516 L3191.07 266.581 Q3193.41 265.679 3195.61 265.239 Q3197.81 264.776 3199.89 264.776 Q3205.51 264.776 3208.29 267.692 Q3211.07 270.609 3211.07 276.535 Z"
     fill="#000000"
     fill-rule="nonzero"
     fill-opacity="1"
     id="path175" />
  <path
     clip-path="url(#clip930)"
     d="M3234.87 269.382 Q3234.15 268.966 3233.29 268.78 Q3232.46 268.572 3231.44 268.572 Q3227.83 268.572 3225.88 270.933 Q3223.96 273.271 3223.96 277.669 L3223.96 291.327 L3219.68 291.327 L3219.68 265.401 L3223.96 265.401 L3223.96 269.428 Q3225.31 267.067 3227.46 265.933 Q3229.61 264.776 3232.69 264.776 Q3233.13 264.776 3233.66 264.845 Q3234.19 264.891 3234.84 265.007 L3234.87 269.382 Z"
     fill="#000000"
     fill-rule="nonzero"
     fill-opacity="1"
     id="path177" />
  <path
     clip-path="url(#clip930)"
     d="M3251.12 278.294 Q3245.95 278.294 3243.96 279.475 Q3241.97 280.655 3241.97 283.502 Q3241.97 285.771 3243.45 287.114 Q3244.96 288.433 3247.53 288.433 Q3251.07 288.433 3253.2 285.933 Q3255.35 283.41 3255.35 279.243 L3255.35 278.294 L3251.12 278.294 M3259.61 276.535 L3259.61 291.327 L3255.35 291.327 L3255.35 287.391 Q3253.89 289.752 3251.72 290.887 Q3249.54 291.998 3246.39 291.998 Q3242.41 291.998 3240.05 289.776 Q3237.71 287.53 3237.71 283.78 Q3237.71 279.405 3240.63 277.183 Q3243.57 274.961 3249.38 274.961 L3255.35 274.961 L3255.35 274.544 Q3255.35 271.604 3253.41 270.007 Q3251.49 268.387 3247.99 268.387 Q3245.77 268.387 3243.66 268.919 Q3241.56 269.452 3239.61 270.516 L3239.61 266.581 Q3241.95 265.679 3244.15 265.239 Q3246.35 264.776 3248.43 264.776 Q3254.06 264.776 3256.83 267.692 Q3259.61 270.609 3259.61 276.535 Z"
     fill="#000000"
     fill-rule="nonzero"
     fill-opacity="1"
     id="path179" />
  <path
     clip-path="url(#clip930)"
     d="M3288.57 270.378 Q3290.17 267.507 3292.39 266.141 Q3294.61 264.776 3297.62 264.776 Q3301.67 264.776 3303.87 267.623 Q3306.07 270.447 3306.07 275.678 L3306.07 291.327 L3301.79 291.327 L3301.79 275.817 Q3301.79 272.091 3300.47 270.285 Q3299.15 268.479 3296.44 268.479 Q3293.13 268.479 3291.21 270.678 Q3289.29 272.878 3289.29 276.674 L3289.29 291.327 L3285 291.327 L3285 275.817 Q3285 272.067 3283.68 270.285 Q3282.37 268.479 3279.61 268.479 Q3276.35 268.479 3274.43 270.702 Q3272.5 272.901 3272.5 276.674 L3272.5 291.327 L3268.22 291.327 L3268.22 265.401 L3272.5 265.401 L3272.5 269.428 Q3273.96 267.044 3276 265.91 Q3278.04 264.776 3280.84 264.776 Q3283.66 264.776 3285.63 266.211 Q3287.62 267.646 3288.57 270.378 Z"
     fill="#000000"
     fill-rule="nonzero"
     fill-opacity="1"
     id="path181" />
  <path
     clip-path="url(#clip930)"
     d="M3336.74 277.299 L3336.74 279.382 L3317.16 279.382 Q3317.43 283.78 3319.8 286.095 Q3322.18 288.387 3326.42 288.387 Q3328.87 288.387 3331.16 287.785 Q3333.48 287.183 3335.74 285.979 L3335.74 290.007 Q3333.45 290.979 3331.05 291.489 Q3328.64 291.998 3326.16 291.998 Q3319.96 291.998 3316.32 288.387 Q3312.71 284.776 3312.71 278.618 Q3312.71 272.253 3316.14 268.526 Q3319.59 264.776 3325.42 264.776 Q3330.65 264.776 3333.68 268.155 Q3336.74 271.512 3336.74 277.299 M3332.48 276.049 Q3332.43 272.553 3330.51 270.47 Q3328.62 268.387 3325.47 268.387 Q3321.9 268.387 3319.75 270.401 Q3317.62 272.415 3317.3 276.072 L3332.48 276.049 Z"
     fill="#000000"
     fill-rule="nonzero"
     fill-opacity="1"
     id="path183" />
  <path
     clip-path="url(#clip930)"
     d="M3347.94 258.04 L3347.94 265.401 L3356.72 265.401 L3356.72 268.711 L3347.94 268.711 L3347.94 282.785 Q3347.94 285.956 3348.8 286.859 Q3349.68 287.762 3352.34 287.762 L3356.72 287.762 L3356.72 291.327 L3352.34 291.327 Q3347.41 291.327 3345.54 289.498 Q3343.66 287.646 3343.66 282.785 L3343.66 268.711 L3340.54 268.711 L3340.54 265.401 L3343.66 265.401 L3343.66 258.04 L3347.94 258.04 Z"
     fill="#000000"
     fill-rule="nonzero"
     fill-opacity="1"
     id="path185" />
  <path
     clip-path="url(#clip930)"
     d="M3384.49 277.299 L3384.49 279.382 L3364.91 279.382 Q3365.19 283.78 3367.55 286.095 Q3369.93 288.387 3374.17 288.387 Q3376.62 288.387 3378.92 287.785 Q3381.23 287.183 3383.5 285.979 L3383.5 290.007 Q3381.21 290.979 3378.8 291.489 Q3376.39 291.998 3373.92 291.998 Q3367.71 291.998 3364.08 288.387 Q3360.47 284.776 3360.47 278.618 Q3360.47 272.253 3363.89 268.526 Q3367.34 264.776 3373.18 264.776 Q3378.41 264.776 3381.44 268.155 Q3384.49 271.512 3384.49 277.299 M3380.24 276.049 Q3380.19 272.553 3378.27 270.47 Q3376.37 268.387 3373.22 268.387 Q3369.66 268.387 3367.5 270.401 Q3365.37 272.415 3365.05 276.072 L3380.24 276.049 Z"
     fill="#000000"
     fill-rule="nonzero"
     fill-opacity="1"
     id="path187" />
  <path
     clip-path="url(#clip930)"
     d="M3406.51 269.382 Q3405.79 268.966 3404.93 268.78 Q3404.1 268.572 3403.08 268.572 Q3399.47 268.572 3397.53 270.933 Q3395.61 273.271 3395.61 277.669 L3395.61 291.327 L3391.32 291.327 L3391.32 265.401 L3395.61 265.401 L3395.61 269.428 Q3396.95 267.067 3399.1 265.933 Q3401.25 264.776 3404.33 264.776 Q3404.77 264.776 3405.3 264.845 Q3405.84 264.891 3406.49 265.007 L3406.51 269.382 Z"
     fill="#000000"
     fill-rule="nonzero"
     fill-opacity="1"
     id="path189" />
  <polyline
     clip-path="url(#clip930)"
     style="stroke:#0000ff; stroke-linecap:round; stroke-linejoin:round; stroke-width:4; stroke-opacity:1; fill:none"
     points="2788.54,325.887 3007.91,325.887 "
     id="polyline191" />
  <path
     clip-path="url(#clip930)"
     d="M3057.67 343.167 L3044.47 308.607 L3049.36 308.607 L3060.31 337.704 L3071.28 308.607 L3076.14 308.607 L3062.97 343.167 L3057.67 343.167 Z"
     fill="#000000"
     fill-rule="nonzero"
     fill-opacity="1"
     id="path193" />
  <path
     clip-path="url(#clip930)"
     d="M3089.1 330.134 Q3083.94 330.134 3081.95 331.315 Q3079.96 332.495 3079.96 335.342 Q3079.96 337.611 3081.44 338.954 Q3082.95 340.273 3085.51 340.273 Q3089.06 340.273 3091.19 337.773 Q3093.34 335.25 3093.34 331.083 L3093.34 330.134 L3089.1 330.134 M3097.6 328.375 L3097.6 343.167 L3093.34 343.167 L3093.34 339.231 Q3091.88 341.592 3089.7 342.727 Q3087.53 343.838 3084.38 343.838 Q3080.4 343.838 3078.04 341.616 Q3075.7 339.37 3075.7 335.62 Q3075.7 331.245 3078.62 329.023 Q3081.56 326.801 3087.37 326.801 L3093.34 326.801 L3093.34 326.384 Q3093.34 323.444 3091.39 321.847 Q3089.47 320.227 3085.98 320.227 Q3083.76 320.227 3081.65 320.759 Q3079.54 321.292 3077.6 322.356 L3077.6 318.421 Q3079.94 317.519 3082.14 317.079 Q3084.33 316.616 3086.42 316.616 Q3092.04 316.616 3094.82 319.532 Q3097.6 322.449 3097.6 328.375 Z"
     fill="#000000"
     fill-rule="nonzero"
     fill-opacity="1"
     id="path195" />
  <path
     clip-path="url(#clip930)"
     d="M3106.37 307.148 L3110.63 307.148 L3110.63 343.167 L3106.37 343.167 L3106.37 307.148 Z"
     fill="#000000"
     fill-rule="nonzero"
     fill-opacity="1"
     id="path197" />
  <path
     clip-path="url(#clip930)"
     d="M3119.54 317.241 L3123.8 317.241 L3123.8 343.167 L3119.54 343.167 L3119.54 317.241 M3119.54 307.148 L3123.8 307.148 L3123.8 312.542 L3119.54 312.542 L3119.54 307.148 Z"
     fill="#000000"
     fill-rule="nonzero"
     fill-opacity="1"
     id="path199" />
  <path
     clip-path="url(#clip930)"
     d="M3149.77 321.176 L3149.77 307.148 L3154.03 307.148 L3154.03 343.167 L3149.77 343.167 L3149.77 339.278 Q3148.43 341.592 3146.37 342.727 Q3144.33 343.838 3141.46 343.838 Q3136.76 343.838 3133.8 340.088 Q3130.86 336.338 3130.86 330.227 Q3130.86 324.116 3133.8 320.366 Q3136.76 316.616 3141.46 316.616 Q3144.33 316.616 3146.37 317.75 Q3148.43 318.861 3149.77 321.176 M3135.26 330.227 Q3135.26 334.926 3137.18 337.611 Q3139.13 340.273 3142.51 340.273 Q3145.88 340.273 3147.83 337.611 Q3149.77 334.926 3149.77 330.227 Q3149.77 325.528 3147.83 322.866 Q3145.88 320.181 3142.51 320.181 Q3139.13 320.181 3137.18 322.866 Q3135.26 325.528 3135.26 330.227 Z"
     fill="#000000"
     fill-rule="nonzero"
     fill-opacity="1"
     id="path201" />
  <path
     clip-path="url(#clip930)"
     d="M3174.59 330.134 Q3169.43 330.134 3167.44 331.315 Q3165.44 332.495 3165.44 335.342 Q3165.44 337.611 3166.93 338.954 Q3168.43 340.273 3171 340.273 Q3174.54 340.273 3176.67 337.773 Q3178.82 335.25 3178.82 331.083 L3178.82 330.134 L3174.59 330.134 M3183.08 328.375 L3183.08 343.167 L3178.82 343.167 L3178.82 339.231 Q3177.37 341.592 3175.19 342.727 Q3173.01 343.838 3169.87 343.838 Q3165.88 343.838 3163.52 341.616 Q3161.19 339.37 3161.19 335.62 Q3161.19 331.245 3164.1 329.023 Q3167.04 326.801 3172.85 326.801 L3178.82 326.801 L3178.82 326.384 Q3178.82 323.444 3176.88 321.847 Q3174.96 320.227 3171.46 320.227 Q3169.24 320.227 3167.13 320.759 Q3165.03 321.292 3163.08 322.356 L3163.08 318.421 Q3165.42 317.519 3167.62 317.079 Q3169.82 316.616 3171.9 316.616 Q3177.53 316.616 3180.31 319.532 Q3183.08 322.449 3183.08 328.375 Z"
     fill="#000000"
     fill-rule="nonzero"
     fill-opacity="1"
     id="path203" />
  <path
     clip-path="url(#clip930)"
     d="M3196.07 309.88 L3196.07 317.241 L3204.84 317.241 L3204.84 320.551 L3196.07 320.551 L3196.07 334.625 Q3196.07 337.796 3196.93 338.699 Q3197.81 339.602 3200.47 339.602 L3204.84 339.602 L3204.84 343.167 L3200.47 343.167 Q3195.54 343.167 3193.66 341.338 Q3191.79 339.486 3191.79 334.625 L3191.79 320.551 L3188.66 320.551 L3188.66 317.241 L3191.79 317.241 L3191.79 309.88 L3196.07 309.88 Z"
     fill="#000000"
     fill-rule="nonzero"
     fill-opacity="1"
     id="path205" />
  <path
     clip-path="url(#clip930)"
     d="M3210.44 317.241 L3214.7 317.241 L3214.7 343.167 L3210.44 343.167 L3210.44 317.241 M3210.44 307.148 L3214.7 307.148 L3214.7 312.542 L3210.44 312.542 L3210.44 307.148 Z"
     fill="#000000"
     fill-rule="nonzero"
     fill-opacity="1"
     id="path207" />
  <path
     clip-path="url(#clip930)"
     d="M3233.66 320.227 Q3230.24 320.227 3228.25 322.912 Q3226.25 325.574 3226.25 330.227 Q3226.25 334.88 3228.22 337.565 Q3230.21 340.227 3233.66 340.227 Q3237.06 340.227 3239.06 337.542 Q3241.05 334.856 3241.05 330.227 Q3241.05 325.62 3239.06 322.935 Q3237.06 320.227 3233.66 320.227 M3233.66 316.616 Q3239.22 316.616 3242.39 320.227 Q3245.56 323.838 3245.56 330.227 Q3245.56 336.592 3242.39 340.227 Q3239.22 343.838 3233.66 343.838 Q3228.08 343.838 3224.91 340.227 Q3221.76 336.592 3221.76 330.227 Q3221.76 323.838 3224.91 320.227 Q3228.08 316.616 3233.66 316.616 Z"
     fill="#000000"
     fill-rule="nonzero"
     fill-opacity="1"
     id="path209" />
  <path
     clip-path="url(#clip930)"
     d="M3274.17 327.518 L3274.17 343.167 L3269.91 343.167 L3269.91 327.657 Q3269.91 323.977 3268.48 322.148 Q3267.04 320.319 3264.17 320.319 Q3260.72 320.319 3258.73 322.518 Q3256.74 324.718 3256.74 328.514 L3256.74 343.167 L3252.46 343.167 L3252.46 317.241 L3256.74 317.241 L3256.74 321.268 Q3258.27 318.931 3260.33 317.773 Q3262.41 316.616 3265.12 316.616 Q3269.59 316.616 3271.88 319.393 Q3274.17 322.148 3274.17 327.518 Z"
     fill="#000000"
     fill-rule="nonzero"
     fill-opacity="1"
     id="path211" />
  <g
     id="g512"
     transform="matrix(1.3334163,0,0,1.6195267,-1076.8327,-1154.8093)">
    <path
       clip-path="url(#clip930)"
       d="m 3018.34,1075.66 h 13.77 v 2.95 h -10.56 v 6.35 q 0.77,-0.26 1.53,-0.38 0.76,-0.14 1.53,-0.14 4.34,0 6.87,2.38 2.54,2.38 2.54,6.44 0,4.18 -2.61,6.51 -2.6,2.31 -7.34,2.31 -1.63,0 -3.33,-0.28 -1.69,-0.28 -3.49,-0.83 v -3.53 q 1.56,0.85 3.23,1.27 1.66,0.42 3.52,0.42 3,0 4.76,-1.58 1.75,-1.58 1.75,-4.29 0,-2.71 -1.75,-4.29 -1.76,-1.58 -4.76,-1.58 -1.41,0 -2.81,0.31 -1.39,0.32 -2.85,0.98 z"
       fill="#000000"
       fill-rule="nonzero"
       fill-opacity="1"
       id="path213" />
    <path
       clip-path="url(#clip930)"
       d="m 3050.56,1078.71 -8.85,13.84 h 8.85 v -13.84 m -0.92,-3.05 h 4.41 v 16.89 h 3.7 v 2.91 h -3.7 v 6.12 h -3.49 v -6.12 h -11.7 v -3.38 z"
       fill="#000000"
       fill-rule="nonzero"
       fill-opacity="1"
       id="path215" />
    <path
       clip-path="url(#clip930)"
       d="m 3063.55,1097.17 h 3.66 v 4.41 h -3.66 z"
       fill="#000000"
       fill-rule="nonzero"
       fill-opacity="1"
       id="path217" />
    <path
       clip-path="url(#clip930)"
       d="m 3074.95,1101.04 v -3.2 q 1.32,0.63 2.68,0.96 1.35,0.33 2.65,0.33 3.48,0 5.3,-2.33 1.84,-2.34 2.1,-7.1 -1.01,1.49 -2.55,2.29 -1.55,0.8 -3.42,0.8 -3.89,0 -6.17,-2.34 -2.25,-2.36 -2.25,-6.44 0,-4 2.36,-6.41 2.36,-2.41 6.28,-2.41 4.5,0 6.86,3.45 2.38,3.44 2.38,10 0,6.13 -2.92,9.79 -2.9,3.65 -7.81,3.65 -1.32,0 -2.67,-0.26 -1.36,-0.26 -2.82,-0.78 m 6.98,-10.99 q 2.36,0 3.74,-1.62 1.39,-1.61 1.39,-4.42 0,-2.8 -1.39,-4.41 -1.38,-1.64 -3.74,-1.64 -2.36,0 -3.75,1.64 -1.37,1.61 -1.37,4.41 0,2.81 1.37,4.42 1.39,1.62 3.75,1.62 z"
       fill="#000000"
       fill-rule="nonzero"
       fill-opacity="1"
       id="path219" />
    <path
       clip-path="url(#clip930)"
       d="m 3098.08,1098.62 h 5.73 v -19.77 l -6.23,1.25 v -3.19 l 6.19,-1.25 h 3.51 v 22.96 h 5.73 v 2.96 h -14.93 z"
       fill="#000000"
       fill-rule="nonzero"
       fill-opacity="1"
       id="path221" />
    <path
       clip-path="url(#clip930)"
       d="m 3129.73,1078.71 -8.86,13.84 h 8.86 v -13.84 m -0.92,-3.05 h 4.41 v 16.89 h 3.7 v 2.91 h -3.7 v 6.12 h -3.49 v -6.12 h -11.7 v -3.38 z"
       fill="#000000"
       fill-rule="nonzero"
       fill-opacity="1"
       id="path223" />
    <path
       clip-path="url(#clip930)"
       d="m 3153.34,1087.6 q 2.52,0.54 3.92,2.24 1.43,1.7 1.43,4.2 0,3.84 -2.64,5.94 -2.64,2.1 -7.5,2.1 -1.63,0 -3.37,-0.33 -1.72,-0.31 -3.56,-0.96 v -3.38 q 1.46,0.85 3.2,1.28 1.73,0.44 3.62,0.44 3.3,0 5.02,-1.3 1.74,-1.31 1.74,-3.79 0,-2.29 -1.62,-3.58 -1.59,-1.3 -4.46,-1.3 h -3.02 v -2.88 h 3.16 q 2.59,0 3.96,-1.02 1.37,-1.05 1.37,-2.99 0,-2 -1.42,-3.06 -1.41,-1.07 -4.05,-1.07 -1.44,0 -3.09,0.31 -1.65,0.31 -3.63,0.97 v -3.12 q 2,-0.56 3.73,-0.84 1.76,-0.27 3.3,-0.27 4,0 6.32,1.82 2.33,1.8 2.33,4.9 0,2.15 -1.23,3.64 -1.24,1.48 -3.51,2.05 z"
       fill="#000000"
       fill-rule="nonzero"
       fill-opacity="1"
       id="path225" />
    <path
       clip-path="url(#clip930)"
       d="m 3168.36,1098.62 h 12.24 v 2.96 h -16.46 v -2.96 q 1.99,-2.06 5.43,-5.53 3.46,-3.49 4.34,-4.5 1.69,-1.89 2.35,-3.2 0.67,-1.31 0.67,-2.58 0,-2.07 -1.46,-3.37 -1.44,-1.3 -3.76,-1.3 -1.65,0 -3.49,0.57 -1.82,0.57 -3.91,1.74 v -3.54 q 2.12,-0.86 3.96,-1.29 1.84,-0.43 3.37,-0.43 4.03,0 6.42,2.01 2.4,2.01 2.4,5.38 0,1.6 -0.61,3.04 -0.59,1.42 -2.17,3.37 -0.43,0.5 -2.76,2.92 -2.33,2.39 -6.56,6.71 z"
       fill="#000000"
       fill-rule="nonzero"
       fill-opacity="1"
       id="path227" />
    <path
       clip-path="url(#clip930)"
       d="m 3195.89,1087.22 q -2.36,0 -3.75,1.61 -1.37,1.62 -1.37,4.43 0,2.79 1.37,4.43 1.39,1.61 3.75,1.61 2.36,0 3.73,-1.61 1.39,-1.64 1.39,-4.43 0,-2.81 -1.39,-4.43 -1.37,-1.61 -3.73,-1.61 m 6.96,-10.99 v 3.19 q -1.32,-0.62 -2.67,-0.95 -1.34,-0.33 -2.66,-0.33 -3.47,0 -5.31,2.34 -1.82,2.35 -2.08,7.08 1.02,-1.51 2.57,-2.3 1.54,-0.82 3.4,-0.82 3.91,0 6.16,2.38 2.28,2.36 2.28,6.44 0,3.99 -2.36,6.41 -2.36,2.41 -6.29,2.41 -4.5,0 -6.87,-3.44 -2.38,-3.45 -2.38,-10 0,-6.14 2.91,-9.79 2.92,-3.66 7.83,-3.66 1.32,0 2.66,0.26 1.35,0.26 2.81,0.78 z"
       fill="#000000"
       fill-rule="nonzero"
       fill-opacity="1"
       id="path229" />
  </g>
  <text
     xml:space="preserve"
     style="font-size:85.3333px;font-family:sans-serif;-inkscape-font-specification:'sans-serif, Normal';fill:#000000;stroke-width:4;font-weight:normal;font-style:normal;font-stretch:normal;font-variant:normal;font-variant-ligatures:normal;font-variant-caps:normal;font-variant-numeric:normal;font-variant-east-asian:normal"
     x="1702.074"
     y="1956.0902"
     id="text393"><tspan
       sodipodi:role="line"
       id="tspan391"
       style="stroke-width:4;-inkscape-font-specification:'sans-serif, Normal';font-family:sans-serif;font-weight:normal;font-style:normal;font-stretch:normal;font-variant:normal;font-size:85.33333332px;font-variant-ligatures:normal;font-variant-caps:normal;font-variant-numeric:normal;font-variant-east-asian:normal"
       x="1702.074"
       y="1956.0902">Iterations</tspan></text>
  <text
     xml:space="preserve"
     style="font-style:normal;font-variant:normal;font-weight:normal;font-stretch:normal;font-size:85.3332px;font-family:sans-serif;-inkscape-font-specification:'sans-serif, Normal';font-variant-ligatures:normal;font-variant-caps:normal;font-variant-numeric:normal;font-variant-east-asian:normal;fill:#000000;stroke-width:4"
     x="-1006.3164"
     y="128.18953"
     id="text501"
     transform="rotate(-90)"><tspan
       sodipodi:role="line"
       id="tspan499"
       style="stroke-width:4"
       x="-1006.3164"
       y="128.18953">Loss</tspan></text>
</svg>
